<svg xmlns="http://www.w3.org/2000/svg" xmlns:xlink="http://www.w3.org/1999/xlink" id="body_16" preserveAspectRatio="xMinYMin meet" viewBox="0 0 1280 720"><defs><clipPath id="1"><path id="" clip-rule="evenodd" transform="matrix(1 0 0 1 0 0)" d="M0 540L0 0L0 0L960 0L960 0L960 540L960 540L0 540z" /></clipPath><clipPath id="2"><path id="" clip-rule="evenodd" transform="matrix(1 0 0 1 0 0)" d="M0 539.9999L960 539.9999L960 539.9999L960 -0.0001220703L960 -0.0001220703L0 -0.0001220703z" /></clipPath><clipPath id="3"><path id="" clip-rule="evenodd" transform="matrix(1 0 0 1 0 0)" d="M1.4305E-05 540L960 540L960 540L960 0L960 0L1.4305E-05 0z" /></clipPath><clipPath id="4"><path id="" clip-rule="evenodd" transform="matrix(1 0 0 1 0 0)" d="M1.4305E-05 540L960 540L960 540L960 0L960 0L1.4305E-05 0z" /></clipPath><clipPath id="5"><path id="" clip-rule="evenodd" transform="matrix(1 0 0 1 0 0)" d="M1.4305E-05 540L960 540L960 540L960 0L960 0L1.4305E-05 0z" /></clipPath><clipPath id="6"><path id="" clip-rule="evenodd" transform="matrix(1 0 0 1 0 0)" d="M1.4305E-05 540L960 540L960 540L960 0L960 0L1.4305E-05 0z" /></clipPath><clipPath id="7"><path id="" clip-rule="evenodd" transform="matrix(1 0 0 1 0 0)" d="M1.4305E-05 540L960 540L960 540L960 0L960 0L1.4305E-05 0z" /></clipPath><clipPath id="8"><path id="" clip-rule="evenodd" transform="matrix(1 0 0 1 0 0)" d="M1.4305E-05 540L960 540L960 540L960 0L960 0L1.4305E-05 0z" /></clipPath><clipPath id="9"><path id="" clip-rule="evenodd" transform="matrix(1 0 0 1 0 0)" d="M1.4305E-05 540L960 540L960 540L960 0L960 0L1.4305E-05 0z" /></clipPath><clipPath id="10"><path id="" clip-rule="evenodd" transform="matrix(1 0 0 1 0 0)" d="M1.4305E-05 540L960 540L960 540L960 0L960 0L1.4305E-05 0z" /></clipPath><clipPath id="11"><path id="" clip-rule="evenodd" transform="matrix(1 0 0 1 0 0)" d="M1.4305E-05 540L960 540L960 540L960 0L960 0L1.4305E-05 0z" /></clipPath><clipPath id="12"><path id="" clip-rule="evenodd" transform="matrix(1 0 0 1 0 0)" d="M1.4305E-05 540L960 540L960 540L960 0L960 0L1.4305E-05 0z" /></clipPath><clipPath id="13"><path id="" clip-rule="evenodd" transform="matrix(1 0 0 1 0 0)" d="M1.4305E-05 540L960 540L960 540L960 0L960 0L1.4305E-05 0z" /></clipPath><clipPath id="14"><path id="" clip-rule="evenodd" transform="matrix(1 0 0 1 0 0)" d="M1.4305E-05 540L960 540L960 540L960 0L960 0L1.4305E-05 0z" /></clipPath><clipPath id="15"><path id="" clip-rule="evenodd" transform="matrix(1 0 0 1 0 0)" d="M1.4305E-05 540L960 540L960 540L960 0L960 0L1.4305E-05 0z" /></clipPath><clipPath id="16"><path id="" clip-rule="evenodd" transform="matrix(1 0 0 1 0 0)" d="M1.4305E-05 540L960 540L960 540L960 0L960 0L1.4305E-05 0z" /></clipPath><clipPath id="17"><path id="" clip-rule="evenodd" transform="matrix(1 0 0 1 0 0)" d="M1.4305E-05 540L960 540L960 540L960 0L960 0L1.4305E-05 0z" /></clipPath><clipPath id="18"><path id="" clip-rule="evenodd" transform="matrix(1 0 0 1 0 0)" d="M1.4305E-05 540L960 540L960 540L960 0L960 0L1.4305E-05 0z" /></clipPath><clipPath id="19"><path id="" clip-rule="evenodd" transform="matrix(1 0 0 1 0 0)" d="M1.4305E-05 540L960 540L960 540L960 0L960 0L1.4305E-05 0z" /></clipPath><clipPath id="20"><path id="" clip-rule="evenodd" transform="matrix(1 0 0 1 0 0)" d="M-3.0518E-05 539.9998L959.9999 539.9998L959.9999 539.9998L959.9999 -0.0001831055L959.9999 -0.0001831055L-3.0518E-05 -0.0001831055z" /></clipPath></defs><g transform="matrix(1.333333 0 0 1.333333 0 0)"><g clip-path="url(#1)"><g clip-path="url(#2)"><path id="1" transform="matrix(1 0 0 -1 0 540)" d="M0 6.1035E-05L960 6.1035E-05L960 6.1035E-05L960 540.0001L960 540.0001L0 540.0001z" stroke="none" fill="#FFFFFF" fill-rule="evenodd" /></g><path id="2" transform="matrix(1 0 0 -1 0 540)" d="M60.06 402.9L60.06 474.9" stroke="#5B9BD5" stroke-width="1.56" fill="none" /><g clip-path="url(#3)"></g><g clip-path="url(#4)"></g><path id="6" transform="matrix(1 0 0 -1 0 540)" d="M111.16 353.09L111.53 352.04C 109.4 351.34 107.82 349.97 106.8 347.93C 105.77 345.9 105.26 343.34 105.26 340.27C 105.26 337.08 105.77 334.46 106.8 332.39C 107.82 330.32 109.38 328.94 111.48 328.24L111.48 328.24L111.16 327.19C 108.49 327.89 106.45 329.4 105.03 331.71C 103.61 334.03 102.9 336.84 102.9 340.13C 102.9 343.42 103.61 346.22 105.03 348.55C 106.46 350.87 108.5 352.39 111.16 353.09zM128.69 353.09C 131.35 352.39 133.39 350.87 134.81 348.55C 136.23 346.22 136.95 343.42 136.95 340.13C 136.95 336.84 136.24 334.03 134.82 331.71C 133.4 329.4 131.35 327.89 128.69 327.19L128.69 327.19L128.36 328.24C 130.46 328.94 132.03 330.32 133.05 332.39C 134.07 334.46 134.59 337.08 134.59 340.27C 134.59 343.34 134.08 345.9 133.06 347.93C 132.04 349.97 130.46 351.34 128.32 352.04z" stroke="none" fill="#000000" fill-rule="evenodd" /><g clip-path="url(#5)"></g><g clip-path="url(#6)"></g><g clip-path="url(#7)"></g><g clip-path="url(#8)"></g><g clip-path="url(#9)"></g><g clip-path="url(#10)"></g><path id="13" transform="matrix(1 0 0 -1 0 540)" d="M120.52 308.81L120.89 307.76C 118.76 307.06 117.18 305.69 116.16 303.65C 115.13 301.62 114.62 299.06 114.62 295.99C 114.62 292.8 115.13 290.18 116.16 288.11C 117.18 286.04 118.74 284.66 120.84 283.96L120.84 283.96L120.52 282.91C 117.85 283.61 115.81 285.12 114.39 287.43C 112.97 289.75 112.26 292.56 112.26 295.85C 112.26 299.14 112.97 301.94 114.39 304.27C 115.82 306.59 117.86 308.11 120.52 308.81zM138.05 308.81C 140.71 308.11 142.75 306.59 144.17 304.27C 145.59 301.94 146.31 299.14 146.31 295.85C 146.31 292.56 145.6 289.75 144.18 287.43C 142.76 285.12 140.71 283.61 138.05 282.91L138.05 282.91L137.72 283.96C 139.82 284.66 141.39 286.04 142.41 288.11C 143.43 290.18 143.95 292.8 143.95 295.99C 143.95 299.06 143.44 301.62 142.42 303.65C 141.4 305.69 139.82 307.06 137.68 307.76z" stroke="none" fill="#000000" fill-rule="evenodd" /><g clip-path="url(#11)"></g><g clip-path="url(#12)"></g><g clip-path="url(#13)"></g><g clip-path="url(#14)"></g><g clip-path="url(#15)"></g><g clip-path="url(#16)"></g><g clip-path="url(#17)"></g><g clip-path="url(#18)"></g><g clip-path="url(#19)"></g><g clip-path="url(#20)"><g transform="matrix(0.75 0 0 0.75 384 33.95999)"><g transform="matrix(1 0 0 1 0 0)"><image x="0" y="0" xlink:href="img_21.png" width="576" height="644" /></g></g></g></g></g></svg>