<svg xmlns="http://www.w3.org/2000/svg" xmlns:xlink="http://www.w3.org/1999/xlink" id="body_10" preserveAspectRatio="xMinYMin meet" viewBox="0 0 1280 720"><defs><clipPath id="1"><path id="" clip-rule="evenodd" transform="matrix(1 0 0 1 0 0)" d="M0 540L0 0L0 0L960 0L960 0L960 540L960 540L0 540z" /></clipPath><clipPath id="2"><path id="" clip-rule="evenodd" transform="matrix(1 0 0 1 0 0)" d="M0 539.9999L960 539.9999L960 539.9999L960 -0.0001220703L960 -0.0001220703L0 -0.0001220703z" /></clipPath><clipPath id="3"><path id="" clip-rule="evenodd" transform="matrix(1 0 0 1 0 0)" d="M1.4305E-05 540L960 540L960 540L960 0L960 0L1.4305E-05 0z" /></clipPath><clipPath id="4"><path id="" clip-rule="evenodd" transform="matrix(1 0 0 1 0 0)" d="M1.4305E-05 540L960 540L960 540L960 0L960 0L1.4305E-05 0z" /></clipPath><clipPath id="5"><path id="" clip-rule="evenodd" transform="matrix(1 0 0 1 0 0)" d="M1.4305E-05 540L960 540L960 540L960 0L960 0L1.4305E-05 0z" /></clipPath><clipPath id="6"><path id="" clip-rule="evenodd" transform="matrix(1 0 0 1 0 0)" d="M1.4305E-05 540L960 540L960 540L960 0L960 0L1.4305E-05 0z" /></clipPath><clipPath id="7"><path id="" clip-rule="evenodd" transform="matrix(1 0 0 1 0 0)" d="M1.4305E-05 540L960 540L960 540L960 0L960 0L1.4305E-05 0z" /></clipPath><clipPath id="8"><path id="" clip-rule="evenodd" transform="matrix(1 0 0 1 0 0)" d="M-1.5259E-05 539.9998L960 539.9998L960 539.9998L960 -0.0002441406L960 -0.0002441406L-1.5259E-05 -0.0002441406z" /></clipPath><clipPath id="9"><path id="" clip-rule="evenodd" transform="matrix(1 0 0 1 0 0)" d="M1.4305E-05 540L960 540L960 540L960 0L960 0L1.4305E-05 0z" /></clipPath><clipPath id="10"><path id="" clip-rule="evenodd" transform="matrix(1 0 0 1 0 0)" d="M1.4305E-05 540L960 540L960 540L960 0L960 0L1.4305E-05 0z" /></clipPath><clipPath id="11"><path id="" clip-rule="evenodd" transform="matrix(1 0 0 1 0 0)" d="M1.4305E-05 540L960 540L960 540L960 0L960 0L1.4305E-05 0z" /></clipPath><clipPath id="12"><path id="" clip-rule="evenodd" transform="matrix(1 0 0 1 0 0)" d="M1.4305E-05 540L960 540L960 540L960 0L960 0L1.4305E-05 0z" /></clipPath><clipPath id="13"><path id="" clip-rule="evenodd" transform="matrix(1 0 0 1 0 0)" d="M1.4305E-05 540L960 540L960 540L960 0L960 0L1.4305E-05 0z" /></clipPath><clipPath id="14"><path id="" clip-rule="evenodd" transform="matrix(1 0 0 1 0 0)" d="M1.4305E-05 540L960 540L960 540L960 0L960 0L1.4305E-05 0z" /></clipPath><clipPath id="15"><path id="" clip-rule="evenodd" transform="matrix(1 0 0 1 0 0)" d="M1.4305E-05 540L960 540L960 540L960 0L960 0L1.4305E-05 0z" /></clipPath><clipPath id="16"><path id="" clip-rule="evenodd" transform="matrix(1 0 0 1 0 0)" d="M1.4305E-05 540L960 540L960 540L960 0L960 0L1.4305E-05 0z" /></clipPath></defs><g transform="matrix(1.333333 0 0 1.333333 0 0)"><g clip-path="url(#1)"><g clip-path="url(#2)"><path id="1" transform="matrix(1 0 0 -1 0 540)" d="M0 6.1035E-05L960 6.1035E-05L960 6.1035E-05L960 540.0001L960 540.0001L0 540.0001z" stroke="none" fill="#FFFFFF" fill-rule="evenodd" /></g><path id="2" transform="matrix(1 0 0 -1 0 540)" d="M60.06 402.9L60.06 474.9" stroke="#5B9BD5" stroke-width="1.56" fill="none" /><g clip-path="url(#3)"></g><path id="4" transform="matrix(1 0 0 -1 0 540)" d="M136.01 459.08L136.65 457.24C 132.92 456.01 130.16 453.62 128.37 450.05C 126.58 446.49 125.68 442.02 125.68 436.63C 125.68 431.05 126.58 426.46 128.37 422.84C 130.16 419.22 132.9 416.8 136.58 415.57L136.58 415.57L136.01 413.73C 131.34 414.96 127.76 417.6 125.27 421.65C 122.79 425.71 121.54 430.62 121.54 436.39C 121.54 442.15 122.79 447.06 125.28 451.13C 127.78 455.2 131.35 457.85 136.01 459.08zM167.63 459.08C 172.29 457.85 175.86 455.2 178.36 451.13C 180.85 447.06 182.1 442.15 182.1 436.39C 182.1 430.62 180.85 425.71 178.37 421.65C 175.88 417.6 172.3 414.96 167.63 413.73L167.63 413.73L167.06 415.57C 170.74 416.8 173.48 419.22 175.27 422.84C 177.06 426.46 177.96 431.05 177.96 436.63C 177.96 442.02 177.07 446.49 175.28 450.05C 173.5 453.62 170.73 456.01 166.99 457.24z" stroke="none" fill="#0D0D0D" fill-rule="evenodd" /><g clip-path="url(#4)"></g><g clip-path="url(#5)"></g><path id="7" transform="matrix(1 0 0 -1 0 540)" d="M251.4 434.86L274.2 434.86L274.2 434.86L274.2 437.98L274.2 437.98L251.4 437.98z" stroke="none" fill="#0D0D0D" fill-rule="evenodd" /><g clip-path="url(#6)"></g><g clip-path="url(#7)"></g><g clip-path="url(#8)"><g transform="matrix(0.6010771 0 0 0.6010204 80.64 164.16)"><g transform="matrix(1 0 0 1 0 0)"><image x="0" y="0" xlink:href="img_14.png" width="1337" height="588" /></g></g></g><g clip-path="url(#9)"></g><g clip-path="url(#10)"></g><g clip-path="url(#11)"></g><path id="21" transform="matrix(1 0 0 -1 0 540)" d="M364.74 260.72L377.46 260.72L377.46 260.72L377.46 262.52L377.46 262.52L364.74 262.52z" stroke="none" fill="#000000" fill-rule="evenodd" /><g clip-path="url(#12)"></g><g clip-path="url(#13)"></g><g clip-path="url(#14)"></g><g clip-path="url(#15)"></g><g clip-path="url(#16)"></g></g></g></svg>