<svg xmlns="http://www.w3.org/2000/svg" xmlns:xlink="http://www.w3.org/1999/xlink" id="body_1" preserveAspectRatio="xMinYMin meet" viewBox="0 0 1280 720"><defs><clipPath id="1"><path id="" clip-rule="evenodd" transform="matrix(1 0 0 1 0 0)" d="M0 540L0 0L0 0L960 0L960 0L960 540L960 540L0 540z" /></clipPath><clipPath id="2"><path id="" clip-rule="evenodd" transform="matrix(1 0 0 1 0 0)" d="M0 539.9999L960 539.9999L960 539.9999L960 -0.0001220703L960 -0.0001220703L0 -0.0001220703z" /></clipPath><clipPath id="3"><path id="" clip-rule="evenodd" transform="matrix(1 0 0 1 0 0)" d="M0 539.9999L960 539.9999L960 539.9999L960 -0.0001220703L960 -0.0001220703L0 -0.0001220703z" /></clipPath><clipPath id="4"><path id="" clip-rule="evenodd" transform="matrix(1 0 0 1 0 0)" d="M0 539.9999L960 539.9999L960 539.9999L960 -0.0001220703L960 -0.0001220703L0 -0.0001220703z" /></clipPath><clipPath id="5"><path id="" clip-rule="evenodd" transform="matrix(1 0 0 1 0 0)" d="M1.4305E-05 540L960 540L960 540L960 0L960 0L1.4305E-05 0z" /></clipPath><clipPath id="6"><path id="" clip-rule="evenodd" transform="matrix(1 0 0 1 0 0)" d="M1.4305E-05 540L960 540L960 540L960 0L960 0L1.4305E-05 0z" /></clipPath></defs><g transform="matrix(1.333333 0 0 1.333333 0 0)"><g clip-path="url(#1)"><g clip-path="url(#2)"><path id="1" transform="matrix(1 0 0 -1 0 540)" d="M0 6.1035E-05L960 6.1035E-05L960 6.1035E-05L960 540.0001L960 540.0001L0 540.0001z" stroke="none" fill="#FFFFFF" fill-rule="evenodd" /></g><g clip-path="url(#3)"><path id="2" transform="matrix(1 0 0 -1 0 540)" d="M0 180L960 180L960 180L960 540L960 540L0 540z" stroke="none" fill="#2E75B6" fill-rule="evenodd" /></g><g clip-path="url(#4)"><path id="3" transform="matrix(1 0 0 -1 0 540)" d="M9.9507 540L26.329 540C 36.747 530.45 43.807 517.56 45.881 503.12C 45.894 503.11 45.908 503.11 45.921 503.11L45.921 503.11L45.963 502.59C 46.362 500.22 46.554 497.81 46.551 495.36C 46.654 494.92 46.659 494.48 46.659 494.04C 46.659 493.74 46.657 493.44 46.612 493.14L46.612 493.14L46.573 493.15L46.573 493.15L46.571 493.11L46.571 493.11L45.223 493.24C 42.674 493.28 40.164 493.51 37.709 493.94C 37.27 493.91 36.85 493.98 36.432 494.06L36.432 494.06L36.423 494.15C 22.22 496.49 9.5657 503.19 0 512.79L0 512.79L0 528.94C 7.6838 516.62 20.392 507.62 35.37 504.42C 32.389 519.46 22.983 532.29 9.9507 540zM68.541 540L84.975 540C 71.946 532.28 62.543 519.46 59.563 504.42C 78.78 508.52 94.259 522.18 100.39 540L100.39 540L110.95 540C 104.27 516.39 83.855 498.32 58.51 494.15L58.51 494.15L58.501 494.06C 58.083 493.98 57.663 493.91 57.224 493.94C 54.77 493.51 52.259 493.28 49.71 493.24L49.71 493.24L48.362 493.11L48.362 493.11L48.36 493.15L48.36 493.15L48.321 493.14C 48.276 493.44 48.274 493.74 48.274 494.04C 48.274 494.48 48.279 494.92 48.382 495.36C 48.379 497.81 48.572 500.22 48.97 502.59L48.97 502.59L49.012 503.11C 49.026 503.11 49.039 503.11 49.052 503.12C 51.123 517.54 58.167 530.42 68.541 540zM117.23 540L127.78 540C 133.91 522.18 149.39 508.52 168.61 504.42C 165.63 519.46 156.23 532.28 143.2 540L143.2 540L159.63 540C 170.01 530.42 177.05 517.54 179.12 503.12C 179.13 503.11 179.15 503.11 179.16 503.11L179.16 503.11L179.2 502.59C 179.6 500.22 179.79 497.81 179.79 495.36C 179.89 494.92 179.9 494.48 179.9 494.04C 179.9 493.74 179.9 493.44 179.85 493.14L179.85 493.14L179.81 493.15L179.81 493.15L179.81 493.11L179.81 493.11L178.46 493.24C 175.91 493.28 173.4 493.51 170.95 493.94C 170.51 493.91 170.09 493.98 169.67 494.06L169.67 494.06L169.66 494.15C 144.32 498.32 123.9 516.39 117.23 540zM201.78 540L218.21 540C 205.19 532.28 195.78 519.46 192.8 504.42C 212.02 508.52 227.5 522.18 233.63 540L233.63 540L244.19 540C 237.51 516.39 217.09 498.32 191.75 494.15L191.75 494.15L191.74 494.06C 191.32 493.98 190.9 493.91 190.46 493.94C 188.01 493.51 185.5 493.28 182.95 493.24L182.95 493.24L181.6 493.11L181.6 493.11L181.6 493.15L181.6 493.15L181.56 493.14C 181.52 493.44 181.51 493.74 181.51 494.04C 181.51 494.48 181.52 494.92 181.62 495.36C 181.62 497.81 181.81 500.22 182.21 502.59L182.21 502.59L182.25 503.11C 182.27 503.11 182.28 503.11 182.29 503.12C 184.36 517.54 191.41 530.42 201.78 540zM250.47 540L261.02 540C 267.15 522.18 282.63 508.52 301.85 504.42C 298.87 519.46 289.47 532.28 276.44 540L276.44 540L292.87 540C 303.25 530.42 310.29 517.54 312.36 503.12C 312.37 503.11 312.39 503.11 312.4 503.11L312.4 503.11L312.44 502.59C 312.84 500.22 313.03 497.81 313.03 495.36C 313.13 494.92 313.14 494.48 313.14 494.04C 313.14 493.74 313.14 493.44 313.09 493.14L313.09 493.14L313.05 493.15L313.05 493.15L313.05 493.11L313.05 493.11L311.7 493.24C 309.15 493.28 306.64 493.51 304.19 493.94C 303.75 493.91 303.33 493.98 302.91 494.06L302.91 494.06L302.9 494.15C 277.56 498.32 257.14 516.39 250.47 540zM335.02 540L351.46 540C 338.43 532.28 329.02 519.46 326.04 504.42C 345.26 508.52 360.74 522.18 366.87 540L366.87 540L377.43 540C 370.75 516.39 350.34 498.32 324.99 494.15L324.99 494.15L324.98 494.06C 324.56 493.98 324.14 493.91 323.7 493.94C 321.25 493.51 318.74 493.28 316.19 493.24L316.19 493.24L314.84 493.11L314.84 493.11L314.84 493.15L314.84 493.15L314.8 493.14C 314.76 493.44 314.75 493.74 314.75 494.04C 314.75 494.48 314.76 494.92 314.86 495.36C 314.86 497.81 315.05 500.22 315.45 502.59L315.45 502.59L315.49 503.11C 315.51 503.11 315.52 503.11 315.53 503.12C 317.6 517.54 324.65 530.42 335.02 540zM383.71 540L394.26 540C 400.39 522.18 415.87 508.52 435.09 504.42C 432.11 519.46 422.71 532.28 409.68 540L409.68 540L426.11 540C 436.49 530.42 443.53 517.54 445.6 503.12C 445.61 503.11 445.63 503.11 445.64 503.11L445.64 503.11L445.68 502.59C 446.08 500.22 446.28 497.81 446.27 495.36C 446.38 494.92 446.38 494.48 446.38 494.04C 446.38 493.74 446.38 493.44 446.33 493.14L446.33 493.14L446.29 493.15L446.29 493.15L446.29 493.11L446.29 493.11L444.94 493.24C 442.39 493.28 439.88 493.51 437.43 493.94C 436.99 493.91 436.57 493.98 436.15 494.06L436.15 494.06L436.14 494.15C 410.8 498.32 390.38 516.39 383.71 540zM468.26 540L484.7 540C 471.67 532.28 462.26 519.46 459.28 504.42C 478.5 508.52 493.98 522.18 500.11 540L500.11 540L510.67 540C 503.99 516.39 483.58 498.32 458.23 494.15L458.23 494.15L458.22 494.06C 457.8 493.98 457.38 493.91 456.94 493.94C 454.49 493.51 451.98 493.28 449.43 493.24L449.43 493.24L448.08 493.11L448.08 493.11L448.08 493.15L448.08 493.15L448.04 493.14C 448 493.44 447.99 493.74 447.99 494.04C 447.99 494.48 448 494.92 448.1 495.36C 448.1 497.81 448.29 500.22 448.69 502.59L448.69 502.59L448.73 503.11C 448.75 503.11 448.76 503.11 448.77 503.12C 450.84 517.54 457.89 530.42 468.26 540zM516.95 540L527.5 540C 533.64 522.18 549.11 508.52 568.33 504.42C 565.35 519.46 555.95 532.28 542.92 540L542.92 540L559.35 540C 569.73 530.42 576.77 517.54 578.84 503.12C 578.86 503.11 578.87 503.11 578.88 503.11L578.88 503.11L578.92 502.59C 579.32 500.22 579.52 497.81 579.51 495.36C 579.62 494.92 579.62 494.48 579.62 494.04C 579.62 493.74 579.62 493.44 579.57 493.14L579.57 493.14L579.53 493.15L579.53 493.15L579.53 493.11L579.53 493.11L578.18 493.24C 575.63 493.28 573.12 493.51 570.67 493.94C 570.23 493.91 569.81 493.98 569.39 494.06L569.39 494.06L569.38 494.15C 544.04 498.32 523.62 516.39 516.95 540zM601.5 540L617.94 540C 604.91 532.28 595.5 519.46 592.52 504.42C 611.74 508.52 627.22 522.18 633.35 540L633.35 540L643.91 540C 637.23 516.39 616.82 498.32 591.47 494.15L591.47 494.15L591.46 494.06C 591.04 493.98 590.62 493.91 590.19 493.94C 587.73 493.51 585.22 493.28 582.67 493.24L582.67 493.24L581.32 493.11L581.32 493.11L581.32 493.15L581.32 493.15L581.28 493.14C 581.24 493.44 581.24 493.74 581.24 494.04C 581.24 494.48 581.24 494.92 581.34 495.36C 581.34 497.81 581.53 500.22 581.93 502.59L581.93 502.59L581.97 503.11C 581.99 503.11 582 503.11 582.01 503.12C 584.08 517.54 591.13 530.42 601.5 540zM650.19 540L660.74 540C 666.88 522.18 682.35 508.52 701.57 504.42C 698.59 519.46 689.19 532.28 676.16 540L676.16 540L692.59 540C 702.97 530.42 710.01 517.54 712.08 503.12C 712.1 503.11 712.11 503.11 712.12 503.11L712.12 503.11L712.16 502.59C 712.56 500.22 712.76 497.81 712.75 495.36C 712.86 494.92 712.86 494.48 712.86 494.04C 712.86 493.74 712.86 493.44 712.81 493.14L712.81 493.14L712.77 493.15L712.77 493.15L712.77 493.11L712.77 493.11L711.42 493.24C 708.88 493.28 706.36 493.51 703.91 493.94C 703.47 493.91 703.05 493.98 702.63 494.06L702.63 494.06L702.62 494.15C 677.28 498.32 656.86 516.39 650.19 540zM734.74 540L751.18 540C 738.15 532.28 728.74 519.46 725.76 504.42C 744.98 508.52 760.46 522.18 766.59 540L766.59 540L777.15 540C 770.47 516.39 750.06 498.32 724.71 494.15L724.71 494.15L724.7 494.06C 724.28 493.98 723.86 493.91 723.43 493.94C 720.97 493.51 718.46 493.28 715.91 493.24L715.91 493.24L714.56 493.11L714.56 493.11L714.56 493.15L714.56 493.15L714.52 493.14C 714.48 493.44 714.48 493.74 714.48 494.04C 714.48 494.48 714.48 494.92 714.58 495.36C 714.58 497.81 714.77 500.22 715.17 502.59L715.17 502.59L715.21 503.11C 715.23 503.11 715.24 503.11 715.25 503.12C 717.32 517.54 724.37 530.42 734.74 540zM783.43 540L793.98 540C 800.12 522.18 815.59 508.52 834.81 504.42C 831.83 519.46 822.43 532.28 809.4 540L809.4 540L825.83 540C 836.21 530.42 843.25 517.54 845.32 503.12C 845.34 503.11 845.35 503.11 845.36 503.11L845.36 503.11L845.4 502.59C 845.8 500.22 846 497.81 845.99 495.36C 846.1 494.92 846.1 494.48 846.1 494.04C 846.1 493.74 846.1 493.44 846.05 493.14L846.05 493.14L846.01 493.15L846.01 493.15L846.01 493.11L846.01 493.11L844.66 493.24C 842.12 493.28 839.61 493.51 837.15 493.94C 836.71 493.91 836.29 493.98 835.87 494.06L835.87 494.06L835.86 494.15C 810.52 498.32 790.1 516.39 783.43 540zM867.98 540L884.42 540C 871.39 532.28 861.98 519.46 859 504.42C 878.22 508.52 893.7 522.18 899.83 540L899.83 540L910.39 540C 903.71 516.39 883.3 498.32 857.95 494.15L857.95 494.15L857.94 494.06C 857.52 493.98 857.1 493.91 856.67 493.94C 854.21 493.51 851.7 493.28 849.15 493.24L849.15 493.24L847.8 493.11L847.8 493.11L847.8 493.15L847.8 493.15L847.76 493.14C 847.72 493.44 847.72 493.74 847.72 494.04C 847.72 494.48 847.72 494.92 847.82 495.36C 847.82 497.81 848.01 500.22 848.41 502.59L848.41 502.59L848.45 503.11C 848.47 503.11 848.48 503.11 848.49 503.12C 850.56 517.54 857.61 530.42 867.98 540zM916.59 540L927.18 540C 932.46 524.75 944.56 512.55 960 506.79L960 506.79L960 496.39C 938.93 502.87 922.5 519.31 916.59 540zM942.44 540L959.06 540C 959.42 539.78 959.71 539.5 960 539.21L960 539.21L960 523.46C 955.56 530.24 949.59 535.95 942.44 540zM46.571 492.3L46.573 492.26L46.573 492.26L46.612 492.27L46.612 492.27L46.659 491.36C 46.659 490.92 46.654 490.47 46.551 490.03C 46.554 487.56 46.361 485.13 45.963 482.75L45.963 482.75L45.921 482.22C 45.907 482.22 45.894 482.22 45.881 482.22C 42.329 457.28 24.147 436.92 0 429.74L0 429.74L0 440.16C 18.055 446.69 31.668 462.07 35.37 480.9C 20.391 477.68 7.6831 468.6 0 456.18L0 456.18L0 472.46C 9.5657 482.14 22.22 488.9 36.423 491.25L36.423 491.25L36.432 491.34C 36.85 491.42 37.27 491.49 37.709 491.46C 40.164 491.9 42.676 492.13 45.226 492.17zM579.53 492.3L579.53 492.26L579.53 492.26L579.57 492.27L579.57 492.27L579.62 491.36C 579.62 490.92 579.62 490.47 579.51 490.03C 579.52 487.56 579.32 485.13 578.92 482.75L578.92 482.75L578.88 482.22C 578.87 482.22 578.86 482.22 578.84 482.22C 574.88 454.43 552.75 432.32 524.5 427.65L524.5 427.65L524.49 427.56C 524.07 427.48 523.65 427.4 523.21 427.43C 520.76 427 518.25 426.76 515.7 426.72L515.7 426.72L514.35 426.59L514.35 426.59L514.35 426.63L514.35 426.63L514.31 426.63C 514.26 426.93 514.26 427.23 514.26 427.53C 514.26 427.98 514.27 428.42 514.37 428.87C 514.37 431.33 514.56 433.77 514.96 436.15L514.96 436.15L515 436.67C 515.01 436.67 515.03 436.67 515.04 436.68C 519 464.46 541.13 486.57 569.38 491.25L569.38 491.25L569.39 491.34C 569.81 491.42 570.23 491.49 570.67 491.46C 573.13 491.9 575.64 492.13 578.19 492.17zM48.362 492.3L49.708 492.17C 52.258 492.13 54.769 491.9 57.225 491.46C 57.664 491.49 58.083 491.42 58.501 491.34L58.501 491.34L58.51 491.25C 86.766 486.57 108.9 464.46 112.85 436.68C 112.87 436.67 112.88 436.67 112.89 436.67L112.89 436.67L112.94 436.15C 113.33 433.77 113.53 431.33 113.52 428.87C 113.63 428.42 113.63 427.98 113.63 427.53C 113.63 427.23 113.63 426.93 113.59 426.63L113.59 426.63L113.55 426.63L113.55 426.63L113.54 426.59L113.54 426.59L112.2 426.72C 109.65 426.76 107.14 427 104.68 427.43C 104.24 427.4 103.82 427.48 103.41 427.56L103.41 427.56L103.4 427.65C 75.14 432.32 53.011 454.43 49.052 482.22C 49.039 482.22 49.026 482.22 49.013 482.22L49.013 482.22L48.97 482.75C 48.572 485.13 48.379 487.56 48.382 490.03C 48.279 490.47 48.274 490.92 48.274 491.36L48.274 491.36L48.321 492.27L48.321 492.27L48.36 492.26zM179.81 492.3L179.81 492.26L179.81 492.26L179.85 492.27L179.85 492.27L179.9 491.36C 179.9 490.92 179.89 490.47 179.79 490.03C 179.79 487.56 179.6 485.13 179.2 482.75L179.2 482.75L179.16 482.22C 179.15 482.22 179.13 482.22 179.12 482.22C 175.16 454.43 153.03 432.32 124.78 427.65L124.78 427.65L124.77 427.56C 124.35 427.48 123.93 427.4 123.49 427.43C 121.04 427 118.53 426.76 115.98 426.72L115.98 426.72L114.63 426.59L114.63 426.59L114.63 426.63L114.63 426.63L114.59 426.63C 114.54 426.93 114.54 427.23 114.54 427.53C 114.54 427.98 114.55 428.42 114.65 428.87C 114.65 431.33 114.84 433.77 115.24 436.15L115.24 436.15L115.28 436.67C 115.29 436.67 115.31 436.67 115.32 436.68C 119.28 464.46 141.41 486.57 169.66 491.25L169.66 491.25L169.67 491.34C 170.09 491.42 170.51 491.49 170.95 491.46C 173.4 491.9 175.92 492.13 178.47 492.17zM181.6 492.3L182.95 492.17C 185.5 492.13 188.01 491.9 190.46 491.46C 190.9 491.49 191.32 491.42 191.74 491.34L191.74 491.34L191.75 491.25C 220.01 486.57 242.14 464.46 246.09 436.68C 246.11 436.67 246.12 436.67 246.13 436.67L246.13 436.67L246.18 436.15C 246.57 433.77 246.77 431.33 246.76 428.87C 246.87 428.42 246.87 427.98 246.87 427.53C 246.87 427.23 246.87 426.93 246.83 426.63L246.83 426.63L246.79 426.63L246.79 426.63L246.78 426.59L246.78 426.59L245.44 426.72C 242.89 426.76 240.38 427 237.92 427.43C 237.48 427.4 237.06 427.48 236.65 427.56L236.65 427.56L236.64 427.65C 208.38 432.32 186.25 454.43 182.29 482.22C 182.28 482.22 182.27 482.22 182.25 482.22L182.25 482.22L182.21 482.75C 181.81 485.13 181.62 487.56 181.62 490.03C 181.52 490.47 181.51 490.92 181.51 491.36L181.51 491.36L181.56 492.27L181.56 492.27L181.6 492.26zM313.05 492.3L313.05 492.26L313.05 492.26L313.09 492.27L313.09 492.27L313.14 491.36C 313.14 490.92 313.13 490.47 313.03 490.03C 313.03 487.56 312.84 485.13 312.44 482.75L312.44 482.75L312.4 482.22C 312.39 482.22 312.37 482.22 312.36 482.22C 308.4 454.43 286.27 432.32 258.02 427.65L258.02 427.65L258.01 427.56C 257.59 427.48 257.17 427.4 256.73 427.43C 254.28 427 251.77 426.76 249.22 426.72L249.22 426.72L247.87 426.59L247.87 426.59L247.87 426.63L247.87 426.63L247.83 426.63C 247.78 426.93 247.78 427.23 247.78 427.53C 247.78 427.98 247.79 428.42 247.89 428.87C 247.89 431.33 248.08 433.77 248.48 436.15L248.48 436.15L248.52 436.67C 248.53 436.67 248.55 436.67 248.56 436.68C 252.52 464.46 274.65 486.57 302.9 491.25L302.9 491.25L302.91 491.34C 303.33 491.42 303.75 491.49 304.19 491.46C 306.64 491.9 309.16 492.13 311.71 492.17zM314.84 492.3L316.19 492.17C 318.74 492.13 321.25 491.9 323.71 491.46C 324.14 491.49 324.56 491.42 324.98 491.34L324.98 491.34L324.99 491.25C 353.25 486.57 375.38 464.46 379.33 436.68C 379.35 436.67 379.36 436.67 379.37 436.67L379.37 436.67L379.42 436.15C 379.82 433.77 380.01 431.33 380 428.87C 380.11 428.42 380.11 427.98 380.11 427.53C 380.11 427.23 380.11 426.93 380.07 426.63L380.07 426.63L380.03 426.63L380.03 426.63L380.02 426.59L380.02 426.59L378.68 426.72C 376.13 426.76 373.62 427 371.16 427.43C 370.72 427.4 370.3 427.48 369.89 427.56L369.89 427.56L369.88 427.65C 341.62 432.32 319.49 454.43 315.53 482.22C 315.52 482.22 315.51 482.22 315.49 482.22L315.49 482.22L315.45 482.75C 315.05 485.13 314.86 487.56 314.86 490.03C 314.76 490.47 314.75 490.92 314.75 491.36L314.75 491.36L314.8 492.27L314.8 492.27L314.84 492.26zM446.29 492.3L446.29 492.26L446.29 492.26L446.33 492.27L446.33 492.27L446.38 491.36C 446.38 490.92 446.38 490.47 446.27 490.03C 446.28 487.56 446.08 485.13 445.68 482.75L445.68 482.75L445.64 482.22C 445.63 482.22 445.61 482.22 445.6 482.22C 441.64 454.43 419.51 432.32 391.26 427.65L391.26 427.65L391.25 427.56C 390.83 427.48 390.41 427.4 389.97 427.43C 387.52 427 385.01 426.76 382.46 426.72L382.46 426.72L381.11 426.59L381.11 426.59L381.11 426.63L381.11 426.63L381.07 426.63C 381.02 426.93 381.02 427.23 381.02 427.53C 381.02 427.98 381.03 428.42 381.13 428.87C 381.13 431.33 381.32 433.77 381.72 436.15L381.72 436.15L381.76 436.67C 381.77 436.67 381.79 436.67 381.8 436.68C 385.76 464.46 407.89 486.57 436.14 491.25L436.14 491.25L436.15 491.34C 436.57 491.42 436.99 491.49 437.43 491.46C 439.88 491.9 442.4 492.13 444.95 492.17zM448.08 492.3L449.43 492.17C 451.98 492.13 454.49 491.9 456.95 491.46C 457.38 491.49 457.8 491.42 458.22 491.34L458.22 491.34L458.23 491.25C 486.49 486.57 508.62 464.46 512.57 436.68C 512.59 436.67 512.6 436.67 512.61 436.67L512.61 436.67L512.66 436.15C 513.06 433.77 513.25 431.33 513.24 428.87C 513.35 428.42 513.35 427.98 513.35 427.53C 513.35 427.23 513.35 426.93 513.31 426.63L513.31 426.63L513.27 426.63L513.27 426.63L513.26 426.59L513.26 426.59L511.92 426.72C 509.37 426.76 506.86 427 504.4 427.43C 503.96 427.4 503.54 427.48 503.13 427.56L503.13 427.56L503.12 427.65C 474.86 432.32 452.73 454.43 448.77 482.22C 448.76 482.22 448.75 482.22 448.73 482.22L448.73 482.22L448.69 482.75C 448.29 485.13 448.1 487.56 448.1 490.03C 448 490.47 448 490.92 448 491.36L448 491.36L448.04 492.27L448.04 492.27L448.08 492.26zM581.32 492.3L582.67 492.17C 585.22 492.13 587.73 491.9 590.19 491.46C 590.62 491.49 591.04 491.42 591.46 491.34L591.46 491.34L591.47 491.25C 619.73 486.57 641.86 464.46 645.82 436.68C 645.83 436.67 645.84 436.67 645.85 436.67L645.85 436.67L645.9 436.15C 646.3 433.77 646.49 431.33 646.49 428.87C 646.59 428.42 646.59 427.98 646.59 427.53C 646.59 427.23 646.59 426.93 646.55 426.63L646.55 426.63L646.51 426.63L646.51 426.63L646.51 426.59L646.51 426.59L645.16 426.72C 642.61 426.76 640.1 427 637.64 427.43C 637.2 427.4 636.78 427.48 636.37 427.56L636.37 427.56L636.36 427.65C 608.1 432.32 585.97 454.43 582.01 482.22C 582 482.22 581.99 482.22 581.97 482.22L581.97 482.22L581.93 482.75C 581.53 485.13 581.34 487.56 581.34 490.03C 581.24 490.47 581.24 490.92 581.24 491.36L581.24 491.36L581.28 492.27L581.28 492.27L581.32 492.26zM712.77 492.3L712.77 492.26L712.77 492.26L712.81 492.27L712.81 492.27L712.86 491.36C 712.86 490.92 712.86 490.47 712.75 490.03C 712.76 487.56 712.56 485.13 712.16 482.75L712.16 482.75L712.12 482.22C 712.11 482.22 712.1 482.22 712.08 482.22C 708.12 454.43 685.99 432.32 657.74 427.65L657.74 427.65L657.73 427.56C 657.31 427.48 656.89 427.4 656.45 427.43C 654 427 651.49 426.76 648.94 426.72L648.94 426.72L647.59 426.59L647.59 426.59L647.59 426.63L647.59 426.63L647.55 426.63C 647.5 426.93 647.5 427.23 647.5 427.53C 647.5 427.98 647.51 428.42 647.61 428.87C 647.61 431.33 647.8 433.77 648.2 436.15L648.2 436.15L648.24 436.67C 648.25 436.67 648.27 436.67 648.28 436.68C 652.24 464.46 674.37 486.57 702.62 491.25L702.62 491.25L702.63 491.34C 703.05 491.42 703.47 491.49 703.91 491.46C 706.37 491.9 708.88 492.13 711.43 492.17zM714.56 492.3L715.91 492.17C 718.46 492.13 720.97 491.9 723.43 491.46C 723.86 491.49 724.28 491.42 724.7 491.34L724.7 491.34L724.71 491.25C 752.97 486.57 775.1 464.46 779.06 436.68C 779.07 436.67 779.08 436.67 779.1 436.67L779.1 436.67L779.14 436.15C 779.54 433.77 779.73 431.33 779.73 428.87C 779.83 428.42 779.83 427.98 779.83 427.53C 779.83 427.23 779.83 426.93 779.79 426.63L779.79 426.63L779.75 426.63L779.75 426.63L779.75 426.59L779.75 426.59L778.4 426.72C 775.85 426.76 773.34 427 770.88 427.43C 770.44 427.4 770.02 427.48 769.61 427.56L769.61 427.56L769.6 427.65C 741.34 432.32 719.21 454.43 715.25 482.22C 715.24 482.22 715.23 482.22 715.21 482.22L715.21 482.22L715.17 482.75C 714.77 485.13 714.58 487.56 714.58 490.03C 714.48 490.47 714.48 490.92 714.48 491.36L714.48 491.36L714.52 492.27L714.52 492.27L714.56 492.26zM846.01 492.3L846.01 492.26L846.01 492.26L846.05 492.27L846.05 492.27L846.1 491.36C 846.1 490.92 846.1 490.47 845.99 490.03C 846 487.56 845.8 485.13 845.4 482.75L845.4 482.75L845.36 482.22C 845.35 482.22 845.34 482.22 845.32 482.22C 841.36 454.43 819.23 432.32 790.98 427.65L790.98 427.65L790.97 427.56C 790.55 427.48 790.13 427.4 789.69 427.43C 787.24 427 784.73 426.76 782.18 426.72L782.18 426.72L780.83 426.59L780.83 426.59L780.83 426.63L780.83 426.63L780.79 426.63C 780.74 426.93 780.74 427.23 780.74 427.53C 780.74 427.98 780.75 428.42 780.85 428.87C 780.85 431.33 781.04 433.77 781.44 436.15L781.44 436.15L781.48 436.67C 781.49 436.67 781.51 436.67 781.52 436.68C 785.48 464.46 807.61 486.57 835.86 491.25L835.86 491.25L835.87 491.34C 836.29 491.42 836.71 491.49 837.15 491.46C 839.61 491.9 842.12 492.13 844.67 492.17zM847.8 492.3L849.15 492.17C 851.7 492.13 854.21 491.9 856.67 491.46C 857.11 491.49 857.52 491.42 857.94 491.34L857.94 491.34L857.95 491.25C 886.21 486.57 908.34 464.46 912.3 436.68C 912.31 436.67 912.32 436.67 912.34 436.67L912.34 436.67L912.38 436.15C 912.78 433.77 912.97 431.33 912.97 428.87C 913.07 428.42 913.07 427.98 913.07 427.53C 913.07 427.23 913.07 426.93 913.03 426.63L913.03 426.63L912.99 426.63L912.99 426.63L912.99 426.59L912.99 426.59L911.64 426.72C 909.09 426.76 906.58 427 904.12 427.43C 903.68 427.4 903.27 427.48 902.85 427.56L902.85 427.56L902.84 427.65C 874.58 432.32 852.45 454.43 848.49 482.22C 848.48 482.22 848.47 482.22 848.45 482.22L848.45 482.22L848.41 482.75C 848.01 485.13 847.82 487.56 847.82 490.03C 847.72 490.47 847.72 490.92 847.72 491.36L847.72 491.36L847.76 492.27L847.76 492.27L847.8 492.26zM960 488.99L960 478.52C 942.27 471.85 928.93 456.6 925.27 438C 939.84 441.13 952.26 449.8 960 461.71L960 461.71L960 445.83C 950.53 436.46 938.12 429.95 924.22 427.65L924.22 427.65L924.21 427.56C 923.79 427.48 923.37 427.4 922.93 427.43C 920.48 427 917.97 426.76 915.42 426.72L915.42 426.72L914.07 426.59L914.07 426.59L914.07 426.63L914.07 426.63L914.03 426.63C 913.99 426.93 913.98 427.23 913.98 427.53C 913.98 427.98 913.99 428.42 914.09 428.87C 914.09 431.33 914.28 433.77 914.68 436.15L914.68 436.15L914.72 436.67C 914.73 436.67 914.75 436.67 914.76 436.68C 918.28 461.39 936.18 481.61 960 488.99zM59.563 480.9C 63.758 459.57 80.675 442.65 102.34 438C 98.149 459.33 81.232 476.24 59.563 480.9zM168.61 480.9C 146.94 476.24 130.03 459.33 125.83 438C 147.5 442.65 164.42 459.57 168.61 480.9zM192.8 480.9C 197 459.57 213.92 442.65 235.58 438C 231.39 459.33 214.47 476.24 192.8 480.9zM301.85 480.9C 280.18 476.24 263.27 459.33 259.07 438C 280.74 442.65 297.66 459.57 301.85 480.9zM326.04 480.9C 330.24 459.57 347.16 442.65 368.82 438C 364.63 459.33 347.71 476.24 326.04 480.9zM435.09 480.9C 413.42 476.24 396.51 459.33 392.31 438C 413.98 442.65 430.9 459.57 435.09 480.9zM459.28 480.9C 463.48 459.57 480.4 442.65 502.06 438C 497.87 459.33 480.95 476.24 459.28 480.9zM568.33 480.9C 546.66 476.24 529.75 459.33 525.55 438C 547.22 442.65 564.14 459.57 568.33 480.9zM592.52 480.9C 596.72 459.57 613.64 442.65 635.3 438C 631.11 459.33 614.19 476.24 592.52 480.9zM701.57 480.9C 679.9 476.24 662.99 459.33 658.79 438C 680.46 442.65 697.38 459.57 701.57 480.9zM725.76 480.9C 729.96 459.57 746.88 442.65 768.54 438C 764.35 459.33 747.43 476.24 725.76 480.9zM834.81 480.9C 813.14 476.24 796.23 459.33 792.03 438C 813.7 442.65 830.62 459.57 834.81 480.9zM859 480.9C 863.2 459.57 880.12 442.65 901.78 438C 897.59 459.33 880.67 476.24 859 480.9zM113.54 424.69L113.55 424.65L113.55 424.65L113.59 424.66L113.59 424.66L113.63 423.76C 113.63 423.32 113.63 422.88 113.52 422.44C 113.53 419.99 113.33 417.58 112.94 415.21L112.94 415.21L112.89 414.69C 112.88 414.69 112.87 414.69 112.85 414.69C 108.9 387.12 86.766 365.19 58.51 360.55L58.51 360.55L58.501 360.46C 58.083 360.38 57.663 360.3 57.224 360.34C 54.77 359.9 52.259 359.67 49.71 359.63L49.71 359.63L48.362 359.5L48.362 359.5L48.36 359.54L48.36 359.54L48.321 359.54C 48.276 359.83 48.274 360.13 48.274 360.43C 48.274 360.87 48.279 361.32 48.382 361.76C 48.379 364.2 48.572 366.62 48.97 368.98L48.97 368.98L49.012 369.5C 49.026 369.5 49.039 369.5 49.052 369.51C 53.011 397.07 75.14 419.01 103.4 423.65L103.4 423.65L103.41 423.74C 103.82 423.82 104.24 423.89 104.68 423.86C 107.14 424.29 109.65 424.53 112.2 424.57zM114.63 424.69L115.98 424.57C 118.53 424.53 121.04 424.29 123.49 423.86C 123.93 423.89 124.35 423.82 124.77 423.74L124.77 423.74L124.78 423.65C 153.03 419.01 175.16 397.07 179.12 369.51C 179.13 369.5 179.15 369.5 179.16 369.5L179.16 369.5L179.2 368.98C 179.6 366.62 179.79 364.2 179.79 361.76C 179.89 361.32 179.9 360.87 179.9 360.43C 179.9 360.13 179.9 359.83 179.85 359.54L179.85 359.54L179.81 359.54L179.81 359.54L179.81 359.5L179.81 359.5L178.46 359.63C 175.91 359.67 173.4 359.9 170.95 360.34C 170.51 360.3 170.09 360.38 169.67 360.46L169.67 360.46L169.66 360.55C 141.41 365.19 119.28 387.12 115.32 414.69C 115.31 414.69 115.29 414.69 115.28 414.69L115.28 414.69L115.24 415.21C 114.84 417.58 114.65 419.99 114.65 422.44C 114.55 422.88 114.54 423.32 114.54 423.76L114.54 423.76L114.59 424.66L114.59 424.66L114.63 424.65zM246.78 424.69L246.79 424.65L246.79 424.65L246.83 424.66L246.83 424.66L246.87 423.76C 246.87 423.32 246.87 422.88 246.76 422.44C 246.77 419.99 246.57 417.58 246.18 415.21L246.18 415.21L246.13 414.69C 246.12 414.69 246.11 414.69 246.09 414.69C 242.14 387.12 220.01 365.19 191.75 360.55L191.75 360.55L191.74 360.46C 191.32 360.38 190.9 360.3 190.46 360.34C 188.01 359.9 185.5 359.67 182.95 359.63L182.95 359.63L181.6 359.5L181.6 359.5L181.6 359.54L181.6 359.54L181.56 359.54C 181.52 359.83 181.51 360.13 181.51 360.43C 181.51 360.87 181.52 361.32 181.62 361.76C 181.62 364.2 181.81 366.62 182.21 368.98L182.21 368.98L182.25 369.5C 182.27 369.5 182.28 369.5 182.29 369.51C 186.25 397.07 208.38 419.01 236.64 423.65L236.64 423.65L236.65 423.74C 237.06 423.82 237.48 423.89 237.92 423.86C 240.38 424.29 242.89 424.53 245.44 424.57zM247.87 424.69L249.22 424.57C 251.77 424.53 254.28 424.29 256.73 423.86C 257.17 423.89 257.59 423.82 258.01 423.74L258.01 423.74L258.02 423.65C 286.27 419.01 308.4 397.07 312.36 369.51C 312.37 369.5 312.39 369.5 312.4 369.5L312.4 369.5L312.44 368.98C 312.84 366.62 313.03 364.2 313.03 361.76C 313.13 361.32 313.14 360.87 313.14 360.43C 313.14 360.13 313.14 359.83 313.09 359.54L313.09 359.54L313.05 359.54L313.05 359.54L313.05 359.5L313.05 359.5L311.7 359.63C 309.15 359.67 306.64 359.9 304.19 360.34C 303.75 360.3 303.33 360.38 302.91 360.46L302.91 360.46L302.9 360.55C 274.65 365.19 252.52 387.12 248.56 414.69C 248.55 414.69 248.53 414.69 248.52 414.69L248.52 414.69L248.48 415.21C 248.08 417.58 247.89 419.99 247.89 422.44C 247.79 422.88 247.78 423.32 247.78 423.76L247.78 423.76L247.83 424.66L247.83 424.66L247.87 424.65zM380.02 424.69L380.03 424.65L380.03 424.65L380.07 424.66L380.07 424.66L380.11 423.76C 380.11 423.32 380.11 422.88 380 422.44C 380.01 419.99 379.81 417.58 379.42 415.21L379.42 415.21L379.37 414.69C 379.36 414.69 379.35 414.69 379.33 414.69C 375.38 387.12 353.25 365.19 324.99 360.55L324.99 360.55L324.98 360.46C 324.56 360.38 324.14 360.3 323.7 360.34C 321.25 359.9 318.74 359.67 316.19 359.63L316.19 359.63L314.84 359.5L314.84 359.5L314.84 359.54L314.84 359.54L314.8 359.54C 314.76 359.83 314.75 360.13 314.75 360.43C 314.75 360.87 314.76 361.32 314.86 361.76C 314.86 364.2 315.05 366.62 315.45 368.98L315.45 368.98L315.49 369.5C 315.51 369.5 315.52 369.5 315.53 369.51C 319.49 397.07 341.62 419.01 369.88 423.65L369.88 423.65L369.89 423.74C 370.3 423.82 370.72 423.89 371.16 423.86C 373.62 424.29 376.13 424.53 378.68 424.57zM381.11 424.69L382.46 424.57C 385.01 424.53 387.52 424.29 389.97 423.86C 390.41 423.89 390.83 423.82 391.25 423.74L391.25 423.74L391.26 423.65C 419.51 419.01 441.64 397.07 445.6 369.51C 445.61 369.5 445.63 369.5 445.64 369.5L445.64 369.5L445.68 368.98C 446.08 366.62 446.28 364.2 446.27 361.76C 446.38 361.32 446.38 360.87 446.38 360.43C 446.38 360.13 446.38 359.83 446.33 359.54L446.33 359.54L446.29 359.54L446.29 359.54L446.29 359.5L446.29 359.5L444.94 359.63C 442.39 359.67 439.88 359.9 437.43 360.34C 436.99 360.3 436.57 360.38 436.15 360.46L436.15 360.46L436.14 360.55C 407.89 365.19 385.76 387.12 381.8 414.69C 381.79 414.69 381.77 414.69 381.76 414.69L381.76 414.69L381.72 415.21C 381.32 417.58 381.13 419.99 381.13 422.44C 381.03 422.88 381.02 423.32 381.02 423.76L381.02 423.76L381.07 424.66L381.07 424.66L381.11 424.65zM513.26 424.69L513.27 424.65L513.27 424.65L513.31 424.66L513.31 424.66L513.35 423.76C 513.35 423.32 513.35 422.88 513.24 422.44C 513.25 419.99 513.06 417.58 512.66 415.21L512.66 415.21L512.61 414.69C 512.6 414.69 512.59 414.69 512.57 414.69C 508.62 387.12 486.49 365.19 458.23 360.55L458.23 360.55L458.22 360.46C 457.8 360.38 457.38 360.3 456.94 360.34C 454.49 359.9 451.98 359.67 449.43 359.63L449.43 359.63L448.08 359.5L448.08 359.5L448.08 359.54L448.08 359.54L448.04 359.54C 448 359.83 447.99 360.13 447.99 360.43C 447.99 360.87 448 361.32 448.1 361.76C 448.1 364.2 448.29 366.62 448.69 368.98L448.69 368.98L448.73 369.5C 448.75 369.5 448.76 369.5 448.77 369.51C 452.73 397.07 474.86 419.01 503.12 423.65L503.12 423.65L503.13 423.74C 503.54 423.82 503.96 423.89 504.4 423.86C 506.86 424.29 509.37 424.53 511.92 424.57zM514.35 424.69L515.7 424.57C 518.25 424.53 520.76 424.29 523.21 423.86C 523.65 423.89 524.07 423.82 524.49 423.74L524.49 423.74L524.5 423.65C 552.75 419.01 574.88 397.07 578.84 369.51C 578.86 369.5 578.87 369.5 578.88 369.5L578.88 369.5L578.92 368.98C 579.32 366.62 579.52 364.2 579.51 361.76C 579.62 361.32 579.62 360.87 579.62 360.43C 579.62 360.13 579.62 359.83 579.57 359.54L579.57 359.54L579.53 359.54L579.53 359.54L579.53 359.5L579.53 359.5L578.18 359.63C 575.63 359.67 573.12 359.9 570.67 360.34C 570.23 360.3 569.81 360.38 569.39 360.46L569.39 360.46L569.38 360.55C 541.13 365.19 519 387.12 515.04 414.69C 515.03 414.69 515.01 414.69 515 414.69L515 414.69L514.96 415.21C 514.56 417.58 514.37 419.99 514.37 422.44C 514.27 422.88 514.26 423.32 514.26 423.76L514.26 423.76L514.31 424.66L514.31 424.66L514.35 424.65zM646.5 424.69L646.51 424.65L646.51 424.65L646.55 424.66L646.55 424.66L646.59 423.76C 646.59 423.32 646.59 422.88 646.48 422.44C 646.49 419.99 646.3 417.58 645.9 415.21L645.9 415.21L645.85 414.69C 645.84 414.69 645.83 414.69 645.81 414.69C 641.86 387.12 619.73 365.19 591.47 360.55L591.47 360.55L591.46 360.46C 591.04 360.38 590.62 360.3 590.19 360.34C 587.73 359.9 585.22 359.67 582.67 359.63L582.67 359.63L581.32 359.5L581.32 359.5L581.32 359.54L581.32 359.54L581.28 359.54C 581.24 359.83 581.24 360.13 581.24 360.43C 581.24 360.87 581.24 361.32 581.34 361.76C 581.34 364.2 581.53 366.62 581.93 368.98L581.93 368.98L581.97 369.5C 581.99 369.5 582 369.5 582.01 369.51C 585.97 397.07 608.1 419.01 636.36 423.65L636.36 423.65L636.37 423.74C 636.78 423.82 637.2 423.89 637.64 423.86C 640.1 424.29 642.61 424.53 645.16 424.57zM647.59 424.69L648.94 424.57C 651.49 424.53 654 424.29 656.45 423.86C 656.89 423.89 657.31 423.82 657.73 423.74L657.73 423.74L657.74 423.65C 685.99 419.01 708.12 397.07 712.08 369.51C 712.1 369.5 712.11 369.5 712.12 369.5L712.12 369.5L712.16 368.98C 712.56 366.62 712.76 364.2 712.75 361.76C 712.86 361.32 712.86 360.87 712.86 360.43C 712.86 360.13 712.86 359.83 712.81 359.54L712.81 359.54L712.77 359.54L712.77 359.54L712.77 359.5L712.77 359.5L711.42 359.63C 708.88 359.67 706.36 359.9 703.91 360.34C 703.47 360.3 703.05 360.38 702.63 360.46L702.63 360.46L702.62 360.55C 674.37 365.19 652.24 387.12 648.28 414.69C 648.27 414.69 648.25 414.69 648.24 414.69L648.24 414.69L648.2 415.21C 647.8 417.58 647.61 419.99 647.61 422.44C 647.51 422.88 647.5 423.32 647.5 423.76L647.5 423.76L647.55 424.66L647.55 424.66L647.59 424.65zM779.75 424.69L779.75 424.65L779.75 424.65L779.79 424.66L779.79 424.66L779.83 423.76C 779.83 423.32 779.83 422.88 779.73 422.44C 779.73 419.99 779.54 417.58 779.14 415.21L779.14 415.21L779.09 414.69C 779.08 414.69 779.07 414.69 779.05 414.69C 775.1 387.12 752.97 365.19 724.71 360.55L724.71 360.55L724.7 360.46C 724.28 360.38 723.86 360.3 723.43 360.34C 720.97 359.9 718.46 359.67 715.91 359.63L715.91 359.63L714.56 359.5L714.56 359.5L714.56 359.54L714.56 359.54L714.52 359.54C 714.48 359.83 714.48 360.13 714.48 360.43C 714.48 360.87 714.48 361.32 714.58 361.76C 714.58 364.2 714.77 366.62 715.17 368.98L715.17 368.98L715.21 369.5C 715.23 369.5 715.24 369.5 715.25 369.51C 719.21 397.07 741.34 419.01 769.6 423.65L769.6 423.65L769.61 423.74C 770.02 423.82 770.44 423.89 770.88 423.86C 773.34 424.29 775.85 424.53 778.4 424.57zM780.83 424.69L782.18 424.57C 784.73 424.53 787.24 424.29 789.69 423.86C 790.13 423.89 790.55 423.82 790.97 423.74L790.97 423.74L790.98 423.65C 819.23 419.01 841.36 397.07 845.32 369.51C 845.34 369.5 845.35 369.5 845.36 369.5L845.36 369.5L845.4 368.98C 845.8 366.62 846 364.2 845.99 361.76C 846.1 361.32 846.1 360.87 846.1 360.43C 846.1 360.13 846.1 359.83 846.05 359.54L846.05 359.54L846.01 359.54L846.01 359.54L846.01 359.5L846.01 359.5L844.66 359.63C 842.12 359.67 839.61 359.9 837.15 360.34C 836.71 360.3 836.29 360.38 835.87 360.46L835.87 360.46L835.86 360.55C 807.61 365.19 785.48 387.12 781.52 414.69C 781.51 414.69 781.49 414.69 781.48 414.69L781.48 414.69L781.44 415.21C 781.04 417.58 780.85 419.99 780.85 422.44C 780.75 422.88 780.74 423.32 780.74 423.76L780.74 423.76L780.79 424.66L780.79 424.66L780.83 424.65zM912.99 424.69L912.99 424.65L912.99 424.65L913.03 424.66L913.03 424.66L913.07 423.76C 913.07 423.32 913.07 422.88 912.97 422.44C 912.97 419.99 912.78 417.58 912.38 415.21L912.38 415.21L912.34 414.69C 912.32 414.69 912.31 414.69 912.3 414.69C 908.34 387.12 886.21 365.19 857.95 360.55L857.95 360.55L857.94 360.46C 857.52 360.38 857.1 360.3 856.67 360.34C 854.21 359.9 851.7 359.67 849.15 359.63L849.15 359.63L847.8 359.5L847.8 359.5L847.8 359.54L847.8 359.54L847.76 359.54C 847.72 359.83 847.72 360.13 847.72 360.43C 847.72 360.87 847.72 361.32 847.82 361.76C 847.82 364.2 848.01 366.62 848.41 368.98L848.41 368.98L848.45 369.5C 848.47 369.5 848.48 369.5 848.49 369.51C 852.45 397.07 874.58 419.01 902.84 423.65L902.84 423.65L902.85 423.74C 903.26 423.82 903.68 423.89 904.12 423.86C 906.58 424.29 909.09 424.53 911.64 424.57zM914.07 424.69L915.42 424.57C 917.97 424.53 920.48 424.29 922.93 423.86C 923.37 423.89 923.79 423.82 924.21 423.74L924.21 423.74L924.22 423.65C 938.12 421.37 950.53 414.9 960 405.6L960 405.6L960 389.86C 952.26 401.67 939.84 410.27 925.27 413.38C 928.93 394.92 942.27 379.79 960 373.18L960 373.18L960 362.78C 936.18 370.1 918.28 390.17 914.76 414.69C 914.75 414.69 914.73 414.69 914.72 414.69L914.72 414.69L914.68 415.21C 914.28 417.58 914.09 419.99 914.09 422.44C 913.99 422.88 913.98 423.32 913.98 423.76L913.98 423.76L914.03 424.66L914.03 424.66L914.07 424.65zM0 421.57C 24.146 414.44 42.329 394.24 45.881 369.51C 45.894 369.5 45.908 369.5 45.921 369.5L45.921 369.5L45.963 368.98C 46.362 366.62 46.554 364.2 46.551 361.76C 46.654 361.32 46.659 360.87 46.659 360.43C 46.659 360.13 46.657 359.83 46.612 359.54L46.612 359.54L46.573 359.54L46.573 359.54L46.571 359.5L46.571 359.5L45.223 359.63C 42.674 359.67 40.164 359.9 37.709 360.34C 37.27 360.3 36.85 360.38 36.432 360.46L36.432 360.46L36.423 360.55C 22.22 362.88 9.5657 369.58 0 379.18L0 379.18L0 395.34C 7.6838 383.01 20.392 374.01 35.37 370.81C 31.668 389.49 18.055 404.76 0 411.23zM102.34 413.38C 80.675 408.76 63.758 391.98 59.563 370.81C 81.231 375.44 98.148 392.22 102.34 413.38zM125.83 413.38C 130.03 392.22 146.94 375.44 168.61 370.81C 164.42 391.98 147.5 408.76 125.83 413.38zM235.58 413.38C 213.91 408.76 197 391.98 192.8 370.81C 214.47 375.44 231.39 392.22 235.58 413.38zM259.07 413.38C 263.27 392.22 280.18 375.44 301.85 370.81C 297.66 391.98 280.74 408.76 259.07 413.38zM368.82 413.38C 347.16 408.76 330.24 391.98 326.04 370.81C 347.71 375.44 364.63 392.22 368.82 413.38zM392.31 413.38C 396.51 392.22 413.42 375.44 435.09 370.81C 430.9 391.98 413.98 408.76 392.31 413.38zM502.06 413.38C 480.4 408.76 463.48 391.98 459.28 370.81C 480.95 375.44 497.87 392.22 502.06 413.38zM525.55 413.38C 529.75 392.22 546.66 375.44 568.33 370.81C 564.14 391.98 547.22 408.76 525.55 413.38zM635.3 413.38C 613.64 408.76 596.72 391.98 592.52 370.81C 614.19 375.44 631.11 392.22 635.3 413.38zM658.79 413.38C 662.99 392.22 679.9 375.44 701.57 370.81C 697.38 391.98 680.46 408.76 658.79 413.38zM768.54 413.38C 746.88 408.76 729.96 391.98 725.76 370.81C 747.43 375.44 764.35 392.22 768.54 413.38zM792.03 413.38C 796.23 392.22 813.14 375.44 834.81 370.81C 830.62 391.98 813.7 408.76 792.03 413.38zM901.78 413.38C 880.12 408.76 863.2 391.98 859 370.81C 880.67 375.44 897.59 392.22 901.78 413.38zM46.571 358.69L46.573 358.65L46.573 358.65L46.612 358.66L46.612 358.66L46.659 357.76C 46.659 357.31 46.654 356.86 46.551 356.42C 46.554 353.95 46.361 351.52 45.963 349.14L45.963 349.14L45.921 348.61C 45.907 348.61 45.894 348.61 45.881 348.61C 42.329 323.68 24.147 303.31 0 296.13L0 296.13L0 306.55C 18.055 313.08 31.668 328.46 35.37 347.29C 20.391 344.07 7.6831 334.99 0 322.57L0 322.57L0 338.86C 9.5657 348.53 22.22 355.29 36.423 357.64L36.423 357.64L36.432 357.73C 36.85 357.81 37.27 357.88 37.709 357.85C 40.164 358.29 42.676 358.52 45.226 358.57zM48.362 358.69L49.708 358.57C 52.258 358.52 54.769 358.29 57.225 357.85C 57.664 357.88 58.083 357.81 58.501 357.73L58.501 357.73L58.51 357.64C 86.766 352.96 108.9 330.85 112.85 303.07C 112.87 303.07 112.88 303.07 112.89 303.07L112.89 303.07L112.94 302.54C 113.33 300.16 113.53 297.73 113.52 295.26C 113.63 294.82 113.63 294.37 113.63 293.92C 113.63 293.62 113.63 293.32 113.59 293.02L113.59 293.02L113.55 293.02L113.55 293.02L113.54 292.98L113.54 292.98L112.2 293.11C 109.65 293.15 107.14 293.39 104.68 293.83C 104.24 293.79 103.82 293.87 103.41 293.95L103.41 293.95L103.4 294.04C 75.14 298.71 53.011 320.82 49.052 348.61C 49.039 348.61 49.026 348.61 49.013 348.61L49.013 348.61L48.97 349.14C 48.572 351.52 48.379 353.95 48.382 356.42C 48.279 356.86 48.274 357.31 48.274 357.76L48.274 357.76L48.321 358.66L48.321 358.66L48.36 358.65zM179.81 358.69L179.81 358.65L179.81 358.65L179.85 358.66L179.85 358.66L179.9 357.76C 179.9 357.31 179.89 356.86 179.79 356.42C 179.79 353.95 179.6 351.52 179.2 349.14L179.2 349.14L179.16 348.61C 179.15 348.61 179.13 348.61 179.12 348.61C 175.16 320.82 153.03 298.71 124.78 294.04L124.78 294.04L124.77 293.95C 124.35 293.87 123.93 293.79 123.49 293.83C 121.04 293.39 118.53 293.15 115.98 293.11L115.98 293.11L114.63 292.98L114.63 292.98L114.63 293.02L114.63 293.02L114.59 293.02C 114.54 293.32 114.54 293.62 114.54 293.92C 114.54 294.37 114.55 294.82 114.65 295.26C 114.65 297.73 114.84 300.16 115.24 302.54L115.24 302.54L115.28 303.07C 115.29 303.07 115.31 303.07 115.32 303.07C 119.28 330.85 141.41 352.96 169.66 357.64L169.66 357.64L169.67 357.73C 170.09 357.81 170.51 357.88 170.95 357.85C 173.4 358.29 175.92 358.52 178.47 358.57zM181.6 358.69L182.95 358.57C 185.5 358.52 188.01 358.29 190.46 357.85C 190.9 357.88 191.32 357.81 191.74 357.73L191.74 357.73L191.75 357.64C 220.01 352.96 242.14 330.85 246.09 303.07C 246.11 303.07 246.12 303.07 246.13 303.07L246.13 303.07L246.18 302.54C 246.57 300.16 246.77 297.73 246.76 295.26C 246.87 294.82 246.87 294.37 246.87 293.92C 246.87 293.62 246.87 293.32 246.83 293.02L246.83 293.02L246.79 293.02L246.79 293.02L246.78 292.98L246.78 292.98L245.44 293.11C 242.89 293.15 240.38 293.39 237.92 293.83C 237.48 293.79 237.06 293.87 236.65 293.95L236.65 293.95L236.64 294.04C 208.38 298.71 186.25 320.82 182.29 348.61C 182.28 348.61 182.27 348.61 182.25 348.61L182.25 348.61L182.21 349.14C 181.81 351.52 181.62 353.95 181.62 356.42C 181.52 356.86 181.51 357.31 181.51 357.76L181.51 357.76L181.56 358.66L181.56 358.66L181.6 358.65zM313.05 358.69L313.05 358.65L313.05 358.65L313.09 358.66L313.09 358.66L313.14 357.76C 313.14 357.31 313.13 356.86 313.03 356.42C 313.03 353.95 312.84 351.52 312.44 349.14L312.44 349.14L312.4 348.61C 312.39 348.61 312.37 348.61 312.36 348.61C 308.4 320.82 286.27 298.71 258.02 294.04L258.02 294.04L258.01 293.95C 257.59 293.87 257.17 293.79 256.73 293.83C 254.28 293.39 251.77 293.15 249.22 293.11L249.22 293.11L247.87 292.98L247.87 292.98L247.87 293.02L247.87 293.02L247.83 293.02C 247.78 293.32 247.78 293.62 247.78 293.92C 247.78 294.37 247.79 294.82 247.89 295.26C 247.89 297.73 248.08 300.16 248.48 302.54L248.48 302.54L248.52 303.07C 248.53 303.07 248.55 303.07 248.56 303.07C 252.52 330.85 274.65 352.96 302.9 357.64L302.9 357.64L302.91 357.73C 303.33 357.81 303.75 357.88 304.19 357.85C 306.64 358.29 309.16 358.52 311.71 358.57zM314.84 358.69L316.19 358.57C 318.74 358.52 321.25 358.29 323.71 357.85C 324.14 357.88 324.56 357.81 324.98 357.73L324.98 357.73L324.99 357.64C 353.25 352.96 375.38 330.85 379.33 303.07C 379.35 303.07 379.36 303.07 379.37 303.07L379.37 303.07L379.42 302.54C 379.82 300.16 380.01 297.73 380 295.26C 380.11 294.82 380.11 294.37 380.11 293.92C 380.11 293.62 380.11 293.32 380.07 293.02L380.07 293.02L380.03 293.02L380.03 293.02L380.02 292.98L380.02 292.98L378.68 293.11C 376.13 293.15 373.62 293.39 371.16 293.83C 370.72 293.79 370.3 293.87 369.89 293.95L369.89 293.95L369.88 294.04C 341.62 298.71 319.49 320.82 315.53 348.61C 315.52 348.61 315.51 348.61 315.49 348.61L315.49 348.61L315.45 349.14C 315.05 351.52 314.86 353.95 314.86 356.42C 314.76 356.86 314.75 357.31 314.75 357.76L314.75 357.76L314.8 358.66L314.8 358.66L314.84 358.65zM446.29 358.69L446.29 358.65L446.29 358.65L446.33 358.66L446.33 358.66L446.38 357.76C 446.38 357.31 446.38 356.86 446.27 356.42C 446.28 353.95 446.08 351.52 445.68 349.14L445.68 349.14L445.64 348.61C 445.63 348.61 445.61 348.61 445.6 348.61C 441.64 320.82 419.51 298.71 391.26 294.04L391.26 294.04L391.25 293.95C 390.83 293.87 390.41 293.79 389.97 293.83C 387.52 293.39 385.01 293.15 382.46 293.11L382.46 293.11L381.11 292.98L381.11 292.98L381.11 293.02L381.11 293.02L381.07 293.02C 381.02 293.32 381.02 293.62 381.02 293.92C 381.02 294.37 381.03 294.82 381.13 295.26C 381.13 297.73 381.32 300.16 381.72 302.54L381.72 302.54L381.76 303.07C 381.77 303.07 381.79 303.07 381.8 303.07C 385.76 330.85 407.89 352.96 436.14 357.64L436.14 357.64L436.15 357.73C 436.57 357.81 436.99 357.88 437.43 357.85C 439.88 358.29 442.4 358.52 444.95 358.57zM448.08 358.69L449.43 358.57C 451.98 358.52 454.49 358.29 456.95 357.85C 457.38 357.88 457.8 357.81 458.22 357.73L458.22 357.73L458.23 357.64C 486.49 352.96 508.62 330.85 512.57 303.07C 512.59 303.07 512.6 303.07 512.61 303.07L512.61 303.07L512.66 302.54C 513.06 300.16 513.25 297.73 513.24 295.26C 513.35 294.82 513.35 294.37 513.35 293.92C 513.35 293.62 513.35 293.32 513.31 293.02L513.31 293.02L513.27 293.02L513.27 293.02L513.26 292.98L513.26 292.98L511.92 293.11C 509.37 293.15 506.86 293.39 504.4 293.83C 503.96 293.79 503.54 293.87 503.13 293.95L503.13 293.95L503.12 294.04C 474.86 298.71 452.73 320.82 448.77 348.61C 448.76 348.61 448.75 348.61 448.73 348.61L448.73 348.61L448.69 349.14C 448.29 351.52 448.1 353.95 448.1 356.42C 448 356.86 448 357.31 448 357.76L448 357.76L448.04 358.66L448.04 358.66L448.08 358.65zM579.53 358.69L579.53 358.65L579.53 358.65L579.57 358.66L579.57 358.66L579.62 357.76C 579.62 357.31 579.62 356.86 579.51 356.42C 579.52 353.95 579.32 351.52 578.92 349.14L578.92 349.14L578.88 348.61C 578.87 348.61 578.86 348.61 578.84 348.61C 574.88 320.82 552.75 298.71 524.5 294.04L524.5 294.04L524.49 293.95C 524.07 293.87 523.65 293.79 523.21 293.83C 520.76 293.39 518.25 293.15 515.7 293.11L515.7 293.11L514.35 292.98L514.35 292.98L514.35 293.02L514.35 293.02L514.31 293.02C 514.26 293.32 514.26 293.62 514.26 293.92C 514.26 294.37 514.27 294.82 514.37 295.26C 514.37 297.73 514.56 300.16 514.96 302.54L514.96 302.54L515 303.07C 515.01 303.07 515.03 303.07 515.04 303.07C 519 330.85 541.13 352.96 569.38 357.64L569.38 357.64L569.39 357.73C 569.81 357.81 570.23 357.88 570.67 357.85C 573.13 358.29 575.64 358.52 578.19 358.57zM581.32 358.69L582.67 358.57C 585.22 358.52 587.73 358.29 590.19 357.85C 590.62 357.88 591.04 357.81 591.46 357.73L591.46 357.73L591.47 357.64C 619.73 352.96 641.86 330.85 645.82 303.07C 645.83 303.07 645.84 303.07 645.85 303.07L645.85 303.07L645.9 302.54C 646.3 300.16 646.49 297.73 646.49 295.26C 646.59 294.82 646.59 294.37 646.59 293.92C 646.59 293.62 646.59 293.32 646.55 293.02L646.55 293.02L646.51 293.02L646.51 293.02L646.51 292.98L646.51 292.98L645.16 293.11C 642.61 293.15 640.1 293.39 637.64 293.83C 637.2 293.79 636.78 293.87 636.37 293.95L636.37 293.95L636.36 294.04C 608.1 298.71 585.97 320.82 582.01 348.61C 582 348.61 581.99 348.61 581.97 348.61L581.97 348.61L581.93 349.14C 581.53 351.52 581.34 353.95 581.34 356.42C 581.24 356.86 581.24 357.31 581.24 357.76L581.24 357.76L581.28 358.66L581.28 358.66L581.32 358.65zM712.77 358.69L712.77 358.65L712.77 358.65L712.81 358.66L712.81 358.66L712.86 357.76C 712.86 357.31 712.86 356.86 712.75 356.42C 712.76 353.95 712.56 351.52 712.16 349.14L712.16 349.14L712.12 348.61C 712.11 348.61 712.1 348.61 712.08 348.61C 708.12 320.82 685.99 298.71 657.74 294.04L657.74 294.04L657.73 293.95C 657.31 293.87 656.89 293.79 656.45 293.83C 654 293.39 651.49 293.15 648.94 293.11L648.94 293.11L647.59 292.98L647.59 292.98L647.59 293.02L647.59 293.02L647.55 293.02C 647.5 293.32 647.5 293.62 647.5 293.92C 647.5 294.37 647.51 294.82 647.61 295.26C 647.61 297.73 647.8 300.16 648.2 302.54L648.2 302.54L648.24 303.07C 648.25 303.07 648.27 303.07 648.28 303.07C 652.24 330.85 674.37 352.96 702.62 357.64L702.62 357.64L702.63 357.73C 703.05 357.81 703.47 357.88 703.91 357.85C 706.37 358.29 708.88 358.52 711.43 358.57zM714.56 358.69L715.91 358.57C 718.46 358.52 720.97 358.29 723.43 357.85C 723.86 357.88 724.28 357.81 724.7 357.73L724.7 357.73L724.71 357.64C 752.97 352.96 775.1 330.85 779.06 303.07C 779.07 303.07 779.08 303.07 779.1 303.07L779.1 303.07L779.14 302.54C 779.54 300.16 779.73 297.73 779.73 295.26C 779.83 294.82 779.83 294.37 779.83 293.92C 779.83 293.62 779.83 293.32 779.79 293.02L779.79 293.02L779.75 293.02L779.75 293.02L779.75 292.98L779.75 292.98L778.4 293.11C 775.85 293.15 773.34 293.39 770.88 293.83C 770.44 293.79 770.02 293.87 769.61 293.95L769.61 293.95L769.6 294.04C 741.34 298.71 719.21 320.82 715.25 348.61C 715.24 348.61 715.23 348.61 715.21 348.61L715.21 348.61L715.17 349.14C 714.77 351.52 714.58 353.95 714.58 356.42C 714.48 356.86 714.48 357.31 714.48 357.76L714.48 357.76L714.52 358.66L714.52 358.66L714.56 358.65zM846.01 358.69L846.01 358.65L846.01 358.65L846.05 358.66L846.05 358.66L846.1 357.76C 846.1 357.31 846.1 356.86 845.99 356.42C 846 353.95 845.8 351.52 845.4 349.14L845.4 349.14L845.36 348.61C 845.35 348.61 845.34 348.61 845.32 348.61C 841.36 320.82 819.23 298.71 790.98 294.04L790.98 294.04L790.97 293.95C 790.55 293.87 790.13 293.79 789.69 293.83C 787.24 293.39 784.73 293.15 782.18 293.11L782.18 293.11L780.83 292.98L780.83 292.98L780.83 293.02L780.83 293.02L780.79 293.02C 780.74 293.32 780.74 293.62 780.74 293.92C 780.74 294.37 780.75 294.82 780.85 295.26C 780.85 297.73 781.04 300.16 781.44 302.54L781.44 302.54L781.48 303.07C 781.49 303.07 781.51 303.07 781.52 303.07C 785.48 330.85 807.61 352.96 835.86 357.64L835.86 357.64L835.87 357.73C 836.29 357.81 836.71 357.88 837.15 357.85C 839.61 358.29 842.12 358.52 844.67 358.57zM847.8 358.69L849.15 358.57C 851.7 358.52 854.21 358.29 856.67 357.85C 857.11 357.88 857.52 357.81 857.94 357.73L857.94 357.73L857.95 357.64C 886.21 352.96 908.34 330.85 912.3 303.07C 912.31 303.07 912.32 303.07 912.34 303.07L912.34 303.07L912.38 302.54C 912.78 300.16 912.97 297.73 912.97 295.26C 913.07 294.82 913.07 294.37 913.07 293.92C 913.07 293.62 913.07 293.32 913.03 293.02L913.03 293.02L912.99 293.02L912.99 293.02L912.99 292.98L912.99 292.98L911.64 293.11C 909.09 293.15 906.58 293.39 904.12 293.83C 903.68 293.79 903.27 293.87 902.85 293.95L902.85 293.95L902.84 294.04C 874.58 298.71 852.45 320.82 848.49 348.61C 848.48 348.61 848.47 348.61 848.45 348.61L848.45 348.61L848.41 349.14C 848.01 351.52 847.82 353.95 847.82 356.42C 847.72 356.86 847.72 357.31 847.72 357.76L847.72 357.76L847.76 358.66L847.76 358.66L847.8 358.65zM960 355.38L960 344.91C 942.27 338.24 928.93 322.99 925.27 304.39C 939.84 307.52 952.26 316.19 960 328.1L960 328.1L960 312.23C 950.53 302.86 938.12 296.34 924.22 294.04L924.22 294.04L924.21 293.95C 923.79 293.87 923.37 293.79 922.93 293.83C 920.48 293.39 917.97 293.15 915.42 293.11L915.42 293.11L914.07 292.98L914.07 292.98L914.07 293.02L914.07 293.02L914.03 293.02C 913.99 293.32 913.98 293.62 913.98 293.92C 913.98 294.37 913.99 294.82 914.09 295.26C 914.09 297.73 914.28 300.16 914.68 302.54L914.68 302.54L914.72 303.07C 914.73 303.07 914.75 303.07 914.76 303.07C 918.28 327.78 936.18 348.01 960 355.38zM59.563 347.29C 63.758 325.96 80.675 309.05 102.34 304.39C 98.149 325.72 81.232 342.63 59.563 347.29zM168.61 347.29C 146.94 342.63 130.03 325.72 125.83 304.39C 147.5 309.05 164.42 325.96 168.61 347.29zM192.8 347.29C 197 325.96 213.92 309.05 235.58 304.39C 231.39 325.72 214.47 342.63 192.8 347.29zM301.85 347.29C 280.18 342.63 263.27 325.72 259.07 304.39C 280.74 309.05 297.66 325.96 301.85 347.29zM326.04 347.29C 330.24 325.96 347.16 309.05 368.82 304.39C 364.63 325.72 347.71 342.63 326.04 347.29zM435.09 347.29C 413.42 342.63 396.51 325.72 392.31 304.39C 413.98 309.05 430.9 325.96 435.09 347.29zM459.28 347.29C 463.48 325.96 480.4 309.05 502.06 304.39C 497.87 325.72 480.95 342.63 459.28 347.29zM568.33 347.29C 546.66 342.63 529.75 325.72 525.55 304.39C 547.22 309.05 564.14 325.96 568.33 347.29zM592.52 347.29C 596.72 325.96 613.64 309.05 635.3 304.39C 631.11 325.72 614.19 342.63 592.52 347.29zM701.57 347.29C 679.9 342.63 662.99 325.72 658.79 304.39C 680.46 309.05 697.38 325.96 701.57 347.29zM725.76 347.29C 729.96 325.96 746.88 309.05 768.54 304.39C 764.35 325.72 747.43 342.63 725.76 347.29zM834.81 347.29C 813.14 342.63 796.23 325.72 792.03 304.39C 813.7 309.05 830.62 325.96 834.81 347.29zM859 347.29C 863.2 325.96 880.12 309.05 901.78 304.39C 897.59 325.72 880.67 342.63 859 347.29zM113.54 291.09L113.55 291.05L113.55 291.05L113.59 291.05L113.59 291.05L113.63 290.16C 113.63 289.71 113.63 289.27 113.52 288.83C 113.53 286.38 113.33 283.97 112.94 281.6L112.94 281.6L112.89 281.08C 112.88 281.08 112.87 281.08 112.85 281.08C 108.9 253.51 86.766 231.58 58.51 226.94L58.51 226.94L58.501 226.85C 58.083 226.77 57.663 226.69 57.224 226.73C 54.77 226.29 52.259 226.06 49.71 226.02L49.71 226.02L48.362 225.89L48.362 225.89L48.36 225.93L48.36 225.93L48.321 225.93C 48.276 226.22 48.274 226.52 48.274 226.82C 48.274 227.27 48.279 227.71 48.382 228.15C 48.379 230.6 48.572 233.01 48.97 235.37L48.97 235.37L49.012 235.89C 49.026 235.89 49.039 235.89 49.052 235.9C 53.011 263.47 75.14 285.4 103.4 290.04L103.4 290.04L103.41 290.13C 103.82 290.21 104.24 290.28 104.68 290.25C 107.14 290.68 109.65 290.92 112.2 290.96zM114.63 291.09L115.98 290.96C 118.53 290.92 121.04 290.68 123.49 290.25C 123.93 290.28 124.35 290.21 124.77 290.13L124.77 290.13L124.78 290.04C 153.03 285.4 175.16 263.47 179.12 235.9C 179.13 235.89 179.15 235.89 179.16 235.89L179.16 235.89L179.2 235.37C 179.6 233.01 179.79 230.6 179.79 228.15C 179.89 227.71 179.9 227.27 179.9 226.82C 179.9 226.52 179.9 226.22 179.85 225.93L179.85 225.93L179.81 225.93L179.81 225.93L179.81 225.89L179.81 225.89L178.46 226.02C 175.91 226.06 173.4 226.29 170.95 226.73C 170.51 226.69 170.09 226.77 169.67 226.85L169.67 226.85L169.66 226.94C 141.41 231.58 119.28 253.51 115.32 281.08C 115.31 281.08 115.29 281.08 115.28 281.08L115.28 281.08L115.24 281.6C 114.84 283.97 114.65 286.38 114.65 288.83C 114.55 289.27 114.54 289.71 114.54 290.16L114.54 290.16L114.59 291.05L114.59 291.05L114.63 291.05zM246.78 291.09L246.79 291.05L246.79 291.05L246.83 291.05L246.83 291.05L246.87 290.16C 246.87 289.71 246.87 289.27 246.76 288.83C 246.77 286.38 246.57 283.97 246.18 281.6L246.18 281.6L246.13 281.08C 246.12 281.08 246.11 281.08 246.09 281.08C 242.14 253.51 220.01 231.58 191.75 226.94L191.75 226.94L191.74 226.85C 191.32 226.77 190.9 226.69 190.46 226.73C 188.01 226.29 185.5 226.06 182.95 226.02L182.95 226.02L181.6 225.89L181.6 225.89L181.6 225.93L181.6 225.93L181.56 225.93C 181.52 226.22 181.51 226.52 181.51 226.82C 181.51 227.27 181.52 227.71 181.62 228.15C 181.62 230.6 181.81 233.01 182.21 235.37L182.21 235.37L182.25 235.89C 182.27 235.89 182.28 235.89 182.29 235.9C 186.25 263.47 208.38 285.4 236.64 290.04L236.64 290.04L236.65 290.13C 237.06 290.21 237.48 290.28 237.92 290.25C 240.38 290.68 242.89 290.92 245.44 290.96zM247.87 291.09L249.22 290.96C 251.77 290.92 254.28 290.68 256.73 290.25C 257.17 290.28 257.59 290.21 258.01 290.13L258.01 290.13L258.02 290.04C 286.27 285.4 308.4 263.47 312.36 235.9C 312.37 235.89 312.39 235.89 312.4 235.89L312.4 235.89L312.44 235.37C 312.84 233.01 313.03 230.6 313.03 228.15C 313.13 227.71 313.14 227.27 313.14 226.82C 313.14 226.52 313.14 226.22 313.09 225.93L313.09 225.93L313.05 225.93L313.05 225.93L313.05 225.89L313.05 225.89L311.7 226.02C 309.15 226.06 306.64 226.29 304.19 226.73C 303.75 226.69 303.33 226.77 302.91 226.85L302.91 226.85L302.9 226.94C 274.65 231.58 252.52 253.51 248.56 281.08C 248.55 281.08 248.53 281.08 248.52 281.08L248.52 281.08L248.48 281.6C 248.08 283.97 247.89 286.38 247.89 288.83C 247.79 289.27 247.78 289.71 247.78 290.16L247.78 290.16L247.83 291.05L247.83 291.05L247.87 291.05zM380.02 291.09L380.03 291.05L380.03 291.05L380.07 291.05L380.07 291.05L380.11 290.16C 380.11 289.71 380.11 289.27 380 288.83C 380.01 286.38 379.81 283.97 379.42 281.6L379.42 281.6L379.37 281.08C 379.36 281.08 379.35 281.08 379.33 281.08C 375.38 253.51 353.25 231.58 324.99 226.94L324.99 226.94L324.98 226.85C 324.56 226.77 324.14 226.69 323.7 226.73C 321.25 226.29 318.74 226.06 316.19 226.02L316.19 226.02L314.84 225.89L314.84 225.89L314.84 225.93L314.84 225.93L314.8 225.93C 314.76 226.22 314.75 226.52 314.75 226.82C 314.75 227.27 314.76 227.71 314.86 228.15C 314.86 230.6 315.05 233.01 315.45 235.37L315.45 235.37L315.49 235.89C 315.51 235.89 315.52 235.89 315.53 235.9C 319.49 263.47 341.62 285.4 369.88 290.04L369.88 290.04L369.89 290.13C 370.3 290.21 370.72 290.28 371.16 290.25C 373.62 290.68 376.13 290.92 378.68 290.96zM381.11 291.09L382.46 290.96C 385.01 290.92 387.52 290.68 389.97 290.25C 390.41 290.28 390.83 290.21 391.25 290.13L391.25 290.13L391.26 290.04C 419.51 285.4 441.64 263.47 445.6 235.9C 445.61 235.89 445.63 235.89 445.64 235.89L445.64 235.89L445.68 235.37C 446.08 233.01 446.28 230.6 446.27 228.15C 446.38 227.71 446.38 227.27 446.38 226.82C 446.38 226.52 446.38 226.22 446.33 225.93L446.33 225.93L446.29 225.93L446.29 225.93L446.29 225.89L446.29 225.89L444.94 226.02C 442.39 226.06 439.88 226.29 437.43 226.73C 436.99 226.69 436.57 226.77 436.15 226.85L436.15 226.85L436.14 226.94C 407.89 231.58 385.76 253.51 381.8 281.08C 381.79 281.08 381.77 281.08 381.76 281.08L381.76 281.08L381.72 281.6C 381.32 283.97 381.13 286.38 381.13 288.83C 381.03 289.27 381.02 289.71 381.02 290.16L381.02 290.16L381.07 291.05L381.07 291.05L381.11 291.05zM513.26 291.09L513.27 291.05L513.27 291.05L513.31 291.05L513.31 291.05L513.35 290.16C 513.35 289.71 513.35 289.27 513.24 288.83C 513.25 286.38 513.06 283.97 512.66 281.6L512.66 281.6L512.61 281.08C 512.6 281.08 512.59 281.08 512.57 281.08C 508.62 253.51 486.49 231.58 458.23 226.94L458.23 226.94L458.22 226.85C 457.8 226.77 457.38 226.69 456.94 226.73C 454.49 226.29 451.98 226.06 449.43 226.02L449.43 226.02L448.08 225.89L448.08 225.89L448.08 225.93L448.08 225.93L448.04 225.93C 448 226.22 447.99 226.52 447.99 226.82C 447.99 227.27 448 227.71 448.1 228.15C 448.1 230.6 448.29 233.01 448.69 235.37L448.69 235.37L448.73 235.89C 448.75 235.89 448.76 235.89 448.77 235.9C 452.73 263.47 474.86 285.4 503.12 290.04L503.12 290.04L503.13 290.13C 503.54 290.21 503.96 290.28 504.4 290.25C 506.86 290.68 509.37 290.92 511.92 290.96zM514.35 291.09L515.7 290.96C 518.25 290.92 520.76 290.68 523.21 290.25C 523.65 290.28 524.07 290.21 524.49 290.13L524.49 290.13L524.5 290.04C 552.75 285.4 574.88 263.47 578.84 235.9C 578.86 235.89 578.87 235.89 578.88 235.89L578.88 235.89L578.92 235.37C 579.32 233.01 579.52 230.6 579.51 228.15C 579.62 227.71 579.62 227.27 579.62 226.82C 579.62 226.52 579.62 226.22 579.57 225.93L579.57 225.93L579.53 225.93L579.53 225.93L579.53 225.89L579.53 225.89L578.18 226.02C 575.63 226.06 573.12 226.29 570.67 226.73C 570.23 226.69 569.81 226.77 569.39 226.85L569.39 226.85L569.38 226.94C 541.13 231.58 519 253.51 515.04 281.08C 515.03 281.08 515.01 281.08 515 281.08L515 281.08L514.96 281.6C 514.56 283.97 514.37 286.38 514.37 288.83C 514.27 289.27 514.26 289.71 514.26 290.16L514.26 290.16L514.31 291.05L514.31 291.05L514.35 291.05zM646.5 291.09L646.51 291.05L646.51 291.05L646.55 291.05L646.55 291.05L646.59 290.16C 646.59 289.71 646.59 289.27 646.48 288.83C 646.49 286.38 646.3 283.97 645.9 281.6L645.9 281.6L645.85 281.08C 645.84 281.08 645.83 281.08 645.81 281.08C 641.86 253.51 619.73 231.58 591.47 226.94L591.47 226.94L591.46 226.85C 591.04 226.77 590.62 226.69 590.19 226.73C 587.73 226.29 585.22 226.06 582.67 226.02L582.67 226.02L581.32 225.89L581.32 225.89L581.32 225.93L581.32 225.93L581.28 225.93C 581.24 226.22 581.24 226.52 581.24 226.82C 581.24 227.27 581.24 227.71 581.34 228.15C 581.34 230.6 581.53 233.01 581.93 235.37L581.93 235.37L581.97 235.89C 581.99 235.89 582 235.89 582.01 235.9C 585.97 263.47 608.1 285.4 636.36 290.04L636.36 290.04L636.37 290.13C 636.78 290.21 637.2 290.28 637.64 290.25C 640.1 290.68 642.61 290.92 645.16 290.96zM647.59 291.09L648.94 290.96C 651.49 290.92 654 290.68 656.45 290.25C 656.89 290.28 657.31 290.21 657.73 290.13L657.73 290.13L657.74 290.04C 685.99 285.4 708.12 263.47 712.08 235.9C 712.1 235.89 712.11 235.89 712.12 235.89L712.12 235.89L712.16 235.37C 712.56 233.01 712.76 230.6 712.75 228.15C 712.86 227.71 712.86 227.27 712.86 226.82C 712.86 226.52 712.86 226.22 712.81 225.93L712.81 225.93L712.77 225.93L712.77 225.93L712.77 225.89L712.77 225.89L711.42 226.02C 708.88 226.06 706.36 226.29 703.91 226.73C 703.47 226.69 703.05 226.77 702.63 226.85L702.63 226.85L702.62 226.94C 674.37 231.58 652.24 253.51 648.28 281.08C 648.27 281.08 648.25 281.08 648.24 281.08L648.24 281.08L648.2 281.6C 647.8 283.97 647.61 286.38 647.61 288.83C 647.51 289.27 647.5 289.71 647.5 290.16L647.5 290.16L647.55 291.05L647.55 291.05L647.59 291.05zM779.75 291.09L779.75 291.05L779.75 291.05L779.79 291.05L779.79 291.05L779.83 290.16C 779.83 289.71 779.83 289.27 779.73 288.83C 779.73 286.38 779.54 283.97 779.14 281.6L779.14 281.6L779.09 281.08C 779.08 281.08 779.07 281.08 779.05 281.08C 775.1 253.51 752.97 231.58 724.71 226.94L724.71 226.94L724.7 226.85C 724.28 226.77 723.86 226.69 723.43 226.73C 720.97 226.29 718.46 226.06 715.91 226.02L715.91 226.02L714.56 225.89L714.56 225.89L714.56 225.93L714.56 225.93L714.52 225.93C 714.48 226.22 714.48 226.52 714.48 226.82C 714.48 227.27 714.48 227.71 714.58 228.15C 714.58 230.6 714.77 233.01 715.17 235.37L715.17 235.37L715.21 235.89C 715.23 235.89 715.24 235.89 715.25 235.9C 719.21 263.47 741.34 285.4 769.6 290.04L769.6 290.04L769.61 290.13C 770.02 290.21 770.44 290.28 770.88 290.25C 773.34 290.68 775.85 290.92 778.4 290.96zM780.83 291.09L782.18 290.96C 784.73 290.92 787.24 290.68 789.69 290.25C 790.13 290.28 790.55 290.21 790.97 290.13L790.97 290.13L790.98 290.04C 819.23 285.4 841.36 263.47 845.32 235.9C 845.34 235.89 845.35 235.89 845.36 235.89L845.36 235.89L845.4 235.37C 845.8 233.01 846 230.6 845.99 228.15C 846.1 227.71 846.1 227.27 846.1 226.82C 846.1 226.52 846.1 226.22 846.05 225.93L846.05 225.93L846.01 225.93L846.01 225.93L846.01 225.89L846.01 225.89L844.66 226.02C 842.12 226.06 839.61 226.29 837.15 226.73C 836.71 226.69 836.29 226.77 835.87 226.85L835.87 226.85L835.86 226.94C 807.61 231.58 785.48 253.51 781.52 281.08C 781.51 281.08 781.49 281.08 781.48 281.08L781.48 281.08L781.44 281.6C 781.04 283.97 780.85 286.38 780.85 288.83C 780.75 289.27 780.74 289.71 780.74 290.16L780.74 290.16L780.79 291.05L780.79 291.05L780.83 291.05zM912.99 291.09L912.99 291.05L912.99 291.05L913.03 291.05L913.03 291.05L913.07 290.16C 913.07 289.71 913.07 289.27 912.97 288.83C 912.97 286.38 912.78 283.97 912.38 281.6L912.38 281.6L912.34 281.08C 912.32 281.08 912.31 281.08 912.3 281.08C 908.34 253.51 886.21 231.58 857.95 226.94L857.95 226.94L857.94 226.85C 857.52 226.77 857.1 226.69 856.67 226.73C 854.21 226.29 851.7 226.06 849.15 226.02L849.15 226.02L847.8 225.89L847.8 225.89L847.8 225.93L847.8 225.93L847.76 225.93C 847.72 226.22 847.72 226.52 847.72 226.82C 847.72 227.27 847.72 227.71 847.82 228.15C 847.82 230.6 848.01 233.01 848.41 235.37L848.41 235.37L848.45 235.89C 848.47 235.89 848.48 235.89 848.49 235.9C 852.45 263.47 874.58 285.4 902.84 290.04L902.84 290.04L902.85 290.13C 903.26 290.21 903.68 290.28 904.12 290.25C 906.58 290.68 909.09 290.92 911.64 290.96zM914.07 291.09L915.42 290.96C 917.97 290.92 920.48 290.68 922.93 290.25C 923.37 290.28 923.79 290.21 924.21 290.13L924.21 290.13L924.22 290.04C 938.12 287.76 950.53 281.29 960 271.99L960 271.99L960 256.25C 952.26 268.06 939.84 276.66 925.27 279.77C 928.93 261.31 942.27 246.19 960 239.57L960 239.57L960 229.17C 936.18 236.5 918.28 256.56 914.76 281.08C 914.75 281.08 914.73 281.08 914.72 281.08L914.72 281.08L914.68 281.6C 914.28 283.97 914.09 286.38 914.09 288.83C 913.99 289.27 913.98 289.71 913.98 290.16L913.98 290.16L914.03 291.05L914.03 291.05L914.07 291.05zM0 287.96C 24.146 280.84 42.329 260.63 45.881 235.9C 45.894 235.89 45.908 235.89 45.921 235.89L45.921 235.89L45.963 235.37C 46.362 233.01 46.554 230.6 46.551 228.15C 46.654 227.71 46.659 227.27 46.659 226.82C 46.659 226.52 46.657 226.22 46.612 225.93L46.612 225.93L46.573 225.93L46.573 225.93L46.571 225.89L46.571 225.89L45.223 226.02C 42.674 226.06 40.164 226.29 37.709 226.73C 37.27 226.69 36.85 226.77 36.432 226.85L36.432 226.85L36.423 226.94C 22.22 229.27 9.5657 235.97 0 245.57L0 245.57L0 261.73C 7.6838 249.4 20.392 240.4 35.37 237.21C 31.668 255.89 18.055 271.15 0 277.62zM102.34 279.77C 80.675 275.15 63.758 258.37 59.563 237.21C 81.231 241.83 98.148 258.61 102.34 279.77zM125.83 279.77C 130.03 258.61 146.94 241.83 168.61 237.21C 164.42 258.37 147.5 275.15 125.83 279.77zM235.58 279.77C 213.91 275.15 197 258.37 192.8 237.21C 214.47 241.83 231.39 258.61 235.58 279.77zM259.07 279.77C 263.27 258.61 280.18 241.83 301.85 237.21C 297.66 258.37 280.74 275.15 259.07 279.77zM368.82 279.77C 347.16 275.15 330.24 258.37 326.04 237.21C 347.71 241.83 364.63 258.61 368.82 279.77zM392.31 279.77C 396.51 258.61 413.42 241.83 435.09 237.21C 430.9 258.37 413.98 275.15 392.31 279.77zM502.06 279.77C 480.4 275.15 463.48 258.37 459.28 237.21C 480.95 241.83 497.87 258.61 502.06 279.77zM525.55 279.77C 529.75 258.61 546.66 241.83 568.33 237.21C 564.14 258.37 547.22 275.15 525.55 279.77zM635.3 279.77C 613.64 275.15 596.72 258.37 592.52 237.21C 614.19 241.83 631.11 258.61 635.3 279.77zM658.79 279.77C 662.99 258.61 679.9 241.83 701.57 237.21C 697.38 258.37 680.46 275.15 658.79 279.77zM768.54 279.77C 746.88 275.15 729.96 258.37 725.76 237.21C 747.43 241.83 764.35 258.61 768.54 279.77zM792.03 279.77C 796.23 258.61 813.14 241.83 834.81 237.21C 830.62 258.37 813.7 275.15 792.03 279.77zM901.78 279.77C 880.12 275.15 863.2 258.37 859 237.21C 880.67 241.83 897.59 258.61 901.78 279.77zM46.571 225.09L46.573 225.05L46.573 225.05L46.612 225.05L46.612 225.05L46.659 224.15C 46.659 223.7 46.654 223.25 46.551 222.81C 46.554 220.34 46.361 217.91 45.963 215.53L45.963 215.53L45.921 215C 45.907 215 45.894 215 45.881 215C 43.959 201.51 37.752 189.35 28.532 180L28.532 180L13.371 180C 24.614 187.92 32.656 199.88 35.37 213.68C 20.391 210.46 7.6831 201.39 0 188.97L0 188.97L0 205.25C 9.5657 214.93 22.22 221.68 36.423 224.03L36.423 224.03L36.432 224.12C 36.85 224.2 37.27 224.28 37.709 224.24C 40.164 224.68 42.676 224.92 45.226 224.96zM48.362 225.09L49.708 224.96C 52.258 224.92 54.769 224.68 57.225 224.24C 57.664 224.28 58.083 224.2 58.501 224.12L58.501 224.12L58.51 224.03C 83.084 219.96 103.02 202.71 110.37 180L110.37 180L99.544 180C 92.978 196.9 77.988 209.72 59.563 213.68C 62.279 199.87 70.328 187.91 81.596 180L81.596 180L66.301 180C 57.157 189.4 50.971 201.53 49.052 215C 49.039 215 49.026 215 49.013 215L49.013 215L48.97 215.53C 48.572 217.91 48.379 220.34 48.382 222.81C 48.279 223.25 48.274 223.7 48.274 224.15L48.274 224.15L48.321 225.05L48.321 225.05L48.36 225.05zM179.81 225.09L179.81 225.05L179.81 225.05L179.85 225.05L179.85 225.05L179.9 224.15C 179.9 223.7 179.89 223.25 179.79 222.81C 179.79 220.34 179.6 217.91 179.2 215.53L179.2 215.53L179.16 215C 179.15 215 179.13 215 179.12 215C 177.2 201.53 171.02 189.4 161.87 180L161.87 180L146.58 180C 157.85 187.91 165.89 199.87 168.61 213.68C 150.19 209.72 135.2 196.9 128.63 180L128.63 180L117.8 180C 125.15 202.71 145.09 219.96 169.66 224.03L169.66 224.03L169.67 224.12C 170.09 224.2 170.51 224.28 170.95 224.24C 173.4 224.68 175.92 224.92 178.47 224.96zM181.6 225.09L182.95 224.96C 185.5 224.92 188.01 224.68 190.46 224.24C 190.9 224.28 191.32 224.2 191.74 224.12L191.74 224.12L191.75 224.03C 216.32 219.96 236.26 202.71 243.61 180L243.61 180L232.78 180C 226.22 196.9 211.23 209.72 192.8 213.68C 195.52 199.87 203.57 187.91 214.84 180L214.84 180L199.54 180C 190.4 189.4 184.21 201.53 182.29 215C 182.28 215 182.27 215 182.25 215L182.25 215L182.21 215.53C 181.81 217.91 181.62 220.34 181.62 222.81C 181.52 223.25 181.51 223.7 181.51 224.15L181.51 224.15L181.56 225.05L181.56 225.05L181.6 225.05zM313.05 225.09L313.05 225.05L313.05 225.05L313.09 225.05L313.09 225.05L313.14 224.15C 313.14 223.7 313.13 223.25 313.03 222.81C 313.03 220.34 312.84 217.91 312.44 215.53L312.44 215.53L312.4 215C 312.39 215 312.37 215 312.36 215C 310.44 201.53 304.26 189.4 295.11 180L295.11 180L279.82 180C 291.09 187.91 299.13 199.87 301.85 213.68C 283.43 209.72 268.44 196.9 261.87 180L261.87 180L251.04 180C 258.39 202.71 278.33 219.96 302.9 224.03L302.9 224.03L302.91 224.12C 303.33 224.2 303.75 224.28 304.19 224.24C 306.64 224.68 309.16 224.92 311.71 224.96zM314.84 225.09L316.19 224.96C 318.74 224.92 321.25 224.68 323.71 224.24C 324.14 224.28 324.56 224.2 324.98 224.12L324.98 224.12L324.99 224.03C 349.56 219.96 369.5 202.71 376.85 180L376.85 180L366.02 180C 359.46 196.9 344.47 209.72 326.04 213.68C 328.76 199.87 336.81 187.91 348.08 180L348.08 180L332.78 180C 323.64 189.4 317.45 201.53 315.53 215C 315.52 215 315.51 215 315.49 215L315.49 215L315.45 215.53C 315.05 217.91 314.86 220.34 314.86 222.81C 314.76 223.25 314.75 223.7 314.75 224.15L314.75 224.15L314.8 225.05L314.8 225.05L314.84 225.05zM446.29 225.09L446.29 225.05L446.29 225.05L446.33 225.05L446.33 225.05L446.38 224.15C 446.38 223.7 446.38 223.25 446.27 222.81C 446.28 220.34 446.08 217.91 445.68 215.53L445.68 215.53L445.64 215C 445.63 215 445.61 215 445.6 215C 443.68 201.53 437.5 189.4 428.35 180L428.35 180L413.06 180C 424.33 187.91 432.37 199.87 435.09 213.68C 416.67 209.72 401.68 196.9 395.11 180L395.11 180L384.28 180C 391.63 202.71 411.57 219.96 436.14 224.03L436.14 224.03L436.15 224.12C 436.57 224.2 436.99 224.28 437.43 224.24C 439.88 224.68 442.4 224.92 444.95 224.96zM448.08 225.09L449.43 224.96C 451.98 224.92 454.49 224.68 456.95 224.24C 457.38 224.28 457.8 224.2 458.22 224.12L458.22 224.12L458.23 224.03C 482.8 219.96 502.74 202.71 510.09 180L510.09 180L499.26 180C 492.7 196.9 477.71 209.72 459.28 213.68C 462 199.87 470.05 187.91 481.32 180L481.32 180L466.02 180C 456.88 189.4 450.69 201.53 448.77 215C 448.76 215 448.75 215 448.73 215L448.73 215L448.69 215.53C 448.29 217.91 448.1 220.34 448.1 222.81C 448 223.25 448 223.7 448 224.15L448 224.15L448.04 225.05L448.04 225.05L448.08 225.05zM579.53 225.09L579.53 225.05L579.53 225.05L579.57 225.05L579.57 225.05L579.62 224.15C 579.62 223.7 579.62 223.25 579.51 222.81C 579.52 220.34 579.32 217.91 578.92 215.53L578.92 215.53L578.88 215C 578.87 215 578.86 215 578.84 215C 576.92 201.53 570.74 189.4 561.59 180L561.59 180L546.3 180C 557.57 187.91 565.62 199.87 568.33 213.68C 549.91 209.72 534.92 196.9 528.35 180L528.35 180L517.52 180C 524.87 202.71 544.81 219.96 569.38 224.03L569.38 224.03L569.39 224.12C 569.81 224.2 570.23 224.28 570.67 224.24C 573.13 224.68 575.64 224.92 578.19 224.96zM581.32 225.09L582.67 224.96C 585.22 224.92 587.73 224.68 590.19 224.24C 590.62 224.28 591.04 224.2 591.46 224.12L591.46 224.12L591.47 224.03C 616.04 219.96 635.98 202.71 643.34 180L643.34 180L632.5 180C 625.94 196.9 610.95 209.72 592.52 213.68C 595.24 199.87 603.29 187.91 614.56 180L614.56 180L599.26 180C 590.12 189.4 583.93 201.53 582.01 215C 582 215 581.99 215 581.97 215L581.97 215L581.93 215.53C 581.53 217.91 581.34 220.34 581.34 222.81C 581.24 223.25 581.24 223.7 581.24 224.15L581.24 224.15L581.28 225.05L581.28 225.05L581.32 225.05zM712.77 225.09L712.77 225.05L712.77 225.05L712.81 225.05L712.81 225.05L712.86 224.15C 712.86 223.7 712.86 223.25 712.75 222.81C 712.76 220.34 712.56 217.91 712.16 215.53L712.16 215.53L712.12 215C 712.11 215 712.1 215 712.08 215C 710.16 201.53 703.98 189.4 694.83 180L694.83 180L679.54 180C 690.81 187.91 698.86 199.87 701.57 213.68C 683.15 209.72 668.16 196.9 661.59 180L661.59 180L650.76 180C 658.11 202.71 678.05 219.96 702.62 224.03L702.62 224.03L702.63 224.12C 703.05 224.2 703.47 224.28 703.91 224.24C 706.37 224.68 708.88 224.92 711.43 224.96zM714.56 225.09L715.91 224.96C 718.46 224.92 720.97 224.68 723.43 224.24C 723.86 224.28 724.28 224.2 724.7 224.12L724.7 224.12L724.71 224.03C 749.28 219.96 769.22 202.71 776.58 180L776.58 180L765.74 180C 759.18 196.9 744.19 209.72 725.76 213.68C 728.48 199.87 736.53 187.91 747.8 180L747.8 180L732.5 180C 723.36 189.4 717.17 201.53 715.25 215C 715.24 215 715.23 215 715.21 215L715.21 215L715.17 215.53C 714.77 217.91 714.58 220.34 714.58 222.81C 714.48 223.25 714.48 223.7 714.48 224.15L714.48 224.15L714.52 225.05L714.52 225.05L714.56 225.05zM846.01 225.09L846.01 225.05L846.01 225.05L846.05 225.05L846.05 225.05L846.1 224.15C 846.1 223.7 846.1 223.25 845.99 222.81C 846 220.34 845.8 217.91 845.4 215.53L845.4 215.53L845.36 215C 845.35 215 845.34 215 845.32 215C 843.4 201.53 837.22 189.4 828.07 180L828.07 180L812.78 180C 824.05 187.91 832.1 199.87 834.81 213.68C 816.39 209.72 801.4 196.9 794.83 180L794.83 180L784 180C 791.35 202.71 811.29 219.96 835.86 224.03L835.86 224.03L835.87 224.12C 836.29 224.2 836.71 224.28 837.15 224.24C 839.61 224.68 842.12 224.92 844.67 224.96zM847.8 225.09L849.15 224.96C 851.7 224.92 854.21 224.68 856.67 224.24C 857.11 224.28 857.52 224.2 857.94 224.12L857.94 224.12L857.95 224.03C 882.53 219.96 902.46 202.71 909.82 180L909.82 180L898.99 180C 892.42 196.9 877.43 209.72 859 213.68C 861.72 199.87 869.77 187.91 881.04 180L881.04 180L865.74 180C 856.6 189.4 850.41 201.53 848.49 215C 848.48 215 848.47 215 848.45 215L848.45 215L848.41 215.53C 848.01 217.91 847.82 220.34 847.82 222.81C 847.72 223.25 847.72 223.7 847.72 224.15L847.72 224.15L847.76 225.05L847.76 225.05L847.8 225.05zM960 221.78L960 211.3C 945.31 205.78 933.64 194.37 928.08 180L928.08 180L917.31 180C 923.66 199.84 939.68 215.48 960 221.78zM960 194.49L960 180L960 180L945.98 180C 951.57 183.88 956.31 188.82 960 194.49z" stroke="none" fill="#FFFFFF" fill-rule="evenodd" /></g><path id="4" transform="matrix(1 0 0 -1 0 540)" d="M660.42 53.46L660.42 125.46" stroke="#2E75B6" stroke-width="1.56" fill="none" /><g clip-path="url(#5)"></g><g clip-path="url(#6)"></g></g></g></svg>