<svg xmlns="http://www.w3.org/2000/svg" xmlns:xlink="http://www.w3.org/1999/xlink" id="body_34" preserveAspectRatio="xMinYMin meet" viewBox="0 0 1280 720"><defs><clipPath id="1"><path id="" clip-rule="evenodd" transform="matrix(1 0 0 1 0 0)" d="M0 540L0 0L0 0L960 0L960 0L960 540L960 540L0 540z" /></clipPath><clipPath id="2"><path id="" clip-rule="evenodd" transform="matrix(1 0 0 1 0 0)" d="M0 0L960 0L960 0L960 540L960 540L0 540z" /></clipPath></defs><g transform="matrix(1.333333 0 0 1.333333 0 0)"><g clip-path="url(#1)"><g clip-path="url(#2)"><path id="1" transform="matrix(1 0 0 -1 0 540)" d="M0 540L960 540L960 540L960 0L960 0L0 0z" stroke="none" fill="#FFFFFF" fill-rule="evenodd" /><path id="2" transform="matrix(1 0 0 -1 0 540)" d="M59.25 474.935L60.75 474.935L60.75 402.935L59.25 402.935z" stroke="none" fill="#5B9BD5" fill-rule="nonzero" /><path id="128" transform="matrix(1 0 0 -1 0 540)" d="M375.6 92.88L488.16 92.88L488.16 92.88L488.16 101.76L488.16 101.76L506.4 83.76001L506.4 83.76001L488.16 65.51999L488.16 65.51999L488.16 74.64001L488.16 74.64001L375.6 74.64001L375.6 74.64001L375.6 92.88" stroke="none" fill="#FFFFFF" fill-rule="evenodd" /><path id="129" transform="matrix(1 0 0 -1 0 540)" d="M375.546 92.14499L376.171 92.76999L376.171 74.56L375.546 75.185L488.245 75.185L488.406 75.16299L488.557 75.10101L488.686 75.00201L488.786 74.87201L488.848 74.72101L488.87 74.56L488.87 65.45499L487.803 65.896L506.013 84.10699L506.013 83.22299L487.803 101.433L488.87 101.875L488.87 92.76999L488.848 92.608L488.786 92.457L488.686 92.328L488.557 92.228L488.406 92.16599L488.245 92.14499L375.546 92.14499M488.245 93.39499L487.62 92.76999L487.62 101.875L487.641 102.036L487.703 102.187L487.803 102.317L487.932 102.416L488.083 102.478L488.245 102.5L488.406 102.478L488.557 102.416L488.686 102.317L506.896 84.10699L506.996 83.97699L507.058 83.82599L507.08 83.66501L507.058 83.50299L506.996 83.35199L506.896 83.22299L488.686 65.013L488.557 64.91299L488.406 64.85101L488.245 64.82999L488.083 64.85101L487.932 64.91299L487.803 65.013L487.703 65.142L487.641 65.293L487.62 65.45499L487.62 74.56L488.245 73.935L375.546 73.935L375.384 73.95599L375.233 74.01801L375.104 74.11801L375.004 74.24701L374.942 74.39801L374.921 74.56L374.921 92.76999L374.942 92.931L375.004 93.082L375.104 93.21201L375.233 93.311L375.384 93.37299L375.546 93.39499L488.245 93.39499z" stroke="none" fill="#4472C4" fill-rule="nonzero" /></g></g></g></svg>