<svg xmlns="http://www.w3.org/2000/svg" xmlns:xlink="http://www.w3.org/1999/xlink" id="body_13" preserveAspectRatio="xMinYMin meet" viewBox="0 0 1280 720"><defs><clipPath id="1"><path id="" clip-rule="evenodd" transform="matrix(1 0 0 1 0 0)" d="M0 540L0 0L0 0L960 0L960 0L960 540L960 540L0 540z" /></clipPath><clipPath id="2"><path id="" clip-rule="evenodd" transform="matrix(1 0 0 1 0 0)" d="M0 0L960 0L960 0L960 540L960 540L0 540z" /></clipPath></defs><g transform="matrix(1.333333 0 0 1.333333 0 0)"><g clip-path="url(#1)"><g clip-path="url(#2)"><path id="1" transform="matrix(1 0 0 -1 0 540)" d="M0 540L960 540L960 540L960 0L960 0L0 0z" stroke="none" fill="#FFFFFF" fill-rule="evenodd" /><path id="2" transform="matrix(1 0 0 -1 0 540)" d="M0 540L960 540L960 540L960 180L960 180L0 180z" stroke="none" fill="#008D40" fill-rule="evenodd" /><path id="3" transform="matrix(1 0 0 -1 0 540)" d="M9.951 540L26.329 540C 36.747 530.452 43.807 517.556 45.881 503.115C 45.894 503.111 45.907 503.111 45.921 503.11L45.921 503.11L45.963 502.588C 46.361 500.225 46.554 497.812 46.551 495.365C 46.654 494.925 46.659 494.482 46.659 494.038C 46.659 493.74 46.657 493.441 46.612 493.144L46.612 493.144L46.573 493.147L46.573 493.147L46.571 493.108L46.571 493.108L45.223 493.235C 42.674 493.277 40.164 493.509 37.709 493.943C 37.27 493.911 36.85 493.985 36.432 494.064L36.432 494.064L36.423 494.153C 22.22 496.486 9.566 503.188 0 512.789L0 512.789L0 528.944C 7.684 516.621 20.392 507.617 35.37 504.423C 32.389 519.463 22.983 532.289 9.951 540M68.541 540L84.975 540C 71.946 532.283 62.543 519.459 59.563 504.423C 78.78 508.52 94.259 522.182 100.393 540L100.393 540L110.945 540C 104.27 516.392 83.855 498.316 58.51 494.153L58.51 494.153L58.501 494.064C 58.083 493.985 57.663 493.911 57.224 493.943C 54.77 493.509 52.259 493.277 49.71 493.235L49.71 493.235L48.362 493.108L48.362 493.108L48.36 493.147L48.36 493.147L48.321 493.144C 48.276 493.441 48.274 493.74 48.274 494.038C 48.274 494.482 48.279 494.925 48.382 495.365C 48.379 497.812 48.572 500.225 48.97 502.588L48.97 502.588L49.012 503.11C 49.026 503.111 49.039 503.111 49.052 503.115C 51.123 517.537 58.167 530.417 68.541 540zM117.228 540L127.781 540C 133.914 522.182 149.394 508.52 168.61 504.423C 165.63 519.459 156.228 532.283 143.199 540L143.199 540L159.632 540C 170.006 530.417 177.05 517.537 179.121 503.115C 179.134 503.111 179.148 503.111 179.161 503.11L179.161 503.11L179.204 502.588C 179.602 500.225 179.795 497.812 179.791 495.365C 179.895 494.925 179.899 494.482 179.899 494.038C 179.899 493.74 179.897 493.441 179.853 493.144L179.853 493.144L179.813 493.147L179.813 493.147L179.811 493.108L179.811 493.108L178.463 493.235C 175.914 493.277 173.404 493.509 170.949 493.943C 170.51 493.911 170.091 493.985 169.672 494.064L169.672 494.064L169.663 494.153C 144.319 498.316 123.904 516.392 117.228 540zM201.781 540L218.215 540C 205.186 532.283 195.784 519.459 192.803 504.423C 212.02 508.52 227.499 522.182 233.633 540L233.633 540L244.185 540C 237.51 516.392 217.095 498.316 191.75 494.153L191.75 494.153L191.741 494.064C 191.323 493.985 190.903 493.911 190.464 493.943C 188.01 493.509 185.5 493.277 182.95 493.235L182.95 493.235L181.602 493.108L181.602 493.108L181.6 493.147L181.6 493.147L181.561 493.144C 181.517 493.441 181.514 493.74 181.514 494.038C 181.514 494.482 181.519 494.925 181.622 495.365C 181.619 497.812 181.812 500.225 182.21 502.588L182.21 502.588L182.253 503.11C 182.266 503.111 182.279 503.111 182.292 503.115C 184.363 517.537 191.408 530.417 201.781 540zM250.468 540L261.021 540C 267.155 522.182 282.634 508.52 301.851 504.423C 298.87 519.459 289.468 532.283 276.439 540L276.439 540L292.873 540C 303.246 530.417 310.29 517.537 312.361 503.115C 312.375 503.111 312.388 503.111 312.401 503.11L312.401 503.11L312.444 502.588C 312.842 500.225 313.035 497.812 313.031 495.365C 313.135 494.925 313.139 494.482 313.139 494.038C 313.139 493.74 313.137 493.441 313.093 493.144L313.093 493.144L313.053 493.147L313.053 493.147L313.051 493.108L313.051 493.108L311.703 493.235C 309.154 493.277 306.644 493.509 304.19 493.943C 303.75 493.911 303.331 493.985 302.913 494.064L302.913 494.064L302.904 494.153C 277.559 498.316 257.144 516.392 250.468 540zM335.021 540L351.455 540C 338.426 532.283 329.024 519.459 326.043 504.423C 345.26 508.52 360.74 522.182 366.873 540L366.873 540L377.426 540C 370.75 516.392 350.335 498.316 324.991 494.153L324.991 494.153L324.981 494.064C 324.563 493.985 324.144 493.911 323.704 493.943C 321.25 493.509 318.74 493.277 316.191 493.235L316.191 493.235L314.843 493.108L314.843 493.108L314.841 493.147L314.841 493.147L314.801 493.144C 314.757 493.441 314.755 493.74 314.755 494.038C 314.755 494.482 314.759 494.925 314.862 495.365C 314.859 497.812 315.052 500.225 315.45 502.588L315.45 502.588L315.493 503.11C 315.506 503.111 315.519 503.111 315.533 503.115C 317.604 517.537 324.648 530.417 335.021 540zM383.709 540L394.261 540C 400.395 522.182 415.874 508.52 435.091 504.423C 432.111 519.459 422.708 532.283 409.679 540L409.679 540L426.113 540C 436.487 530.417 443.531 517.537 445.602 503.115C 445.615 503.111 445.628 503.111 445.641 503.11L445.641 503.11L445.684 502.588C 446.082 500.225 446.275 497.812 446.272 495.365C 446.375 494.925 446.38 494.482 446.38 494.038C 446.38 493.74 446.378 493.441 446.333 493.144L446.333 493.144L446.294 493.147L446.294 493.147L446.292 493.108L446.292 493.108L444.944 493.235C 442.395 493.277 439.884 493.509 437.43 493.943C 436.991 493.911 436.571 493.985 436.153 494.064L436.153 494.064L436.144 494.153C 410.799 498.316 390.384 516.392 383.709 540zM468.262 540L484.695 540C 471.666 532.283 462.264 519.459 459.284 504.423C 478.5 508.52 493.98 522.182 500.113 540L500.113 540L510.666 540C 503.99 516.392 483.575 498.316 458.231 494.153L458.231 494.153L458.222 494.064C 457.803 493.985 457.384 493.911 456.945 493.943C 454.49 493.509 451.98 493.277 449.431 493.235L449.431 493.235L448.083 493.108L448.083 493.108L448.081 493.147L448.081 493.147L448.042 493.144C 447.997 493.441 447.995 493.74 447.995 494.038C 447.995 494.482 447.999 494.925 448.103 495.365C 448.099 497.812 448.292 500.225 448.69 502.588L448.69 502.588L448.733 503.11C 448.746 503.111 448.76 503.111 448.773 503.115C 450.844 517.537 457.888 530.417 468.262 540zM516.949 540L527.501 540C 533.635 522.182 549.114 508.52 568.331 504.423C 565.351 519.459 555.948 532.283 542.919 540L542.919 540L559.353 540C 569.727 530.417 576.771 517.537 578.842 503.115C 578.855 503.111 578.869 503.111 578.882 503.11L578.882 503.11L578.924 502.588C 579.322 500.225 579.515 497.812 579.512 495.365C 579.615 494.925 579.62 494.482 579.62 494.038C 579.62 493.74 579.618 493.441 579.573 493.144L579.573 493.144L579.534 493.147L579.534 493.147L579.532 493.108L579.532 493.108L578.184 493.235C 575.635 493.277 573.125 493.509 570.67 493.943C 570.231 493.911 569.811 493.985 569.393 494.064L569.393 494.064L569.384 494.153C 544.04 498.316 523.624 516.392 516.949 540zM601.502 540L617.936 540C 604.906 532.283 595.504 519.459 592.524 504.423C 611.741 508.52 627.22 522.182 633.354 540L633.354 540L643.906 540C 637.231 516.392 616.815 498.316 591.471 494.153L591.471 494.153L591.462 494.064C 591.044 493.985 590.624 493.911 590.185 493.943C 587.73 493.509 585.22 493.277 582.671 493.235L582.671 493.235L581.323 493.108L581.323 493.108L581.321 493.147L581.321 493.147L581.282 493.144C 581.237 493.441 581.235 493.74 581.235 494.038C 581.235 494.482 581.24 494.925 581.343 495.365C 581.34 497.812 581.533 500.225 581.931 502.588L581.931 502.588L581.973 503.11C 581.987 503.111 582 503.111 582.013 503.115C 584.084 517.537 591.128 530.417 601.502 540zM650.189 540L660.742 540C 666.875 522.182 682.355 508.52 701.571 504.423C 698.591 519.459 689.189 532.283 676.16 540L676.16 540L692.593 540C 702.967 530.417 710.011 517.537 712.082 503.115C 712.095 503.111 712.109 503.111 712.122 503.11L712.122 503.11L712.164 502.588C 712.563 500.225 712.756 497.812 712.752 495.365C 712.855 494.925 712.86 494.482 712.86 494.038C 712.86 493.74 712.858 493.441 712.813 493.144L712.813 493.144L712.774 493.147L712.774 493.147L712.772 493.108L712.772 493.108L711.424 493.235C 708.875 493.277 706.365 493.509 703.91 493.943C 703.471 493.911 703.052 493.985 702.633 494.064L702.633 494.064L702.624 494.153C 677.28 498.316 656.865 516.392 650.189 540zM734.742 540L751.176 540C 738.147 532.283 728.744 519.459 725.764 504.423C 744.981 508.52 760.46 522.182 766.594 540L766.594 540L777.146 540C 770.471 516.392 750.056 498.316 724.711 494.153L724.711 494.153L724.702 494.064C 724.284 493.985 723.864 493.911 723.425 493.943C 720.971 493.509 718.46 493.277 715.911 493.235L715.911 493.235L714.563 493.108L714.563 493.108L714.561 493.147L714.561 493.147L714.522 493.144C 714.477 493.441 714.475 493.74 714.475 494.038C 714.475 494.482 714.48 494.925 714.583 495.365C 714.58 497.812 714.773 500.225 715.171 502.588L715.171 502.588L715.214 503.11C 715.227 503.111 715.24 503.111 715.253 503.115C 717.324 517.537 724.368 530.417 734.742 540zM783.429 540L793.982 540C 800.115 522.182 815.595 508.52 834.812 504.423C 831.831 519.459 822.429 532.283 809.4 540L809.4 540L825.834 540C 836.207 530.417 843.251 517.537 845.322 503.115C 845.336 503.111 845.349 503.111 845.362 503.11L845.362 503.11L845.405 502.588C 845.803 500.225 845.996 497.812 845.992 495.365C 846.096 494.925 846.1 494.482 846.1 494.038C 846.1 493.74 846.098 493.441 846.054 493.144L846.054 493.144L846.014 493.147L846.014 493.147L846.012 493.108L846.012 493.108L844.664 493.235C 842.115 493.277 839.605 493.509 837.15 493.943C 836.711 493.911 836.292 493.985 835.874 494.064L835.874 494.064L835.864 494.153C 810.52 498.316 790.105 516.392 783.429 540zM867.982 540L884.416 540C 871.387 532.283 861.985 519.459 859.004 504.423C 878.221 508.52 893.701 522.182 899.834 540L899.834 540L910.387 540C 903.711 516.392 883.296 498.316 857.952 494.153L857.952 494.153L857.942 494.064C 857.524 493.985 857.105 493.911 856.666 493.943C 854.211 493.509 851.701 493.277 849.152 493.235L849.152 493.235L847.804 493.108L847.804 493.108L847.802 493.147L847.802 493.147L847.762 493.144C 847.718 493.441 847.716 493.74 847.716 494.038C 847.716 494.482 847.72 494.925 847.824 495.365C 847.82 497.812 848.013 500.225 848.411 502.588L848.411 502.588L848.454 503.11C 848.467 503.111 848.481 503.111 848.494 503.115C 850.565 517.537 857.609 530.417 867.982 540zM916.59 540L927.184 540C 932.459 524.753 944.564 512.546 960 506.785L960 506.785L960 496.391C 938.931 502.866 922.497 519.309 916.59 540zM942.442 540L959.063 540C 959.416 539.78 959.709 539.497 960 539.211L960 539.211L960 523.464C 955.564 530.236 949.589 535.953 942.442 540zM46.571 492.302L46.573 492.263L46.573 492.263L46.612 492.265L46.612 492.265L46.659 491.365C 46.659 490.917 46.654 490.471 46.551 490.028C 46.554 487.561 46.361 485.128 45.963 482.746L45.963 482.746L45.921 482.221C 45.907 482.22 45.894 482.22 45.881 482.216C 42.329 457.284 24.147 436.923 0 429.742L0 429.742L0 440.162C 18.055 446.685 31.668 462.07 35.37 480.898C 20.391 477.678 7.683 468.602 0 456.182L0 456.182L0 472.465C 9.566 482.143 22.22 488.898 36.423 491.249L36.423 491.249L36.432 491.339C 36.85 491.418 37.27 491.493 37.709 491.46C 40.164 491.898 42.675 492.132 45.226 492.174L45.226 492.174L46.571 492.302zM579.532 492.302L579.534 492.263L579.534 492.263L579.573 492.265L579.573 492.265L579.62 491.365C 579.62 490.917 579.615 490.471 579.512 490.028C 579.515 487.561 579.322 485.128 578.924 482.746L578.924 482.746L578.882 482.221C 578.868 482.22 578.855 482.22 578.842 482.216C 574.883 454.431 552.754 432.323 524.498 427.646L524.498 427.646L524.489 427.555C 524.071 427.476 523.651 427.401 523.212 427.434C 520.758 426.997 518.247 426.762 515.698 426.72L515.698 426.72L514.35 426.592L514.35 426.592L514.348 426.631L514.348 426.631L514.309 426.629C 514.264 426.928 514.262 427.229 514.262 427.529C 514.262 427.977 514.267 428.423 514.37 428.867C 514.367 431.333 514.56 433.765 514.958 436.147L514.958 436.147L515 436.673C 515.014 436.674 515.027 436.674 515.04 436.678C 518.999 464.463 541.128 486.571 569.384 491.249L569.384 491.249L569.393 491.339C 569.811 491.418 570.231 491.493 570.67 491.46C 573.125 491.898 575.636 492.132 578.186 492.174L578.186 492.174L579.532 492.302zM48.362 492.302L49.708 492.174C 52.258 492.132 54.769 491.898 57.224 491.46C 57.664 491.493 58.083 491.418 58.501 491.339L58.501 491.339L58.51 491.249C 86.766 486.571 108.895 464.463 112.854 436.678C 112.867 436.674 112.881 436.674 112.894 436.673L112.894 436.673L112.936 436.147C 113.335 433.765 113.527 431.333 113.524 428.867C 113.627 428.423 113.632 427.977 113.632 427.529C 113.632 427.229 113.63 426.928 113.585 426.629L113.585 426.629L113.546 426.631L113.546 426.631L113.544 426.592L113.544 426.592L112.196 426.72C 109.647 426.762 107.137 426.997 104.682 427.434C 104.243 427.401 103.823 427.476 103.405 427.555L103.405 427.555L103.396 427.646C 75.14 432.323 53.011 454.431 49.052 482.216C 49.039 482.22 49.026 482.22 49.013 482.221L49.013 482.221L48.97 482.746C 48.572 485.128 48.379 487.561 48.382 490.028C 48.279 490.471 48.274 490.917 48.274 491.365L48.274 491.365L48.321 492.265L48.321 492.265L48.36 492.263L48.36 492.263L48.362 492.302zM179.811 492.302L179.813 492.263L179.813 492.263L179.852 492.265L179.852 492.265L179.899 491.365C 179.899 490.917 179.895 490.471 179.791 490.028C 179.795 487.561 179.602 485.128 179.203 482.746L179.203 482.746L179.161 482.221C 179.148 482.22 179.134 482.22 179.121 482.216C 175.162 454.431 153.033 432.323 124.777 427.646L124.777 427.646L124.768 427.555C 124.35 427.476 123.93 427.401 123.491 427.434C 121.037 426.997 118.527 426.762 115.977 426.72L115.977 426.72L114.63 426.592L114.63 426.592L114.627 426.631L114.627 426.631L114.588 426.629C 114.544 426.928 114.541 427.229 114.541 427.529C 114.541 427.977 114.546 428.423 114.649 428.867C 114.646 431.333 114.839 433.765 115.237 436.147L115.237 436.147L115.28 436.673C 115.293 436.674 115.306 436.674 115.319 436.678C 119.278 464.463 141.407 486.571 169.663 491.249L169.663 491.249L169.672 491.339C 170.09 491.418 170.51 491.493 170.949 491.46C 173.404 491.898 175.916 492.132 178.466 492.174L178.466 492.174L179.811 492.302zM181.603 492.302L182.948 492.174C 185.498 492.132 188.009 491.898 190.465 491.46C 190.904 491.493 191.323 491.418 191.741 491.339L191.741 491.339L191.751 491.249C 220.006 486.571 242.135 464.463 246.094 436.678C 246.107 436.674 246.121 436.674 246.134 436.673L246.134 436.673L246.177 436.147C 246.575 433.765 246.768 431.333 246.764 428.867C 246.868 428.423 246.872 427.977 246.872 427.529C 246.872 427.229 246.87 426.928 246.826 426.629L246.826 426.629L246.786 426.631L246.786 426.631L246.784 426.592L246.784 426.592L245.436 426.72C 242.887 426.762 240.377 426.997 237.922 427.434C 237.483 427.401 237.064 427.476 236.645 427.555L236.645 427.555L236.636 427.646C 208.38 432.323 186.251 454.431 182.293 482.216C 182.279 482.22 182.266 482.22 182.253 482.221L182.253 482.221L182.21 482.746C 181.812 485.128 181.619 487.561 181.622 490.028C 181.519 490.471 181.515 490.917 181.515 491.365L181.515 491.365L181.561 492.265L181.561 492.265L181.601 492.263L181.601 492.263L181.603 492.302zM313.051 492.302L313.053 492.263L313.053 492.263L313.093 492.265L313.093 492.265L313.139 491.365C 313.139 490.917 313.135 490.471 313.031 490.028C 313.035 487.561 312.842 485.128 312.444 482.746L312.444 482.746L312.401 482.221C 312.388 482.22 312.375 482.22 312.361 482.216C 308.403 454.431 286.274 432.323 258.018 427.646L258.018 427.646L258.008 427.555C 257.59 427.476 257.171 427.401 256.732 427.434C 254.277 426.997 251.767 426.762 249.218 426.72L249.218 426.72L247.87 426.592L247.87 426.592L247.868 426.631L247.868 426.631L247.828 426.629C 247.784 426.928 247.782 427.229 247.782 427.529C 247.782 427.977 247.786 428.423 247.89 428.867C 247.886 431.333 248.079 433.765 248.477 436.147L248.477 436.147L248.52 436.673C 248.533 436.674 248.547 436.674 248.56 436.678C 252.518 464.463 274.648 486.571 302.903 491.249L302.903 491.249L302.913 491.339C 303.331 491.418 303.75 491.493 304.189 491.46C 306.645 491.898 309.156 492.132 311.706 492.174L311.706 492.174L313.051 492.302zM314.843 492.302L316.188 492.174C 318.738 492.132 321.25 491.898 323.705 491.46C 324.144 491.493 324.564 491.418 324.981 491.339L324.981 491.339L324.991 491.249C 353.247 486.571 375.376 464.463 379.334 436.678C 379.348 436.674 379.361 436.674 379.374 436.673L379.374 436.673L379.417 436.147C 379.815 433.765 380.008 431.333 380.005 428.867C 380.108 428.423 380.112 427.977 380.112 427.529C 380.112 427.229 380.11 426.928 380.066 426.629L380.066 426.629L380.026 426.631L380.026 426.631L380.024 426.592L380.024 426.592L378.676 426.72C 376.127 426.762 373.617 426.997 371.163 427.434C 370.724 427.401 370.304 427.476 369.886 427.555L369.886 427.555L369.877 427.646C 341.621 432.323 319.492 454.431 315.533 482.216C 315.52 482.22 315.506 482.22 315.493 482.221L315.493 482.221L315.451 482.746C 315.052 485.128 314.859 487.561 314.863 490.028C 314.759 490.471 314.755 490.917 314.755 491.365L314.755 491.365L314.802 492.265L314.802 492.265L314.841 492.263L314.841 492.263L314.843 492.302zM446.292 492.302L446.294 492.263L446.294 492.263L446.333 492.265L446.333 492.265L446.38 491.365C 446.38 490.917 446.375 490.471 446.272 490.028C 446.275 487.561 446.082 485.128 445.684 482.746L445.684 482.746L445.641 482.221C 445.628 482.22 445.615 482.22 445.602 482.216C 441.643 454.431 419.514 432.323 391.258 427.646L391.258 427.646L391.249 427.555C 390.831 427.476 390.411 427.401 389.972 427.434C 387.517 426.997 385.007 426.762 382.458 426.72L382.458 426.72L381.11 426.592L381.11 426.592L381.108 426.631L381.108 426.631L381.069 426.629C 381.024 426.928 381.022 427.229 381.022 427.529C 381.022 427.977 381.026 428.423 381.13 428.867C 381.126 431.333 381.319 433.765 381.717 436.147L381.717 436.147L381.76 436.673C 381.773 436.674 381.787 436.674 381.8 436.678C 385.759 464.463 407.888 486.571 436.144 491.249L436.144 491.249L436.153 491.339C 436.571 491.418 436.99 491.493 437.429 491.46C 439.885 491.898 442.396 492.132 444.946 492.174L444.946 492.174L446.292 492.302zM448.083 492.302L449.428 492.174C 451.979 492.132 454.49 491.898 456.945 491.46C 457.384 491.493 457.804 491.418 458.222 491.339L458.222 491.339L458.231 491.249C 486.487 486.571 508.616 464.463 512.575 436.678C 512.588 436.674 512.601 436.674 512.615 436.673L512.615 436.673L512.657 436.147C 513.055 433.765 513.248 431.333 513.245 428.867C 513.348 428.423 513.353 427.977 513.353 427.529C 513.353 427.229 513.351 426.928 513.306 426.629L513.306 426.629L513.267 426.631L513.267 426.631L513.265 426.592L513.265 426.592L511.917 426.72C 509.368 426.762 506.857 426.997 504.403 427.434C 503.964 427.401 503.544 427.476 503.126 427.555L503.126 427.555L503.117 427.646C 474.861 432.323 452.732 454.431 448.773 482.216C 448.76 482.22 448.747 482.22 448.733 482.221L448.733 482.221L448.691 482.746C 448.293 485.128 448.1 487.561 448.103 490.028C 448 490.471 447.995 490.917 447.995 491.365L447.995 491.365L448.042 492.265L448.042 492.265L448.081 492.263L448.081 492.263L448.083 492.302zM581.323 492.302L582.669 492.174C 585.219 492.132 587.73 491.898 590.185 491.46C 590.624 491.493 591.044 491.418 591.462 491.339L591.462 491.339L591.471 491.249C 619.727 486.571 641.856 464.463 645.815 436.678C 645.828 436.674 645.842 436.674 645.855 436.673L645.855 436.673L645.897 436.147C 646.296 433.765 646.488 431.333 646.485 428.867C 646.588 428.423 646.593 427.977 646.593 427.529C 646.593 427.229 646.591 426.928 646.546 426.629L646.546 426.629L646.507 426.631L646.507 426.631L646.505 426.592L646.505 426.592L645.157 426.72C 642.608 426.762 640.098 426.997 637.643 427.434C 637.204 427.401 636.784 427.476 636.366 427.555L636.366 427.555L636.357 427.646C 608.101 432.323 585.972 454.431 582.013 482.216C 582 482.22 581.987 482.22 581.974 482.221L581.974 482.221L581.931 482.746C 581.533 485.128 581.34 487.561 581.343 490.028C 581.24 490.471 581.235 490.917 581.235 491.365L581.235 491.365L581.282 492.265L581.282 492.265L581.321 492.263L581.321 492.263L581.323 492.302zM712.772 492.302L712.774 492.263L712.774 492.263L712.813 492.265L712.813 492.265L712.86 491.365C 712.86 490.917 712.855 490.471 712.752 490.028C 712.756 487.561 712.563 485.128 712.164 482.746L712.164 482.746L712.122 482.221C 712.109 482.22 712.095 482.22 712.082 482.216C 708.123 454.431 685.994 432.323 657.738 427.646L657.738 427.646L657.729 427.555C 657.311 427.476 656.891 427.401 656.452 427.434C 653.998 426.997 651.488 426.762 648.938 426.72L648.938 426.72L647.59 426.592L647.59 426.592L647.588 426.631L647.588 426.631L647.549 426.629C 647.505 426.928 647.502 427.229 647.502 427.529C 647.502 427.977 647.507 428.423 647.61 428.867C 647.607 431.333 647.8 433.765 648.198 436.147L648.198 436.147L648.241 436.673C 648.254 436.674 648.267 436.674 648.28 436.678C 652.239 464.463 674.368 486.571 702.624 491.249L702.624 491.249L702.633 491.339C 703.051 491.418 703.471 491.493 703.91 491.46C 706.365 491.898 708.877 492.132 711.427 492.174L711.427 492.174L712.772 492.302zM714.564 492.302L715.909 492.174C 718.459 492.132 720.97 491.898 723.426 491.46C 723.865 491.493 724.284 491.418 724.702 491.339L724.702 491.339L724.711 491.249C 752.967 486.571 775.096 464.463 779.055 436.678C 779.068 436.674 779.082 436.674 779.095 436.673L779.095 436.673L779.138 436.147C 779.536 433.765 779.729 431.333 779.725 428.867C 779.829 428.423 779.833 427.977 779.833 427.529C 779.833 427.229 779.831 426.928 779.786 426.629L779.786 426.629L779.747 426.631L779.747 426.631L779.745 426.592L779.745 426.592L778.397 426.72C 775.848 426.762 773.338 426.997 770.883 427.434C 770.444 427.401 770.025 427.476 769.606 427.555L769.606 427.555L769.597 427.646C 741.341 432.323 719.212 454.431 715.254 482.216C 715.24 482.22 715.227 482.22 715.214 482.221L715.214 482.221L715.171 482.746C 714.773 485.128 714.58 487.561 714.583 490.028C 714.48 490.471 714.475 490.917 714.475 491.365L714.475 491.365L714.522 492.265L714.522 492.265L714.561 492.263L714.561 492.263L714.564 492.302zM846.012 492.302L846.014 492.263L846.014 492.263L846.054 492.265L846.054 492.265L846.1 491.365C 846.1 490.917 846.096 490.471 845.992 490.028C 845.996 487.561 845.803 485.128 845.404 482.746L845.404 482.746L845.362 482.221C 845.349 482.22 845.335 482.22 845.322 482.216C 841.364 454.431 819.235 432.323 790.979 427.646L790.979 427.646L790.969 427.555C 790.551 427.476 790.132 427.401 789.692 427.434C 787.238 426.997 784.728 426.762 782.179 426.72L782.179 426.72L780.831 426.592L780.831 426.592L780.829 426.631L780.829 426.631L780.789 426.629C 780.745 426.928 780.743 427.229 780.743 427.529C 780.743 427.977 780.747 428.423 780.851 428.867C 780.847 431.333 781.04 433.765 781.438 436.147L781.438 436.147L781.481 436.673C 781.494 436.674 781.507 436.674 781.521 436.678C 785.479 464.463 807.608 486.571 835.864 491.249L835.864 491.249L835.874 491.339C 836.292 491.418 836.711 491.493 837.15 491.46C 839.606 491.898 842.117 492.132 844.667 492.174L844.667 492.174L846.012 492.302zM847.804 492.302L849.149 492.174C 851.699 492.132 854.211 491.898 856.666 491.46C 857.105 491.493 857.525 491.418 857.943 491.339L857.943 491.339L857.952 491.249C 886.208 486.571 908.337 464.463 912.296 436.678C 912.309 436.674 912.322 436.674 912.335 436.673L912.335 436.673L912.378 436.147C 912.776 433.765 912.969 431.333 912.966 428.867C 913.069 428.423 913.074 427.977 913.074 427.529C 913.074 427.229 913.071 426.928 913.027 426.629L913.027 426.629L912.988 426.631L912.988 426.631L912.986 426.592L912.986 426.592L911.638 426.72C 909.088 426.762 906.578 426.997 904.124 427.434C 903.685 427.401 903.265 427.476 902.847 427.555L902.847 427.555L902.838 427.646C 874.582 432.323 852.453 454.431 848.494 482.216C 848.481 482.22 848.468 482.22 848.454 482.221L848.454 482.221L848.412 482.746C 848.013 485.128 847.82 487.561 847.824 490.028C 847.721 490.471 847.716 490.917 847.716 491.365L847.716 491.365L847.763 492.265L847.763 492.265L847.802 492.263L847.802 492.263L847.804 492.302zM960 488.993L960 478.517C 942.268 471.846 928.931 456.602 925.272 437.996C 939.841 441.128 952.263 449.8 960 461.706L960 461.706L960 445.834C 950.533 436.464 938.117 429.946 924.219 427.646L924.219 427.646L924.21 427.555C 923.792 427.476 923.372 427.401 922.933 427.434C 920.478 426.997 917.968 426.762 915.419 426.72L915.419 426.72L914.071 426.592L914.071 426.592L914.069 426.631L914.069 426.631L914.03 426.629C 913.985 426.928 913.983 427.229 913.983 427.529C 913.983 427.977 913.988 428.423 914.091 428.867C 914.088 431.333 914.281 433.765 914.679 436.147L914.679 436.147L914.721 436.673C 914.735 436.674 914.748 436.674 914.761 436.678C 918.282 461.391 936.178 481.614 960 488.993zM59.563 480.898C 63.758 459.566 80.675 442.653 102.343 437.996C 98.148 459.328 81.232 476.241 59.563 480.898zM168.61 480.898C 146.942 476.241 130.025 459.328 125.83 437.996C 147.499 442.653 164.415 459.566 168.61 480.898zM192.803 480.898C 196.998 459.566 213.915 442.653 235.584 437.996C 231.389 459.328 214.472 476.241 192.803 480.898zM301.851 480.898C 280.182 476.241 263.265 459.328 259.07 437.996C 280.739 442.653 297.656 459.566 301.851 480.898zM326.044 480.898C 330.238 459.566 347.155 442.653 368.824 437.996C 364.629 459.328 347.712 476.241 326.044 480.898zM435.091 480.898C 413.422 476.241 396.506 459.328 392.311 437.996C 413.979 442.653 430.896 459.566 435.091 480.898zM459.284 480.898C 463.479 459.566 480.395 442.653 502.064 437.996C 497.869 459.328 480.952 476.241 459.284 480.898zM568.331 480.898C 546.663 476.241 529.746 459.328 525.551 437.996C 547.219 442.653 564.136 459.566 568.331 480.898zM592.524 480.898C 596.719 459.566 613.636 442.653 635.304 437.996C 631.109 459.328 614.193 476.241 592.524 480.898zM701.571 480.898C 679.903 476.241 662.986 459.328 658.791 437.996C 680.46 442.653 697.376 459.566 701.571 480.898zM725.764 480.898C 729.959 459.566 746.876 442.653 768.544 437.996C 764.35 459.328 747.433 476.241 725.764 480.898zM834.812 480.898C 813.143 476.241 796.226 459.328 792.031 437.996C 813.7 442.653 830.617 459.566 834.812 480.898zM859.005 480.898C 863.2 459.566 880.116 442.653 901.785 437.996C 897.59 459.328 880.673 476.241 859.005 480.898zM113.544 424.693L113.546 424.655L113.546 424.655L113.585 424.657L113.585 424.657L113.632 423.764C 113.632 423.32 113.627 422.877 113.524 422.437C 113.527 419.99 113.334 417.576 112.936 415.213L112.936 415.213L112.894 414.691C 112.88 414.691 112.867 414.691 112.854 414.687C 108.895 387.12 86.766 365.185 58.51 360.545L58.51 360.545L58.501 360.455C 58.083 360.376 57.663 360.302 57.224 360.335C 54.77 359.901 52.259 359.668 49.71 359.627L49.71 359.627L48.362 359.5L48.362 359.5L48.36 359.539L48.36 359.539L48.321 359.536C 48.276 359.833 48.274 360.131 48.274 360.43C 48.274 360.874 48.279 361.317 48.382 361.756C 48.379 364.204 48.572 366.617 48.97 368.979L48.97 368.979L49.012 369.502C 49.026 369.502 49.039 369.503 49.052 369.507C 53.011 397.073 75.14 419.008 103.396 423.649L103.396 423.649L103.405 423.738C 103.823 423.817 104.243 423.891 104.682 423.858C 107.137 424.293 109.648 424.525 112.198 424.567L112.198 424.567L113.544 424.693zM114.63 424.693L115.975 424.567C 118.525 424.525 121.036 424.293 123.492 423.858C 123.931 423.891 124.35 423.817 124.768 423.738L124.768 423.738L124.777 423.649C 153.033 419.008 175.162 397.073 179.121 369.507C 179.134 369.503 179.148 369.502 179.161 369.502L179.161 369.502L179.204 368.979C 179.602 366.617 179.795 364.204 179.791 361.756C 179.895 361.317 179.899 360.874 179.899 360.43C 179.899 360.131 179.897 359.833 179.853 359.536L179.853 359.536L179.813 359.539L179.813 359.539L179.811 359.5L179.811 359.5L178.463 359.627C 175.914 359.668 173.404 359.901 170.949 360.335C 170.51 360.302 170.091 360.376 169.672 360.455L169.672 360.455L169.663 360.545C 141.407 365.185 119.278 387.12 115.32 414.687C 115.306 414.691 115.293 414.691 115.28 414.691L115.28 414.691L115.237 415.213C 114.839 417.576 114.646 419.99 114.649 422.437C 114.546 422.877 114.541 423.32 114.541 423.764L114.541 423.764L114.588 424.657L114.588 424.657L114.627 424.655L114.627 424.655L114.63 424.693zM246.784 424.693L246.786 424.655L246.786 424.655L246.825 424.657L246.825 424.657L246.872 423.764C 246.872 423.32 246.867 422.877 246.764 422.437C 246.767 419.99 246.575 417.576 246.176 415.213L246.176 415.213L246.134 414.691C 246.12 414.691 246.107 414.691 246.094 414.687C 242.135 387.12 220.006 365.185 191.75 360.545L191.75 360.545L191.741 360.455C 191.323 360.376 190.903 360.302 190.464 360.335C 188.01 359.901 185.5 359.668 182.95 359.627L182.95 359.627L181.602 359.5L181.602 359.5L181.6 359.539L181.6 359.539L181.561 359.536C 181.517 359.833 181.514 360.131 181.514 360.43C 181.514 360.874 181.519 361.317 181.622 361.756C 181.619 364.204 181.812 366.617 182.21 368.979L182.21 368.979L182.253 369.502C 182.266 369.502 182.279 369.503 182.292 369.507C 186.251 397.073 208.38 419.008 236.636 423.649L236.636 423.649L236.645 423.738C 237.063 423.817 237.483 423.891 237.922 423.858C 240.377 424.293 242.889 424.525 245.439 424.567L245.439 424.567L246.784 424.693zM247.87 424.693L249.215 424.567C 251.765 424.525 254.276 424.293 256.732 423.858C 257.171 423.891 257.59 423.817 258.008 423.738L258.008 423.738L258.018 423.649C 286.274 419.008 308.403 397.073 312.361 369.507C 312.375 369.503 312.388 369.502 312.401 369.502L312.401 369.502L312.444 368.979C 312.842 366.617 313.035 364.204 313.031 361.756C 313.135 361.317 313.139 360.874 313.139 360.43C 313.139 360.131 313.137 359.833 313.093 359.536L313.093 359.536L313.053 359.539L313.053 359.539L313.051 359.5L313.051 359.5L311.703 359.627C 309.154 359.668 306.644 359.901 304.19 360.335C 303.75 360.302 303.331 360.376 302.913 360.455L302.913 360.455L302.904 360.545C 274.648 365.185 252.518 387.12 248.56 414.687C 248.547 414.691 248.533 414.691 248.52 414.691L248.52 414.691L248.478 415.213C 248.079 417.576 247.886 419.99 247.89 422.437C 247.786 422.877 247.782 423.32 247.782 423.764L247.782 423.764L247.828 424.657L247.828 424.657L247.868 424.655L247.868 424.655L247.87 424.693zM380.024 424.693L380.026 424.655L380.026 424.655L380.066 424.657L380.066 424.657L380.112 423.764C 380.112 423.32 380.108 422.877 380.004 422.437C 380.008 419.99 379.815 417.576 379.416 415.213L379.416 415.213L379.374 414.691C 379.361 414.691 379.347 414.691 379.334 414.687C 375.376 387.12 353.246 365.185 324.991 360.545L324.991 360.545L324.981 360.455C 324.563 360.376 324.144 360.302 323.704 360.335C 321.25 359.901 318.74 359.668 316.191 359.627L316.191 359.627L314.843 359.5L314.843 359.5L314.841 359.539L314.841 359.539L314.801 359.536C 314.757 359.833 314.755 360.131 314.755 360.43C 314.755 360.874 314.759 361.317 314.862 361.756C 314.859 364.204 315.052 366.617 315.45 368.979L315.45 368.979L315.493 369.502C 315.506 369.502 315.519 369.503 315.533 369.507C 319.491 397.073 341.62 419.008 369.876 423.649L369.876 423.649L369.886 423.738C 370.304 423.817 370.723 423.891 371.162 423.858C 373.618 424.293 376.129 424.525 378.679 424.567L378.679 424.567L380.024 424.693zM381.11 424.693L382.455 424.567C 385.005 424.525 387.517 424.293 389.972 423.858C 390.411 423.891 390.831 423.817 391.249 423.738L391.249 423.738L391.258 423.649C 419.514 419.008 441.643 397.073 445.602 369.507C 445.615 369.503 445.628 369.502 445.641 369.502L445.641 369.502L445.684 368.979C 446.082 366.617 446.275 364.204 446.272 361.756C 446.375 361.317 446.38 360.874 446.38 360.43C 446.38 360.131 446.378 359.833 446.333 359.536L446.333 359.536L446.294 359.539L446.294 359.539L446.292 359.5L446.292 359.5L444.944 359.627C 442.395 359.668 439.884 359.901 437.43 360.335C 436.991 360.302 436.571 360.376 436.153 360.455L436.153 360.455L436.144 360.545C 407.888 365.185 385.759 387.12 381.8 414.687C 381.787 414.691 381.774 414.691 381.76 414.691L381.76 414.691L381.718 415.213C 381.319 417.576 381.126 419.99 381.13 422.437C 381.026 422.877 381.022 423.32 381.022 423.764L381.022 423.764L381.069 424.657L381.069 424.657L381.108 424.655L381.108 424.655L381.11 424.693zM513.265 424.693L513.267 424.655L513.267 424.655L513.306 424.657L513.306 424.657L513.353 423.764C 513.353 423.32 513.348 422.877 513.245 422.437C 513.248 419.99 513.055 417.576 512.657 415.213L512.657 415.213L512.614 414.691C 512.601 414.691 512.588 414.691 512.574 414.687C 508.616 387.12 486.487 365.185 458.231 360.545L458.231 360.545L458.222 360.455C 457.803 360.376 457.384 360.302 456.945 360.335C 454.49 359.901 451.98 359.668 449.431 359.627L449.431 359.627L448.083 359.5L448.083 359.5L448.081 359.539L448.081 359.539L448.042 359.536C 447.997 359.833 447.995 360.131 447.995 360.43C 447.995 360.874 447.999 361.317 448.103 361.756C 448.099 364.204 448.292 366.617 448.69 368.979L448.69 368.979L448.733 369.502C 448.746 369.502 448.76 369.503 448.773 369.507C 452.732 397.073 474.861 419.008 503.117 423.649L503.117 423.649L503.126 423.738C 503.544 423.817 503.963 423.891 504.402 423.858C 506.858 424.293 509.369 424.525 511.919 424.567L511.919 424.567L513.265 424.693zM514.35 424.693L515.696 424.567C 518.246 424.525 520.757 424.293 523.212 423.858C 523.651 423.891 524.071 423.817 524.489 423.738L524.489 423.738L524.498 423.649C 552.754 419.008 574.883 397.073 578.842 369.507C 578.855 369.503 578.869 369.502 578.882 369.502L578.882 369.502L578.924 368.979C 579.322 366.617 579.515 364.204 579.512 361.756C 579.615 361.317 579.62 360.874 579.62 360.43C 579.62 360.131 579.618 359.833 579.573 359.536L579.573 359.536L579.534 359.539L579.534 359.539L579.532 359.5L579.532 359.5L578.184 359.627C 575.635 359.668 573.125 359.901 570.67 360.335C 570.231 360.302 569.811 360.376 569.393 360.455L569.393 360.455L569.384 360.545C 541.128 365.185 518.999 387.12 515.04 414.687C 515.027 414.691 515.014 414.691 515 414.691L515 414.691L514.958 415.213C 514.56 417.576 514.367 419.99 514.37 422.437C 514.267 422.877 514.262 423.32 514.262 423.764L514.262 423.764L514.309 424.657L514.309 424.657L514.348 424.655L514.348 424.655L514.35 424.693zM646.505 424.693L646.507 424.655L646.507 424.655L646.546 424.657L646.546 424.657L646.593 423.764C 646.593 423.32 646.588 422.877 646.485 422.437C 646.488 419.99 646.295 417.576 645.897 415.213L645.897 415.213L645.855 414.691C 645.841 414.691 645.828 414.691 645.815 414.687C 641.856 387.12 619.727 365.185 591.471 360.545L591.471 360.545L591.462 360.455C 591.044 360.376 590.624 360.302 590.185 360.335C 587.73 359.901 585.22 359.668 582.671 359.627L582.671 359.627L581.323 359.5L581.323 359.5L581.321 359.539L581.321 359.539L581.282 359.536C 581.237 359.833 581.235 360.131 581.235 360.43C 581.235 360.874 581.24 361.317 581.343 361.756C 581.34 364.204 581.533 366.617 581.931 368.979L581.931 368.979L581.973 369.502C 581.987 369.502 582 369.503 582.013 369.507C 585.972 397.073 608.101 419.008 636.357 423.649L636.357 423.649L636.366 423.738C 636.784 423.817 637.204 423.891 637.643 423.858C 640.098 424.293 642.609 424.525 645.159 424.567L645.159 424.567L646.505 424.693zM647.59 424.693L648.936 424.567C 651.486 424.525 653.997 424.293 656.453 423.858C 656.892 423.891 657.311 423.817 657.729 423.738L657.729 423.738L657.738 423.649C 685.994 419.008 708.123 397.073 712.082 369.507C 712.095 369.503 712.109 369.502 712.122 369.502L712.122 369.502L712.164 368.979C 712.563 366.617 712.756 364.204 712.752 361.756C 712.855 361.317 712.86 360.874 712.86 360.43C 712.86 360.131 712.858 359.833 712.813 359.536L712.813 359.536L712.774 359.539L712.774 359.539L712.772 359.5L712.772 359.5L711.424 359.627C 708.875 359.668 706.365 359.901 703.91 360.335C 703.471 360.302 703.052 360.376 702.633 360.455L702.633 360.455L702.624 360.545C 674.368 365.185 652.239 387.12 648.281 414.687C 648.267 414.691 648.254 414.691 648.241 414.691L648.241 414.691L648.198 415.213C 647.8 417.576 647.607 419.99 647.61 422.437C 647.507 422.877 647.502 423.32 647.502 423.764L647.502 423.764L647.549 424.657L647.549 424.657L647.588 424.655L647.588 424.655L647.59 424.693zM779.745 424.693L779.747 424.655L779.747 424.655L779.786 424.657L779.786 424.657L779.833 423.764C 779.833 423.32 779.828 422.877 779.725 422.437C 779.728 419.99 779.535 417.576 779.137 415.213L779.137 415.213L779.095 414.691C 779.081 414.691 779.068 414.691 779.055 414.687C 775.096 387.12 752.967 365.185 724.711 360.545L724.711 360.545L724.702 360.455C 724.284 360.376 723.864 360.302 723.425 360.335C 720.971 359.901 718.46 359.668 715.911 359.627L715.911 359.627L714.563 359.5L714.563 359.5L714.561 359.539L714.561 359.539L714.522 359.536C 714.477 359.833 714.475 360.131 714.475 360.43C 714.475 360.874 714.48 361.317 714.583 361.756C 714.58 364.204 714.773 366.617 715.171 368.979L715.171 368.979L715.214 369.502C 715.227 369.502 715.24 369.503 715.253 369.507C 719.212 397.073 741.341 419.008 769.597 423.649L769.597 423.649L769.606 423.738C 770.024 423.817 770.444 423.891 770.883 423.858C 773.338 424.293 775.849 424.525 778.4 424.567L778.4 424.567L779.745 424.693zM780.831 424.693L782.176 424.567C 784.726 424.525 787.237 424.293 789.693 423.858C 790.132 423.891 790.551 423.817 790.969 423.738L790.969 423.738L790.979 423.649C 819.235 419.008 841.364 397.073 845.322 369.507C 845.336 369.503 845.349 369.502 845.362 369.502L845.362 369.502L845.405 368.979C 845.803 366.617 845.996 364.204 845.992 361.756C 846.096 361.317 846.1 360.874 846.1 360.43C 846.1 360.131 846.098 359.833 846.054 359.536L846.054 359.536L846.014 359.539L846.014 359.539L846.012 359.5L846.012 359.5L844.664 359.627C 842.115 359.668 839.605 359.901 837.15 360.335C 836.711 360.302 836.292 360.376 835.874 360.455L835.874 360.455L835.864 360.545C 807.608 365.185 785.479 387.12 781.521 414.687C 781.508 414.691 781.494 414.691 781.481 414.691L781.481 414.691L781.439 415.213C 781.04 417.576 780.847 419.99 780.851 422.437C 780.747 422.877 780.743 423.32 780.743 423.764L780.743 423.764L780.789 424.657L780.789 424.657L780.829 424.655L780.829 424.655L780.831 424.693zM912.985 424.693L912.987 424.655L912.987 424.655L913.027 424.657L913.027 424.657L913.073 423.764C 913.073 423.32 913.069 422.877 912.966 422.437C 912.969 419.99 912.776 417.576 912.378 415.213L912.378 415.213L912.335 414.691C 912.322 414.691 912.309 414.691 912.295 414.687C 908.337 387.12 886.208 365.185 857.952 360.545L857.952 360.545L857.942 360.455C 857.524 360.376 857.105 360.302 856.666 360.335C 854.211 359.901 851.701 359.668 849.152 359.627L849.152 359.627L847.804 359.5L847.804 359.5L847.802 359.539L847.802 359.539L847.762 359.536C 847.718 359.833 847.716 360.131 847.716 360.43C 847.716 360.874 847.72 361.317 847.824 361.756C 847.82 364.204 848.013 366.617 848.411 368.979L848.411 368.979L848.454 369.502C 848.467 369.502 848.481 369.503 848.494 369.507C 852.453 397.073 874.582 419.008 902.837 423.649L902.837 423.649L902.847 423.738C 903.265 423.817 903.684 423.891 904.123 423.858C 906.579 424.293 909.09 424.525 911.64 424.567L911.64 424.567L912.985 424.693zM914.071 424.693L915.417 424.567C 917.967 424.525 920.478 424.293 922.933 423.858C 923.372 423.891 923.792 423.817 924.21 423.738L924.21 423.738L924.219 423.649C 938.117 421.366 950.533 414.9 960 405.603L960 405.603L960 389.856C 952.262 401.668 939.841 410.272 925.272 413.379C 928.931 394.919 942.268 379.795 960 373.177L960 373.177L960 362.783C 936.178 370.104 918.282 390.168 914.761 414.687C 914.748 414.691 914.735 414.691 914.721 414.691L914.721 414.691L914.679 415.213C 914.281 417.576 914.088 419.99 914.091 422.437C 913.988 422.877 913.983 423.32 913.983 423.764L913.983 423.764L914.03 424.657L914.03 424.657L914.069 424.655L914.069 424.655L914.071 424.693zM0 421.568C 24.146 414.444 42.329 394.243 45.881 369.507C 45.894 369.503 45.907 369.502 45.921 369.502L45.921 369.502L45.963 368.979C 46.361 366.617 46.554 364.204 46.551 361.756C 46.654 361.317 46.659 360.874 46.659 360.43C 46.659 360.131 46.657 359.833 46.612 359.536L46.612 359.536L46.573 359.539L46.573 359.539L46.571 359.5L46.571 359.5L45.223 359.627C 42.674 359.668 40.164 359.901 37.709 360.335C 37.27 360.302 36.85 360.376 36.432 360.455L36.432 360.455L36.423 360.545C 22.22 362.877 9.566 369.579 0 379.181L0 379.181L0 395.336C 7.684 383.013 20.392 374.008 35.37 370.815C 31.668 389.494 18.055 404.759 0 411.23L0 411.23L0 421.568zM102.343 413.379C 80.675 408.759 63.758 391.978 59.563 370.815C 81.231 375.435 98.148 392.215 102.343 413.379zM125.83 413.379C 130.025 392.215 146.942 375.435 168.61 370.815C 164.416 391.978 147.499 408.759 125.83 413.379zM235.583 413.379C 213.915 408.759 196.998 391.978 192.803 370.815C 214.472 375.435 231.388 392.215 235.583 413.379zM259.07 413.379C 263.265 392.215 280.182 375.435 301.851 370.815C 297.656 391.978 280.739 408.759 259.07 413.379zM368.824 413.379C 347.155 408.759 330.238 391.978 326.043 370.815C 347.712 375.435 364.629 392.215 368.824 413.379zM392.311 413.379C 396.506 392.215 413.422 375.435 435.091 370.815C 430.896 391.978 413.979 408.759 392.311 413.379zM502.064 413.379C 480.395 408.759 463.478 391.978 459.284 370.815C 480.952 375.435 497.869 392.215 502.064 413.379zM525.551 413.379C 529.746 392.215 546.663 375.435 568.331 370.815C 564.136 391.978 547.219 408.759 525.551 413.379zM635.304 413.379C 613.636 408.759 596.719 391.978 592.524 370.815C 614.192 375.435 631.109 392.215 635.304 413.379zM658.791 413.379C 662.986 392.215 679.903 375.435 701.571 370.815C 697.377 391.978 680.46 408.759 658.791 413.379zM768.544 413.379C 746.876 408.759 729.959 391.978 725.764 370.815C 747.433 375.435 764.349 392.215 768.544 413.379zM792.031 413.379C 796.226 392.215 813.143 375.435 834.812 370.815C 830.617 391.978 813.7 408.759 792.031 413.379zM901.785 413.379C 880.116 408.759 863.199 391.978 859.004 370.815C 880.673 375.435 897.59 392.215 901.785 413.379zM46.571 358.693L46.573 358.655L46.573 358.655L46.612 358.657L46.612 358.657L46.659 357.756C 46.659 357.309 46.654 356.863 46.551 356.42C 46.554 353.952 46.361 351.52 45.963 349.138L45.963 349.138L45.921 348.612C 45.907 348.612 45.894 348.612 45.881 348.607C 42.329 323.676 24.147 303.315 0 296.134L0 296.134L0 306.554C 18.055 313.077 31.668 328.462 35.37 347.289C 20.391 344.07 7.683 334.994 0 322.574L0 322.574L0 338.857C 9.566 348.534 22.22 355.289 36.423 357.64L36.423 357.64L36.432 357.731C 36.85 357.81 37.27 357.885 37.709 357.852C 40.164 358.289 42.675 358.524 45.226 358.566L45.226 358.566L46.571 358.693zM48.362 358.693L49.708 358.566C 52.258 358.524 54.769 358.289 57.224 357.852C 57.664 357.885 58.083 357.81 58.501 357.731L58.501 357.731L58.51 357.64C 86.766 352.963 108.895 330.855 112.854 303.07C 112.867 303.066 112.881 303.066 112.894 303.065L112.894 303.065L112.936 302.538C 113.335 300.157 113.527 297.725 113.524 295.258C 113.627 294.815 113.632 294.369 113.632 293.921C 113.632 293.62 113.63 293.32 113.585 293.02L113.585 293.02L113.546 293.023L113.546 293.023L113.544 292.984L113.544 292.984L112.196 293.112C 109.647 293.154 107.137 293.388 104.682 293.826C 104.243 293.793 103.823 293.867 103.405 293.947L103.405 293.947L103.396 294.037C 75.14 298.714 53.011 320.823 49.052 348.607C 49.039 348.612 49.026 348.612 49.013 348.612L49.013 348.612L48.97 349.138C 48.572 351.52 48.379 353.952 48.382 356.42C 48.279 356.863 48.274 357.309 48.274 357.756L48.274 357.756L48.321 358.657L48.321 358.657L48.36 358.655L48.36 358.655L48.362 358.693zM179.811 358.693L179.813 358.655L179.813 358.655L179.852 358.657L179.852 358.657L179.899 357.756C 179.899 357.309 179.895 356.863 179.791 356.42C 179.795 353.952 179.602 351.52 179.203 349.138L179.203 349.138L179.161 348.612C 179.148 348.612 179.134 348.612 179.121 348.607C 175.162 320.823 153.033 298.714 124.777 294.037L124.777 294.037L124.768 293.947C 124.35 293.867 123.93 293.793 123.491 293.826C 121.037 293.388 118.527 293.154 115.977 293.112L115.977 293.112L114.63 292.984L114.63 292.984L114.627 293.023L114.627 293.023L114.588 293.02C 114.544 293.32 114.541 293.62 114.541 293.921C 114.541 294.369 114.546 294.815 114.649 295.258C 114.646 297.725 114.839 300.157 115.237 302.538L115.237 302.538L115.28 303.065C 115.293 303.066 115.306 303.066 115.319 303.07C 119.278 330.855 141.407 352.963 169.663 357.64L169.663 357.64L169.672 357.731C 170.09 357.81 170.51 357.885 170.949 357.852C 173.404 358.289 175.916 358.524 178.466 358.566L178.466 358.566L179.811 358.693zM181.603 358.693L182.948 358.566C 185.498 358.524 188.009 358.289 190.465 357.852C 190.904 357.885 191.323 357.81 191.741 357.731L191.741 357.731L191.751 357.64C 220.006 352.963 242.135 330.855 246.094 303.07C 246.107 303.066 246.121 303.066 246.134 303.065L246.134 303.065L246.177 302.538C 246.575 300.157 246.768 297.725 246.764 295.258C 246.868 294.815 246.872 294.369 246.872 293.921C 246.872 293.62 246.87 293.32 246.826 293.02L246.826 293.02L246.786 293.023L246.786 293.023L246.784 292.984L246.784 292.984L245.436 293.112C 242.887 293.154 240.377 293.388 237.922 293.826C 237.483 293.793 237.064 293.867 236.645 293.947L236.645 293.947L236.636 294.037C 208.38 298.714 186.251 320.823 182.293 348.607C 182.279 348.612 182.266 348.612 182.253 348.612L182.253 348.612L182.21 349.138C 181.812 351.52 181.619 353.952 181.622 356.42C 181.519 356.863 181.515 357.309 181.515 357.756L181.515 357.756L181.561 358.657L181.561 358.657L181.601 358.655L181.601 358.655L181.603 358.693zM313.051 358.693L313.053 358.655L313.053 358.655L313.093 358.657L313.093 358.657L313.139 357.756C 313.139 357.309 313.135 356.863 313.031 356.42C 313.035 353.952 312.842 351.52 312.444 349.138L312.444 349.138L312.401 348.612C 312.388 348.612 312.375 348.612 312.361 348.607C 308.403 320.823 286.274 298.714 258.018 294.037L258.018 294.037L258.008 293.947C 257.59 293.867 257.171 293.793 256.732 293.826C 254.277 293.388 251.767 293.154 249.218 293.112L249.218 293.112L247.87 292.984L247.87 292.984L247.868 293.023L247.868 293.023L247.828 293.02C 247.784 293.32 247.782 293.62 247.782 293.921C 247.782 294.369 247.786 294.815 247.89 295.258C 247.886 297.725 248.079 300.157 248.477 302.538L248.477 302.538L248.52 303.065C 248.533 303.066 248.547 303.066 248.56 303.07C 252.518 330.855 274.648 352.963 302.903 357.64L302.903 357.64L302.913 357.731C 303.331 357.81 303.75 357.885 304.189 357.852C 306.645 358.289 309.156 358.524 311.706 358.566L311.706 358.566L313.051 358.693zM314.843 358.693L316.188 358.566C 318.738 358.524 321.25 358.289 323.705 357.852C 324.144 357.885 324.564 357.81 324.981 357.731L324.981 357.731L324.991 357.64C 353.247 352.963 375.376 330.855 379.334 303.07C 379.348 303.066 379.361 303.066 379.374 303.065L379.374 303.065L379.417 302.538C 379.815 300.157 380.008 297.725 380.005 295.258C 380.108 294.815 380.112 294.369 380.112 293.921C 380.112 293.62 380.11 293.32 380.066 293.02L380.066 293.02L380.026 293.023L380.026 293.023L380.024 292.984L380.024 292.984L378.676 293.112C 376.127 293.154 373.617 293.388 371.163 293.826C 370.724 293.793 370.304 293.867 369.886 293.947L369.886 293.947L369.877 294.037C 341.621 298.714 319.492 320.823 315.533 348.607C 315.52 348.612 315.506 348.612 315.493 348.612L315.493 348.612L315.451 349.138C 315.052 351.52 314.859 353.952 314.863 356.42C 314.759 356.863 314.755 357.309 314.755 357.756L314.755 357.756L314.802 358.657L314.802 358.657L314.841 358.655L314.841 358.655L314.843 358.693zM446.292 358.693L446.294 358.655L446.294 358.655L446.333 358.657L446.333 358.657L446.38 357.756C 446.38 357.309 446.375 356.863 446.272 356.42C 446.275 353.952 446.082 351.52 445.684 349.138L445.684 349.138L445.641 348.612C 445.628 348.612 445.615 348.612 445.602 348.607C 441.643 320.823 419.514 298.714 391.258 294.037L391.258 294.037L391.249 293.947C 390.831 293.867 390.411 293.793 389.972 293.826C 387.517 293.388 385.007 293.154 382.458 293.112L382.458 293.112L381.11 292.984L381.11 292.984L381.108 293.023L381.108 293.023L381.069 293.02C 381.024 293.32 381.022 293.62 381.022 293.921C 381.022 294.369 381.026 294.815 381.13 295.258C 381.126 297.725 381.319 300.157 381.717 302.538L381.717 302.538L381.76 303.065C 381.773 303.066 381.787 303.066 381.8 303.07C 385.759 330.855 407.888 352.963 436.144 357.64L436.144 357.64L436.153 357.731C 436.571 357.81 436.99 357.885 437.429 357.852C 439.885 358.289 442.396 358.524 444.946 358.566L444.946 358.566L446.292 358.693zM448.083 358.693L449.428 358.566C 451.979 358.524 454.49 358.289 456.945 357.852C 457.384 357.885 457.804 357.81 458.222 357.731L458.222 357.731L458.231 357.64C 486.487 352.963 508.616 330.855 512.575 303.07C 512.588 303.066 512.601 303.066 512.615 303.065L512.615 303.065L512.657 302.538C 513.055 300.157 513.248 297.725 513.245 295.258C 513.348 294.815 513.353 294.369 513.353 293.921C 513.353 293.62 513.351 293.32 513.306 293.02L513.306 293.02L513.267 293.023L513.267 293.023L513.265 292.984L513.265 292.984L511.917 293.112C 509.368 293.154 506.857 293.388 504.403 293.826C 503.964 293.793 503.544 293.867 503.126 293.947L503.126 293.947L503.117 294.037C 474.861 298.714 452.732 320.823 448.773 348.607C 448.76 348.612 448.747 348.612 448.733 348.612L448.733 348.612L448.691 349.138C 448.293 351.52 448.1 353.952 448.103 356.42C 448 356.863 447.995 357.309 447.995 357.756L447.995 357.756L448.042 358.657L448.042 358.657L448.081 358.655L448.081 358.655L448.083 358.693zM579.532 358.693L579.534 358.655L579.534 358.655L579.573 358.657L579.573 358.657L579.62 357.756C 579.62 357.309 579.615 356.863 579.512 356.42C 579.515 353.952 579.322 351.52 578.924 349.138L578.924 349.138L578.882 348.612C 578.868 348.612 578.855 348.612 578.842 348.607C 574.883 320.823 552.754 298.714 524.498 294.037L524.498 294.037L524.489 293.947C 524.071 293.867 523.651 293.793 523.212 293.826C 520.758 293.388 518.247 293.154 515.698 293.112L515.698 293.112L514.35 292.984L514.35 292.984L514.348 293.023L514.348 293.023L514.309 293.02C 514.264 293.32 514.262 293.62 514.262 293.921C 514.262 294.369 514.267 294.815 514.37 295.258C 514.367 297.725 514.56 300.157 514.958 302.538L514.958 302.538L515 303.065C 515.014 303.066 515.027 303.066 515.04 303.07C 518.999 330.855 541.128 352.963 569.384 357.64L569.384 357.64L569.393 357.731C 569.811 357.81 570.231 357.885 570.67 357.852C 573.125 358.289 575.636 358.524 578.186 358.566L578.186 358.566L579.532 358.693zM581.323 358.693L582.669 358.566C 585.219 358.524 587.73 358.289 590.185 357.852C 590.624 357.885 591.044 357.81 591.462 357.731L591.462 357.731L591.471 357.64C 619.727 352.963 641.856 330.855 645.815 303.07C 645.828 303.066 645.842 303.066 645.855 303.065L645.855 303.065L645.897 302.538C 646.296 300.157 646.488 297.725 646.485 295.258C 646.588 294.815 646.593 294.369 646.593 293.921C 646.593 293.62 646.591 293.32 646.546 293.02L646.546 293.02L646.507 293.023L646.507 293.023L646.505 292.984L646.505 292.984L645.157 293.112C 642.608 293.154 640.098 293.388 637.643 293.826C 637.204 293.793 636.784 293.867 636.366 293.947L636.366 293.947L636.357 294.037C 608.101 298.714 585.972 320.823 582.013 348.607C 582 348.612 581.987 348.612 581.974 348.612L581.974 348.612L581.931 349.138C 581.533 351.52 581.34 353.952 581.343 356.42C 581.24 356.863 581.235 357.309 581.235 357.756L581.235 357.756L581.282 358.657L581.282 358.657L581.321 358.655L581.321 358.655L581.323 358.693zM712.772 358.693L712.774 358.655L712.774 358.655L712.813 358.657L712.813 358.657L712.86 357.756C 712.86 357.309 712.855 356.863 712.752 356.42C 712.756 353.952 712.563 351.52 712.164 349.138L712.164 349.138L712.122 348.612C 712.109 348.612 712.095 348.612 712.082 348.607C 708.123 320.823 685.994 298.714 657.738 294.037L657.738 294.037L657.729 293.947C 657.311 293.867 656.891 293.793 656.452 293.826C 653.998 293.388 651.488 293.154 648.938 293.112L648.938 293.112L647.59 292.984L647.59 292.984L647.588 293.023L647.588 293.023L647.549 293.02C 647.505 293.32 647.502 293.62 647.502 293.921C 647.502 294.369 647.507 294.815 647.61 295.258C 647.607 297.725 647.8 300.157 648.198 302.538L648.198 302.538L648.241 303.065C 648.254 303.066 648.267 303.066 648.28 303.07C 652.239 330.855 674.368 352.963 702.624 357.64L702.624 357.64L702.633 357.731C 703.051 357.81 703.471 357.885 703.91 357.852C 706.365 358.289 708.877 358.524 711.427 358.566L711.427 358.566L712.772 358.693zM714.564 358.693L715.909 358.566C 718.459 358.524 720.97 358.289 723.426 357.852C 723.865 357.885 724.284 357.81 724.702 357.731L724.702 357.731L724.711 357.64C 752.967 352.963 775.096 330.855 779.055 303.07C 779.068 303.066 779.082 303.066 779.095 303.065L779.095 303.065L779.138 302.538C 779.536 300.157 779.729 297.725 779.725 295.258C 779.829 294.815 779.833 294.369 779.833 293.921C 779.833 293.62 779.831 293.32 779.786 293.02L779.786 293.02L779.747 293.023L779.747 293.023L779.745 292.984L779.745 292.984L778.397 293.112C 775.848 293.154 773.338 293.388 770.883 293.826C 770.444 293.793 770.025 293.867 769.606 293.947L769.606 293.947L769.597 294.037C 741.341 298.714 719.212 320.823 715.254 348.607C 715.24 348.612 715.227 348.612 715.214 348.612L715.214 348.612L715.171 349.138C 714.773 351.52 714.58 353.952 714.583 356.42C 714.48 356.863 714.475 357.309 714.475 357.756L714.475 357.756L714.522 358.657L714.522 358.657L714.561 358.655L714.561 358.655L714.564 358.693zM846.012 358.693L846.014 358.655L846.014 358.655L846.054 358.657L846.054 358.657L846.1 357.756C 846.1 357.309 846.096 356.863 845.992 356.42C 845.996 353.952 845.803 351.52 845.404 349.138L845.404 349.138L845.362 348.612C 845.349 348.612 845.335 348.612 845.322 348.607C 841.364 320.823 819.235 298.714 790.979 294.037L790.979 294.037L790.969 293.947C 790.551 293.867 790.132 293.793 789.692 293.826C 787.238 293.388 784.728 293.154 782.179 293.112L782.179 293.112L780.831 292.984L780.831 292.984L780.829 293.023L780.829 293.023L780.789 293.02C 780.745 293.32 780.743 293.62 780.743 293.921C 780.743 294.369 780.747 294.815 780.851 295.258C 780.847 297.725 781.04 300.157 781.438 302.538L781.438 302.538L781.481 303.065C 781.494 303.066 781.507 303.066 781.521 303.07C 785.479 330.855 807.608 352.963 835.864 357.64L835.864 357.64L835.874 357.731C 836.292 357.81 836.711 357.885 837.15 357.852C 839.606 358.289 842.117 358.524 844.667 358.566L844.667 358.566L846.012 358.693zM847.804 358.693L849.149 358.566C 851.699 358.524 854.211 358.289 856.666 357.852C 857.105 357.885 857.525 357.81 857.943 357.731L857.943 357.731L857.952 357.64C 886.208 352.963 908.337 330.855 912.296 303.07C 912.309 303.066 912.322 303.066 912.335 303.065L912.335 303.065L912.378 302.538C 912.776 300.157 912.969 297.725 912.966 295.258C 913.069 294.815 913.074 294.369 913.074 293.921C 913.074 293.62 913.071 293.32 913.027 293.02L913.027 293.02L912.988 293.023L912.988 293.023L912.986 292.984L912.986 292.984L911.638 293.112C 909.088 293.154 906.578 293.388 904.124 293.826C 903.685 293.793 903.265 293.867 902.847 293.947L902.847 293.947L902.838 294.037C 874.582 298.714 852.453 320.823 848.494 348.607C 848.481 348.612 848.468 348.612 848.454 348.612L848.454 348.612L848.412 349.138C 848.013 351.52 847.82 353.952 847.824 356.42C 847.721 356.863 847.716 357.309 847.716 357.756L847.716 357.756L847.763 358.657L847.763 358.657L847.802 358.655L847.802 358.655L847.804 358.693zM960 355.385L960 344.908C 942.268 338.238 928.931 322.994 925.272 304.388C 939.841 307.519 952.263 316.192 960 328.098L960 328.098L960 312.226C 950.533 302.855 938.117 296.338 924.219 294.037L924.219 294.037L924.21 293.947C 923.792 293.867 923.372 293.793 922.933 293.826C 920.478 293.388 917.968 293.154 915.419 293.112L915.419 293.112L914.071 292.984L914.071 292.984L914.069 293.023L914.069 293.023L914.03 293.02C 913.985 293.32 913.983 293.62 913.983 293.921C 913.983 294.369 913.988 294.815 914.091 295.258C 914.088 297.725 914.281 300.157 914.679 302.538L914.679 302.538L914.721 303.065C 914.735 303.066 914.748 303.066 914.761 303.07C 918.282 327.783 936.178 348.006 960 355.385zM59.563 347.289C 63.758 325.958 80.675 309.045 102.343 304.388C 98.148 325.719 81.232 342.632 59.563 347.289zM168.61 347.289C 146.942 342.632 130.025 325.719 125.83 304.388C 147.499 309.045 164.415 325.958 168.61 347.289zM192.803 347.289C 196.998 325.958 213.915 309.045 235.584 304.388C 231.389 325.719 214.472 342.632 192.803 347.289zM301.851 347.289C 280.182 342.632 263.265 325.719 259.07 304.388C 280.739 309.045 297.656 325.958 301.851 347.289zM326.044 347.289C 330.238 325.958 347.155 309.045 368.824 304.388C 364.629 325.719 347.712 342.632 326.044 347.289zM435.091 347.289C 413.422 342.632 396.506 325.719 392.311 304.388C 413.979 309.045 430.896 325.958 435.091 347.289zM459.284 347.289C 463.479 325.958 480.395 309.045 502.064 304.388C 497.869 325.719 480.952 342.632 459.284 347.289zM568.331 347.289C 546.663 342.632 529.746 325.719 525.551 304.388C 547.219 309.045 564.136 325.958 568.331 347.289zM592.524 347.289C 596.719 325.958 613.636 309.045 635.304 304.388C 631.109 325.719 614.193 342.632 592.524 347.289zM701.571 347.289C 679.903 342.632 662.986 325.719 658.791 304.388C 680.46 309.045 697.376 325.958 701.571 347.289zM725.764 347.289C 729.959 325.958 746.876 309.045 768.544 304.388C 764.35 325.719 747.433 342.632 725.764 347.289zM834.812 347.289C 813.143 342.632 796.226 325.719 792.031 304.388C 813.7 309.045 830.617 325.958 834.812 347.289zM859.005 347.289C 863.2 325.958 880.116 309.045 901.785 304.388C 897.59 325.719 880.673 342.632 859.005 347.289zM113.544 291.085L113.546 291.047L113.546 291.047L113.585 291.049L113.585 291.049L113.632 290.155C 113.632 289.712 113.627 289.269 113.524 288.829C 113.527 286.381 113.334 283.968 112.936 281.605L112.936 281.605L112.894 281.083C 112.88 281.083 112.867 281.082 112.854 281.078C 108.895 253.512 86.766 231.577 58.51 226.937L58.51 226.937L58.501 226.847C 58.083 226.768 57.663 226.694 57.224 226.727C 54.77 226.293 52.259 226.06 49.71 226.019L49.71 226.019L48.362 225.892L48.362 225.892L48.36 225.93L48.36 225.93L48.321 225.928C 48.276 226.225 48.274 226.523 48.274 226.822C 48.274 227.266 48.279 227.708 48.382 228.148C 48.379 230.596 48.572 233.008 48.97 235.371L48.97 235.371L49.012 235.894C 49.026 235.894 49.039 235.895 49.052 235.899C 53.011 263.465 75.14 285.4 103.396 290.04L103.396 290.04L103.405 290.13C 103.823 290.209 104.243 290.283 104.682 290.25C 107.137 290.684 109.648 290.917 112.198 290.958L112.198 290.958L113.544 291.085zM114.63 291.085L115.975 290.958C 118.525 290.917 121.036 290.684 123.492 290.25C 123.931 290.283 124.35 290.209 124.768 290.13L124.768 290.13L124.777 290.04C 153.033 285.4 175.162 263.465 179.121 235.899C 179.134 235.895 179.148 235.894 179.161 235.894L179.161 235.894L179.204 235.371C 179.602 233.008 179.795 230.596 179.791 228.148C 179.895 227.708 179.899 227.266 179.899 226.822C 179.899 226.523 179.897 226.225 179.853 225.928L179.853 225.928L179.813 225.93L179.813 225.93L179.811 225.892L179.811 225.892L178.463 226.019C 175.914 226.06 173.404 226.293 170.949 226.727C 170.51 226.694 170.091 226.768 169.672 226.847L169.672 226.847L169.663 226.937C 141.407 231.577 119.278 253.512 115.32 281.078C 115.306 281.082 115.293 281.083 115.28 281.083L115.28 281.083L115.237 281.605C 114.839 283.968 114.646 286.381 114.649 288.829C 114.546 289.269 114.541 289.712 114.541 290.155L114.541 290.155L114.588 291.049L114.588 291.049L114.627 291.047L114.627 291.047L114.63 291.085zM246.784 291.085L246.786 291.047L246.786 291.047L246.825 291.049L246.825 291.049L246.872 290.155C 246.872 289.712 246.867 289.269 246.764 288.829C 246.767 286.381 246.575 283.968 246.176 281.605L246.176 281.605L246.134 281.083C 246.12 281.083 246.107 281.082 246.094 281.078C 242.135 253.512 220.006 231.577 191.75 226.937L191.75 226.937L191.741 226.847C 191.323 226.768 190.903 226.694 190.464 226.727C 188.01 226.293 185.5 226.06 182.95 226.019L182.95 226.019L181.602 225.892L181.602 225.892L181.6 225.93L181.6 225.93L181.561 225.928C 181.517 226.225 181.514 226.523 181.514 226.822C 181.514 227.266 181.519 227.708 181.622 228.148C 181.619 230.596 181.812 233.008 182.21 235.371L182.21 235.371L182.253 235.894C 182.266 235.894 182.279 235.895 182.292 235.899C 186.251 263.465 208.38 285.4 236.636 290.04L236.636 290.04L236.645 290.13C 237.063 290.209 237.483 290.283 237.922 290.25C 240.377 290.684 242.889 290.917 245.439 290.958L245.439 290.958L246.784 291.085zM247.87 291.085L249.215 290.958C 251.765 290.917 254.276 290.684 256.732 290.25C 257.171 290.283 257.59 290.209 258.008 290.13L258.008 290.13L258.018 290.04C 286.274 285.4 308.403 263.465 312.361 235.899C 312.375 235.895 312.388 235.894 312.401 235.894L312.401 235.894L312.444 235.371C 312.842 233.008 313.035 230.596 313.031 228.148C 313.135 227.708 313.139 227.266 313.139 226.822C 313.139 226.523 313.137 226.225 313.093 225.928L313.093 225.928L313.053 225.93L313.053 225.93L313.051 225.892L313.051 225.892L311.703 226.019C 309.154 226.06 306.644 226.293 304.19 226.727C 303.75 226.694 303.331 226.768 302.913 226.847L302.913 226.847L302.904 226.937C 274.648 231.577 252.518 253.512 248.56 281.078C 248.547 281.082 248.533 281.083 248.52 281.083L248.52 281.083L248.478 281.605C 248.079 283.968 247.886 286.381 247.89 288.829C 247.786 289.269 247.782 289.712 247.782 290.155L247.782 290.155L247.828 291.049L247.828 291.049L247.868 291.047L247.868 291.047L247.87 291.085zM380.024 291.085L380.026 291.047L380.026 291.047L380.066 291.049L380.066 291.049L380.112 290.155C 380.112 289.712 380.108 289.269 380.004 288.829C 380.008 286.381 379.815 283.968 379.416 281.605L379.416 281.605L379.374 281.083C 379.361 281.083 379.347 281.082 379.334 281.078C 375.376 253.512 353.246 231.577 324.991 226.937L324.991 226.937L324.981 226.847C 324.563 226.768 324.144 226.694 323.704 226.727C 321.25 226.293 318.74 226.06 316.191 226.019L316.191 226.019L314.843 225.892L314.843 225.892L314.841 225.93L314.841 225.93L314.801 225.928C 314.757 226.225 314.755 226.523 314.755 226.822C 314.755 227.266 314.759 227.708 314.862 228.148C 314.859 230.596 315.052 233.008 315.45 235.371L315.45 235.371L315.493 235.894C 315.506 235.894 315.519 235.895 315.533 235.899C 319.491 263.465 341.62 285.4 369.876 290.04L369.876 290.04L369.886 290.13C 370.304 290.209 370.723 290.283 371.162 290.25C 373.618 290.684 376.129 290.917 378.679 290.958L378.679 290.958L380.024 291.085zM381.11 291.085L382.455 290.958C 385.005 290.917 387.517 290.684 389.972 290.25C 390.411 290.283 390.831 290.209 391.249 290.13L391.249 290.13L391.258 290.04C 419.514 285.4 441.643 263.465 445.602 235.899C 445.615 235.895 445.628 235.894 445.641 235.894L445.641 235.894L445.684 235.371C 446.082 233.008 446.275 230.596 446.272 228.148C 446.375 227.708 446.38 227.266 446.38 226.822C 446.38 226.523 446.378 226.225 446.333 225.928L446.333 225.928L446.294 225.93L446.294 225.93L446.292 225.892L446.292 225.892L444.944 226.019C 442.395 226.06 439.884 226.293 437.43 226.727C 436.991 226.694 436.571 226.768 436.153 226.847L436.153 226.847L436.144 226.937C 407.888 231.577 385.759 253.512 381.8 281.078C 381.787 281.082 381.774 281.083 381.76 281.083L381.76 281.083L381.718 281.605C 381.319 283.968 381.126 286.381 381.13 288.829C 381.026 289.269 381.022 289.712 381.022 290.155L381.022 290.155L381.069 291.049L381.069 291.049L381.108 291.047L381.108 291.047L381.11 291.085zM513.265 291.085L513.267 291.047L513.267 291.047L513.306 291.049L513.306 291.049L513.353 290.155C 513.353 289.712 513.348 289.269 513.245 288.829C 513.248 286.381 513.055 283.968 512.657 281.605L512.657 281.605L512.614 281.083C 512.601 281.083 512.588 281.082 512.574 281.078C 508.616 253.512 486.487 231.577 458.231 226.937L458.231 226.937L458.222 226.847C 457.803 226.768 457.384 226.694 456.945 226.727C 454.49 226.293 451.98 226.06 449.431 226.019L449.431 226.019L448.083 225.892L448.083 225.892L448.081 225.93L448.081 225.93L448.042 225.928C 447.997 226.225 447.995 226.523 447.995 226.822C 447.995 227.266 447.999 227.708 448.103 228.148C 448.099 230.596 448.292 233.008 448.69 235.371L448.69 235.371L448.733 235.894C 448.746 235.894 448.76 235.895 448.773 235.899C 452.732 263.465 474.861 285.4 503.117 290.04L503.117 290.04L503.126 290.13C 503.544 290.209 503.963 290.283 504.402 290.25C 506.858 290.684 509.369 290.917 511.919 290.958L511.919 290.958L513.265 291.085zM514.35 291.085L515.696 290.958C 518.246 290.917 520.757 290.684 523.212 290.25C 523.651 290.283 524.071 290.209 524.489 290.13L524.489 290.13L524.498 290.04C 552.754 285.4 574.883 263.465 578.842 235.899C 578.855 235.895 578.869 235.894 578.882 235.894L578.882 235.894L578.924 235.371C 579.322 233.008 579.515 230.596 579.512 228.148C 579.615 227.708 579.62 227.266 579.62 226.822C 579.62 226.523 579.618 226.225 579.573 225.928L579.573 225.928L579.534 225.93L579.534 225.93L579.532 225.892L579.532 225.892L578.184 226.019C 575.635 226.06 573.125 226.293 570.67 226.727C 570.231 226.694 569.811 226.768 569.393 226.847L569.393 226.847L569.384 226.937C 541.128 231.577 518.999 253.512 515.04 281.078C 515.027 281.082 515.014 281.083 515 281.083L515 281.083L514.958 281.605C 514.56 283.968 514.367 286.381 514.37 288.829C 514.267 289.269 514.262 289.712 514.262 290.155L514.262 290.155L514.309 291.049L514.309 291.049L514.348 291.047L514.348 291.047L514.35 291.085zM646.505 291.085L646.507 291.047L646.507 291.047L646.546 291.049L646.546 291.049L646.593 290.155C 646.593 289.712 646.588 289.269 646.485 288.829C 646.488 286.381 646.295 283.968 645.897 281.605L645.897 281.605L645.855 281.083C 645.841 281.083 645.828 281.082 645.815 281.078C 641.856 253.512 619.727 231.577 591.471 226.937L591.471 226.937L591.462 226.847C 591.044 226.768 590.624 226.694 590.185 226.727C 587.73 226.293 585.22 226.06 582.671 226.019L582.671 226.019L581.323 225.892L581.323 225.892L581.321 225.93L581.321 225.93L581.282 225.928C 581.237 226.225 581.235 226.523 581.235 226.822C 581.235 227.266 581.24 227.708 581.343 228.148C 581.34 230.596 581.533 233.008 581.931 235.371L581.931 235.371L581.973 235.894C 581.987 235.894 582 235.895 582.013 235.899C 585.972 263.465 608.101 285.4 636.357 290.04L636.357 290.04L636.366 290.13C 636.784 290.209 637.204 290.283 637.643 290.25C 640.098 290.684 642.609 290.917 645.159 290.958L645.159 290.958L646.505 291.085zM647.59 291.085L648.936 290.958C 651.486 290.917 653.997 290.684 656.453 290.25C 656.892 290.283 657.311 290.209 657.729 290.13L657.729 290.13L657.738 290.04C 685.994 285.4 708.123 263.465 712.082 235.899C 712.095 235.895 712.109 235.894 712.122 235.894L712.122 235.894L712.164 235.371C 712.563 233.008 712.756 230.596 712.752 228.148C 712.855 227.708 712.86 227.266 712.86 226.822C 712.86 226.523 712.858 226.225 712.813 225.928L712.813 225.928L712.774 225.93L712.774 225.93L712.772 225.892L712.772 225.892L711.424 226.019C 708.875 226.06 706.365 226.293 703.91 226.727C 703.471 226.694 703.052 226.768 702.633 226.847L702.633 226.847L702.624 226.937C 674.368 231.577 652.239 253.512 648.281 281.078C 648.267 281.082 648.254 281.083 648.241 281.083L648.241 281.083L648.198 281.605C 647.8 283.968 647.607 286.381 647.61 288.829C 647.507 289.269 647.502 289.712 647.502 290.155L647.502 290.155L647.549 291.049L647.549 291.049L647.588 291.047L647.588 291.047L647.59 291.085zM779.745 291.085L779.747 291.047L779.747 291.047L779.786 291.049L779.786 291.049L779.833 290.155C 779.833 289.712 779.828 289.269 779.725 288.829C 779.728 286.381 779.535 283.968 779.137 281.605L779.137 281.605L779.095 281.083C 779.081 281.083 779.068 281.082 779.055 281.078C 775.096 253.512 752.967 231.577 724.711 226.937L724.711 226.937L724.702 226.847C 724.284 226.768 723.864 226.694 723.425 226.727C 720.971 226.293 718.46 226.06 715.911 226.019L715.911 226.019L714.563 225.892L714.563 225.892L714.561 225.93L714.561 225.93L714.522 225.928C 714.477 226.225 714.475 226.523 714.475 226.822C 714.475 227.266 714.48 227.708 714.583 228.148C 714.58 230.596 714.773 233.008 715.171 235.371L715.171 235.371L715.214 235.894C 715.227 235.894 715.24 235.895 715.253 235.899C 719.212 263.465 741.341 285.4 769.597 290.04L769.597 290.04L769.606 290.13C 770.024 290.209 770.444 290.283 770.883 290.25C 773.338 290.684 775.849 290.917 778.4 290.958L778.4 290.958L779.745 291.085zM780.831 291.085L782.176 290.958C 784.726 290.917 787.237 290.684 789.693 290.25C 790.132 290.283 790.551 290.209 790.969 290.13L790.969 290.13L790.979 290.04C 819.235 285.4 841.364 263.465 845.322 235.899C 845.336 235.895 845.349 235.894 845.362 235.894L845.362 235.894L845.405 235.371C 845.803 233.008 845.996 230.596 845.992 228.148C 846.096 227.708 846.1 227.266 846.1 226.822C 846.1 226.523 846.098 226.225 846.054 225.928L846.054 225.928L846.014 225.93L846.014 225.93L846.012 225.892L846.012 225.892L844.664 226.019C 842.115 226.06 839.605 226.293 837.15 226.727C 836.711 226.694 836.292 226.768 835.874 226.847L835.874 226.847L835.864 226.937C 807.608 231.577 785.479 253.512 781.521 281.078C 781.508 281.082 781.494 281.083 781.481 281.083L781.481 281.083L781.439 281.605C 781.04 283.968 780.847 286.381 780.851 288.829C 780.747 289.269 780.743 289.712 780.743 290.155L780.743 290.155L780.789 291.049L780.789 291.049L780.829 291.047L780.829 291.047L780.831 291.085zM912.985 291.085L912.987 291.047L912.987 291.047L913.027 291.049L913.027 291.049L913.073 290.155C 913.073 289.712 913.069 289.269 912.966 288.829C 912.969 286.381 912.776 283.968 912.378 281.605L912.378 281.605L912.335 281.083C 912.322 281.083 912.309 281.082 912.295 281.078C 908.337 253.512 886.208 231.577 857.952 226.937L857.952 226.937L857.942 226.847C 857.524 226.768 857.105 226.694 856.666 226.727C 854.211 226.293 851.701 226.06 849.152 226.019L849.152 226.019L847.804 225.892L847.804 225.892L847.802 225.93L847.802 225.93L847.762 225.928C 847.718 226.225 847.716 226.523 847.716 226.822C 847.716 227.266 847.72 227.708 847.824 228.148C 847.82 230.596 848.013 233.008 848.411 235.371L848.411 235.371L848.454 235.894C 848.467 235.894 848.481 235.895 848.494 235.899C 852.453 263.465 874.582 285.4 902.837 290.04L902.837 290.04L902.847 290.13C 903.265 290.209 903.684 290.283 904.123 290.25C 906.579 290.684 909.09 290.917 911.64 290.958L911.64 290.958L912.985 291.085zM914.071 291.085L915.417 290.958C 917.967 290.917 920.478 290.684 922.933 290.25C 923.372 290.283 923.792 290.209 924.21 290.13L924.21 290.13L924.219 290.04C 938.117 287.758 950.533 281.291 960 271.995L960 271.995L960 256.247C 952.262 268.06 939.841 276.664 925.272 279.771C 928.931 261.311 942.268 246.186 960 239.569L960 239.569L960 229.175C 936.178 236.496 918.282 256.559 914.761 281.078C 914.748 281.082 914.735 281.083 914.721 281.083L914.721 281.083L914.679 281.605C 914.281 283.968 914.088 286.381 914.091 288.829C 913.988 289.269 913.983 289.712 913.983 290.155L913.983 290.155L914.03 291.049L914.03 291.049L914.069 291.047L914.069 291.047L914.071 291.085zM0 287.96C 24.146 280.836 42.329 260.635 45.881 235.899C 45.894 235.895 45.907 235.894 45.921 235.894L45.921 235.894L45.963 235.371C 46.361 233.008 46.554 230.596 46.551 228.148C 46.654 227.708 46.659 227.266 46.659 226.822C 46.659 226.523 46.657 226.225 46.612 225.928L46.612 225.928L46.573 225.93L46.573 225.93L46.571 225.892L46.571 225.892L45.223 226.019C 42.674 226.06 40.164 226.293 37.709 226.727C 37.27 226.694 36.85 226.768 36.432 226.847L36.432 226.847L36.423 226.937C 22.22 229.269 9.566 235.971 0 245.573L0 245.573L0 261.728C 7.684 249.405 20.392 240.4 35.37 237.206C 31.668 255.886 18.055 271.15 0 277.622L0 277.622L0 287.96zM102.343 279.771C 80.675 275.15 63.758 258.37 59.563 237.206C 81.231 241.827 98.148 258.607 102.343 279.771zM125.83 279.771C 130.025 258.607 146.942 241.827 168.61 237.206C 164.416 258.37 147.499 275.15 125.83 279.771zM235.583 279.771C 213.915 275.15 196.998 258.37 192.803 237.206C 214.472 241.827 231.388 258.607 235.583 279.771zM259.07 279.771C 263.265 258.607 280.182 241.827 301.851 237.206C 297.656 258.37 280.739 275.15 259.07 279.771zM368.824 279.771C 347.155 275.15 330.238 258.37 326.043 237.206C 347.712 241.827 364.629 258.607 368.824 279.771zM392.311 279.771C 396.506 258.607 413.422 241.827 435.091 237.206C 430.896 258.37 413.979 275.15 392.311 279.771zM502.064 279.771C 480.395 275.15 463.478 258.37 459.284 237.206C 480.952 241.827 497.869 258.607 502.064 279.771zM525.551 279.771C 529.746 258.607 546.663 241.827 568.331 237.206C 564.136 258.37 547.219 275.15 525.551 279.771zM635.304 279.771C 613.636 275.15 596.719 258.37 592.524 237.206C 614.192 241.827 631.109 258.607 635.304 279.771zM658.791 279.771C 662.986 258.607 679.903 241.827 701.571 237.206C 697.377 258.37 680.46 275.15 658.791 279.771zM768.544 279.771C 746.876 275.15 729.959 258.37 725.764 237.206C 747.433 241.827 764.349 258.607 768.544 279.771zM792.031 279.771C 796.226 258.607 813.143 241.827 834.812 237.206C 830.617 258.37 813.7 275.15 792.031 279.771zM901.785 279.771C 880.116 275.15 863.199 258.37 859.004 237.206C 880.673 241.827 897.59 258.607 901.785 279.771zM46.571 225.085L46.573 225.046L46.573 225.046L46.612 225.049L46.612 225.049L46.659 224.148C 46.659 223.701 46.654 223.255 46.551 222.811C 46.554 220.344 46.361 217.912 45.963 215.53L45.963 215.53L45.921 215.004C 45.907 215.004 45.894 215.003 45.881 214.999C 43.959 201.507 37.751 189.353 28.532 180L28.532 180L13.371 180C 24.614 187.925 32.656 199.878 35.37 213.681C 20.391 210.462 7.683 201.386 0 188.965L0 188.965L0 205.248C 9.566 214.926 22.22 221.681 36.423 224.032L36.423 224.032L36.432 224.122C 36.85 224.202 37.27 224.277 37.709 224.244C 40.164 224.681 42.675 224.916 45.226 224.957L45.226 224.957L46.571 225.085zM48.362 225.085L49.708 224.957C 52.258 224.916 54.769 224.681 57.224 224.244C 57.664 224.277 58.083 224.202 58.501 224.122L58.501 224.122L58.51 224.032C 83.083 219.965 103.023 202.714 110.374 180L110.374 180L99.544 180C 92.978 196.899 77.988 209.721 59.563 213.681C 62.279 199.87 70.328 187.911 81.596 180L81.596 180L66.301 180C 57.157 189.402 50.971 201.534 49.052 214.999C 49.039 215.003 49.026 215.004 49.013 215.004L49.013 215.004L48.97 215.53C 48.572 217.912 48.379 220.344 48.382 222.811C 48.279 223.255 48.274 223.701 48.274 224.148L48.274 224.148L48.321 225.049L48.321 225.049L48.36 225.046L48.36 225.046L48.362 225.085zM179.811 225.085L179.813 225.046L179.813 225.046L179.852 225.049L179.852 225.049L179.899 224.148C 179.899 223.701 179.895 223.255 179.791 222.811C 179.795 220.344 179.602 217.912 179.203 215.53L179.203 215.53L179.161 215.004C 179.148 215.004 179.134 215.003 179.121 214.999C 177.203 201.534 171.017 189.402 161.872 180L161.872 180L146.578 180C 157.845 187.911 165.894 199.87 168.61 213.681C 150.185 209.721 135.195 196.899 128.63 180L128.63 180L117.799 180C 125.151 202.714 145.09 219.965 169.663 224.032L169.663 224.032L169.672 224.122C 170.09 224.202 170.51 224.277 170.949 224.244C 173.404 224.681 175.916 224.916 178.466 224.957L178.466 224.957L179.811 225.085zM181.603 225.085L182.948 224.957C 185.498 224.916 188.009 224.681 190.465 224.244C 190.904 224.277 191.323 224.202 191.741 224.122L191.741 224.122L191.751 224.032C 216.324 219.965 236.263 202.714 243.614 180L243.614 180L232.784 180C 226.218 196.899 211.229 209.721 192.803 213.681C 195.519 199.87 203.568 187.911 214.836 180L214.836 180L199.541 180C 190.397 189.402 184.211 201.534 182.293 214.999C 182.279 215.003 182.266 215.004 182.253 215.004L182.253 215.004L182.21 215.53C 181.812 217.912 181.619 220.344 181.622 222.811C 181.519 223.255 181.515 223.701 181.515 224.148L181.515 224.148L181.561 225.049L181.561 225.049L181.601 225.046L181.601 225.046L181.603 225.085zM313.051 225.085L313.053 225.046L313.053 225.046L313.093 225.049L313.093 225.049L313.139 224.148C 313.139 223.701 313.135 223.255 313.031 222.811C 313.035 220.344 312.842 217.912 312.444 215.53L312.444 215.53L312.401 215.004C 312.388 215.004 312.375 215.003 312.361 214.999C 310.443 201.534 304.257 189.402 295.113 180L295.113 180L279.818 180C 291.086 187.911 299.135 199.87 301.851 213.681C 283.425 209.721 268.436 196.899 261.87 180L261.87 180L251.04 180C 258.391 202.714 278.33 219.965 302.903 224.032L302.903 224.032L302.913 224.122C 303.331 224.202 303.75 224.277 304.189 224.244C 306.645 224.681 309.156 224.916 311.706 224.957L311.706 224.957L313.051 225.085zM314.843 225.085L316.188 224.957C 318.738 224.916 321.25 224.681 323.705 224.244C 324.144 224.277 324.564 224.202 324.981 224.122L324.981 224.122L324.991 224.032C 349.564 219.965 369.503 202.714 376.855 180L376.855 180L366.024 180C 359.458 196.899 344.469 209.721 326.044 213.681C 328.76 199.87 336.809 187.911 348.076 180L348.076 180L332.782 180C 323.637 189.402 317.451 201.534 315.533 214.999C 315.52 215.003 315.506 215.004 315.493 215.004L315.493 215.004L315.451 215.53C 315.052 217.912 314.859 220.344 314.863 222.811C 314.759 223.255 314.755 223.701 314.755 224.148L314.755 224.148L314.802 225.049L314.802 225.049L314.841 225.046L314.841 225.046L314.843 225.085zM446.292 225.085L446.294 225.046L446.294 225.046L446.333 225.049L446.333 225.049L446.38 224.148C 446.38 223.701 446.375 223.255 446.272 222.811C 446.275 220.344 446.082 217.912 445.684 215.53L445.684 215.53L445.641 215.004C 445.628 215.004 445.615 215.003 445.602 214.999C 443.683 201.534 437.497 189.402 428.353 180L428.353 180L413.058 180C 424.326 187.911 432.375 199.87 435.091 213.681C 416.665 209.721 401.676 196.899 395.11 180L395.11 180L384.28 180C 391.631 202.714 411.571 219.965 436.144 224.032L436.144 224.032L436.153 224.122C 436.571 224.202 436.99 224.277 437.429 224.244C 439.885 224.681 442.396 224.916 444.946 224.957L444.946 224.957L446.292 225.085zM448.083 225.085L449.428 224.957C 451.979 224.916 454.49 224.681 456.945 224.244C 457.384 224.277 457.804 224.202 458.222 224.122L458.222 224.122L458.231 224.032C 482.804 219.965 502.743 202.714 510.095 180L510.095 180L499.264 180C 492.699 196.899 477.709 209.721 459.284 213.681C 462 199.87 470.049 187.911 481.316 180L481.316 180L466.022 180C 456.878 189.402 450.692 201.534 448.773 214.999C 448.76 215.003 448.747 215.004 448.733 215.004L448.733 215.004L448.691 215.53C 448.293 217.912 448.1 220.344 448.103 222.811C 448 223.255 447.995 223.701 447.995 224.148L447.995 224.148L448.042 225.049L448.042 225.049L448.081 225.046L448.081 225.046L448.083 225.085zM579.532 225.085L579.534 225.046L579.534 225.046L579.573 225.049L579.573 225.049L579.62 224.148C 579.62 223.701 579.615 223.255 579.512 222.811C 579.515 220.344 579.322 217.912 578.924 215.53L578.924 215.53L578.882 215.004C 578.868 215.004 578.855 215.003 578.842 214.999C 576.923 201.534 570.737 189.402 561.593 180L561.593 180L546.298 180C 557.566 187.911 565.615 199.87 568.331 213.681C 549.906 209.721 534.916 196.899 528.351 180L528.351 180L517.52 180C 524.871 202.714 544.811 219.965 569.384 224.032L569.384 224.032L569.393 224.122C 569.811 224.202 570.231 224.277 570.67 224.244C 573.125 224.681 575.636 224.916 578.186 224.957L578.186 224.957L579.532 225.085zM581.323 225.085L582.669 224.957C 585.219 224.916 587.73 224.681 590.185 224.244C 590.624 224.277 591.044 224.202 591.462 224.122L591.462 224.122L591.471 224.032C 616.044 219.965 635.984 202.714 643.335 180L643.335 180L632.505 180C 625.939 196.899 610.949 209.721 592.524 213.681C 595.24 199.87 603.289 187.911 614.557 180L614.557 180L599.262 180C 590.118 189.402 583.932 201.534 582.013 214.999C 582 215.003 581.987 215.004 581.974 215.004L581.974 215.004L581.931 215.53C 581.533 217.912 581.34 220.344 581.343 222.811C 581.24 223.255 581.235 223.701 581.235 224.148L581.235 224.148L581.282 225.049L581.282 225.049L581.321 225.046L581.321 225.046L581.323 225.085zM712.772 225.085L712.774 225.046L712.774 225.046L712.813 225.049L712.813 225.049L712.86 224.148C 712.86 223.701 712.855 223.255 712.752 222.811C 712.756 220.344 712.563 217.912 712.164 215.53L712.164 215.53L712.122 215.004C 712.109 215.004 712.095 215.003 712.082 214.999C 710.164 201.534 703.978 189.402 694.833 180L694.833 180L679.539 180C 690.806 187.911 698.855 199.87 701.571 213.681C 683.146 209.721 668.156 196.899 661.591 180L661.591 180L650.76 180C 658.112 202.714 678.051 219.965 702.624 224.032L702.624 224.032L702.633 224.122C 703.051 224.202 703.471 224.277 703.91 224.244C 706.365 224.681 708.877 224.916 711.427 224.957L711.427 224.957L712.772 225.085zM714.564 225.085L715.909 224.957C 718.459 224.916 720.97 224.681 723.426 224.244C 723.865 224.277 724.284 224.202 724.702 224.122L724.702 224.122L724.711 224.032C 749.285 219.965 769.224 202.714 776.575 180L776.575 180L765.745 180C 759.179 196.899 744.19 209.721 725.764 213.681C 728.48 199.87 736.529 187.911 747.797 180L747.797 180L732.502 180C 723.358 189.402 717.172 201.534 715.254 214.999C 715.24 215.003 715.227 215.004 715.214 215.004L715.214 215.004L715.171 215.53C 714.773 217.912 714.58 220.344 714.583 222.811C 714.48 223.255 714.475 223.701 714.475 224.148L714.475 224.148L714.522 225.049L714.522 225.049L714.561 225.046L714.561 225.046L714.564 225.085zM846.012 225.085L846.014 225.046L846.014 225.046L846.054 225.049L846.054 225.049L846.1 224.148C 846.1 223.701 846.096 223.255 845.992 222.811C 845.996 220.344 845.803 217.912 845.404 215.53L845.404 215.53L845.362 215.004C 845.349 215.004 845.335 215.003 845.322 214.999C 843.404 201.534 837.218 189.402 828.074 180L828.074 180L812.779 180C 824.046 187.911 832.096 199.87 834.812 213.681C 816.386 209.721 801.397 196.899 794.831 180L794.831 180L784.001 180C 791.352 202.714 811.291 219.965 835.864 224.032L835.864 224.032L835.874 224.122C 836.292 224.202 836.711 224.277 837.15 224.244C 839.606 224.681 842.117 224.916 844.667 224.957L844.667 224.957L846.012 225.085zM847.804 225.085L849.149 224.957C 851.699 224.916 854.211 224.681 856.666 224.244C 857.105 224.277 857.525 224.202 857.943 224.122L857.943 224.122L857.952 224.032C 882.525 219.965 902.464 202.714 909.816 180L909.816 180L898.985 180C 892.42 196.899 877.43 209.721 859.005 213.681C 861.721 199.87 869.77 187.911 881.037 180L881.037 180L865.743 180C 856.598 189.402 850.412 201.534 848.494 214.999C 848.481 215.003 848.468 215.004 848.454 215.004L848.454 215.004L848.412 215.53C 848.013 217.912 847.82 220.344 847.824 222.811C 847.721 223.255 847.716 223.701 847.716 224.148L847.716 224.148L847.763 225.049L847.763 225.049L847.802 225.046L847.802 225.046L847.804 225.085zM960 221.776L960 211.3C 945.312 205.775 933.64 194.367 928.084 180L928.084 180L917.306 180C 923.665 199.836 939.675 215.481 960 221.776zM960 194.489L960 180L960 180L945.978 180C 951.567 183.881 956.315 188.819 960 194.489z" stroke="none" fill="#FFFFFF" fill-rule="evenodd" /><path id="4" transform="matrix(1 0 0 -1 0 540)" d="M659.631 125.503L661.131 125.503L661.131 53.50299L659.631 53.50299z" stroke="none" fill="#2E75B6" fill-rule="nonzero" /></g></g></g></svg>