<svg xmlns="http://www.w3.org/2000/svg" xmlns:xlink="http://www.w3.org/1999/xlink" id="body_6" preserveAspectRatio="xMinYMin meet" viewBox="0 0 1280 720"><defs><clipPath id="1"><path id="" clip-rule="evenodd" transform="matrix(1 0 0 1 0 0)" d="M0 540L0 0L0 0L960 0L960 0L960 540L960 540L0 540z" /></clipPath><clipPath id="2"><path id="" clip-rule="evenodd" transform="matrix(1 0 0 1 0 0)" d="M0 0L960 0L960 0L960 540L960 540L0 540z" /></clipPath></defs><g transform="matrix(1.333333 0 0 1.333333 0 0)"><g clip-path="url(#1)"><g clip-path="url(#2)"><path id="1" transform="matrix(1 0 0 -1 0 540)" d="M0 540L960 540L960 540L960 0L960 0L0 0z" stroke="none" fill="#FFFFFF" fill-rule="evenodd" /><path id="2" transform="matrix(1 0 0 -1 0 540)" d="M59.25 474.935L60.75 474.935L60.75 402.935L59.25 402.935z" stroke="none" fill="#5B9BD5" fill-rule="nonzero" /></g></g></g></svg>