<svg xmlns="http://www.w3.org/2000/svg" xmlns:xlink="http://www.w3.org/1999/xlink" id="body_8" preserveAspectRatio="xMinYMin meet" viewBox="0 0 1280 720"><defs><clipPath id="1"><path id="" clip-rule="evenodd" transform="matrix(1 0 0 1 0 0)" d="M0 540L0 0L0 0L960 0L960 0L960 540L960 540L0 540z" /></clipPath><clipPath id="2"><path id="" clip-rule="evenodd" transform="matrix(1 0 0 1 0 0)" d="M0 0L960 0L960 0L960 540L960 540L0 540z" /></clipPath></defs><g transform="matrix(1.333333 0 0 1.333333 0 0)"><g clip-path="url(#1)"><g clip-path="url(#2)"><path id="1" transform="matrix(1 0 0 -1 0 540)" d="M0 540L960 540L960 540L960 0L960 0L0 0z" stroke="none" fill="#FFFFFF" fill-rule="evenodd" /><path id="2" transform="matrix(1 0 0 -1 0 540)" d="M59.25 474.935L60.75 474.935L60.75 402.935L59.25 402.935z" stroke="none" fill="#5B9BD5" fill-rule="nonzero" /><path id="3" transform="matrix(1 0 0 -1 0 540)" d="M610.56 89.28C 610.67 105.192 623.578 118.1 639.501 118.1C 655.424 118.1 668.332 105.192 668.332 89.26901C 668.332 73.34601 655.424 60.43799 639.501 60.43799C 623.578 60.43799 610.67 73.34601 610.56 89.28" stroke="none" fill="#92D050" fill-rule="evenodd" /><path id="4" transform="matrix(1 0 0 -1 0 540)" d="M611.295 89.26099L611.295 89.27701L611.305 88.53299L611.304 88.548L611.332 87.80899L611.331 87.82501L611.378 87.09L611.377 87.10599L611.442 86.37601L611.44 86.392L611.523 85.668L611.521 85.68301L611.621 84.965L611.619 84.98001L611.737 84.267L611.734 84.28299L611.87 83.57599L611.867 83.591L612.019 82.89099L612.016 82.90601L612.185 82.21201L612.181 82.22699L612.367 81.539L612.363 81.55399L612.565 80.87399L612.561 80.888L612.779 80.215L612.775 80.23001L613.009 79.564L613.004 79.578L613.254 78.91901L613.249 78.93399L613.514 78.28299L613.508 78.297L613.79 77.65399L613.783 77.668L614.08 77.034L614.073 77.048L614.384 76.422L614.377 76.435L614.703 75.81799L614.695 75.83099L615.036 75.22299L615.028 75.23599L615.382 74.63699L615.374 74.64999L615.742 74.06L615.734 74.073L616.116 73.49301L616.108 73.505L616.503 72.935L616.494 72.94699L616.903 72.38699L616.894 72.39899L617.315 71.849L617.306 71.86099L617.741 71.32199L617.731 71.33301L618.178 70.80499L618.168 70.81601L618.627 70.29901L618.617 70.31L619.089 69.80301L619.078 69.814L619.562 69.319L619.551 69.32999L620.046 68.84601L620.035 68.85699L620.542 68.38501L620.531 68.39499L621.048 67.936L621.037 67.94601L621.565 67.49899L621.554 67.508L622.093 67.07401L622.081 67.08301L622.631 66.66199L622.619 66.67099L623.18 66.26199L623.167 66.271L623.737 65.87601L623.725 65.884L624.305 65.50201L624.292 65.51001L624.882 65.142L624.869 65.14999L625.468 64.79599L625.455 64.80301L626.063 64.46301L626.05 64.47101L626.667 64.14499L626.654 64.15201L627.28 63.841L627.266 63.84698L627.9 63.55099L627.887 63.55801L628.529 63.276L628.515 63.28201L629.166 63.017L629.152 63.022L629.81 62.772L629.796 62.77701L630.462 62.54199L630.447 62.547L631.121 62.32901L631.106 62.33301L631.786 62.13101L631.771 62.13501L632.459 61.94901L632.444 61.953L633.138 61.784L633.123 61.78699L633.823 61.63501L633.808 61.638L634.515 61.50201L634.5 61.505L635.212 61.38699L635.197 61.38901L635.916 61.289L635.9 61.29099L636.624 61.20801L636.608 61.20999L637.338 61.14499L637.322 61.146L638.057 61.099L638.041 61.10001L638.781 61.07199L638.765 61.073L639.509 61.06299L639.493 61.06299L640.237 61.073L640.221 61.07199L640.961 61.10001L640.945 61.099L641.68 61.146L641.664 61.14499L642.393 61.20999L642.378 61.20801L643.102 61.29099L643.086 61.289L643.805 61.38901L643.789 61.38699L644.502 61.505L644.487 61.50201L645.194 61.638L645.178 61.63501L645.879 61.78699L645.864 61.784L646.558 61.953L646.543 61.94901L647.23 62.13501L647.216 62.13101L647.896 62.33301L647.881 62.32901L648.555 62.547L648.54 62.54199L649.206 62.77701L649.192 62.772L649.85 63.022L649.836 63.017L650.487 63.28201L650.473 63.276L651.115 63.55801L651.101 63.55099L651.736 63.84698L651.722 63.841L652.348 64.15201L652.334 64.14499L652.952 64.47101L652.938 64.46301L653.547 64.80301L653.534 64.79599L654.133 65.14999L654.12 65.142L654.709 65.51001L654.697 65.50201L655.277 65.884L655.264 65.87601L655.835 66.271L655.822 66.26199L656.383 66.67099L656.371 66.66199L656.92 67.08301L656.909 67.07401L657.448 67.508L657.436 67.49899L657.965 67.94601L657.954 67.936L658.471 68.39499L658.46 68.38501L658.967 68.85699L658.956 68.84601L659.451 69.32999L659.44 69.319L659.923 69.814L659.913 69.80301L660.384 70.31L660.374 70.29901L660.834 70.81601L660.824 70.80499L661.271 71.33301L661.261 71.32199L661.696 71.86099L661.686 71.849L662.108 72.39899L662.099 72.38699L662.508 72.94699L662.499 72.935L662.894 73.505L662.886 73.49301L663.268 74.073L663.259 74.06L663.628 74.64999L663.62 74.63699L663.974 75.23599L663.966 75.22299L664.306 75.83099L664.299 75.81799L664.625 76.435L664.618 76.422L664.929 77.048L664.922 77.034L665.219 77.668L665.212 77.65399L665.493 78.297L665.487 78.28299L665.753 78.93399L665.748 78.91901L665.998 79.578L665.993 79.564L666.227 80.23001L666.222 80.215L666.441 80.888L666.436 80.87399L666.639 81.55399L666.635 81.539L666.821 82.22699L666.817 82.21201L666.986 82.90601L666.983 82.89099L667.135 83.591L667.132 83.57599L667.268 84.28299L667.265 84.267L667.383 84.98001L667.38 84.965L667.481 85.68301L667.479 85.668L667.562 86.392L667.56 86.37601L667.625 87.10599L667.624 87.09L667.67 87.82501L667.67 87.80899L667.698 88.548L667.697 88.53299L667.707 89.27701L667.707 89.26099L667.697 90.005L667.698 89.98901L667.67 90.729L667.67 90.71301L667.624 91.448L667.625 91.43201L667.56 92.16101L667.562 92.146L667.479 92.87L667.481 92.854L667.38 93.573L667.383 93.55701L667.265 94.26999L667.268 94.255L667.132 94.96201L667.135 94.94601L666.983 95.647L666.986 95.63199L666.817 96.32599L666.821 96.311L666.635 96.99799L666.639 96.983L666.436 97.664L666.441 97.64899L666.222 98.323L666.227 98.30801L665.993 98.974L665.998 98.95999L665.748 99.61801L665.753 99.604L665.487 100.255L665.493 100.241L665.212 100.883L665.219 100.869L664.922 101.504L664.929 101.49L664.618 102.116L664.625 102.102L664.299 102.72L664.306 102.706L663.966 103.315L663.974 103.301L663.62 103.901L663.628 103.888L663.259 104.477L663.268 104.465L662.886 105.045L662.894 105.032L662.499 105.603L662.508 105.59L662.099 106.15L662.108 106.138L661.686 106.688L661.696 106.677L661.261 107.216L661.271 107.204L660.824 107.733L660.834 107.722L660.374 108.239L660.384 108.228L659.913 108.734L659.923 108.724L659.44 109.219L659.451 109.208L658.956 109.691L658.967 109.681L658.46 110.152L658.471 110.142L657.954 110.602L657.965 110.592L657.436 111.039L657.448 111.029L656.909 111.464L656.92 111.454L656.371 111.876L656.383 111.867L655.822 112.275L655.835 112.267L655.264 112.662L655.277 112.654L654.697 113.035L654.709 113.027L654.12 113.395L654.133 113.388L653.534 113.742L653.547 113.734L652.938 114.074L652.952 114.067L652.334 114.393L652.348 114.386L651.722 114.697L651.736 114.69L651.101 114.986L651.115 114.98L650.473 115.261L650.487 115.255L649.836 115.521L649.85 115.516L649.192 115.766L649.206 115.761L648.54 115.995L648.555 115.99L647.881 116.209L647.896 116.204L647.216 116.407L647.23 116.403L646.543 116.589L646.558 116.585L645.864 116.754L645.879 116.751L645.178 116.903L645.194 116.9L644.487 117.035L644.502 117.033L643.789 117.151L643.805 117.148L643.086 117.249L643.102 117.247L642.378 117.33L642.393 117.328L641.664 117.393L641.68 117.392L640.945 117.438L640.961 117.438L640.221 117.466L640.237 117.465L639.493 117.475L639.509 117.475L638.765 117.465L638.781 117.466L638.041 117.438L638.057 117.438L637.322 117.392L637.338 117.393L636.608 117.328L636.624 117.33L635.9 117.247L635.916 117.249L635.197 117.148L635.212 117.151L634.5 117.033L634.515 117.035L633.808 116.9L633.823 116.903L633.123 116.751L633.138 116.754L632.444 116.585L632.459 116.589L631.771 116.403L631.786 116.407L631.106 116.204L631.121 116.209L630.447 115.99L630.462 115.995L629.796 115.761L629.81 115.766L629.152 115.516L629.166 115.521L628.515 115.255L628.529 115.261L627.887 114.98L627.9 114.986L627.266 114.69L627.28 114.697L626.654 114.386L626.667 114.393L626.05 114.067L626.063 114.074L625.455 113.734L625.468 113.742L624.869 113.388L624.882 113.395L624.292 113.027L624.305 113.035L623.725 112.654L623.737 112.662L623.167 112.267L623.18 112.275L622.619 111.867L622.631 111.876L622.081 111.454L622.093 111.464L621.554 111.029L621.565 111.039L621.037 110.592L621.048 110.602L620.531 110.142L620.542 110.152L620.035 109.681L620.046 109.691L619.551 109.208L619.562 109.219L619.078 108.724L619.089 108.734L618.617 108.228L618.627 108.239L618.168 107.722L618.178 107.733L617.731 107.204L617.741 107.216L617.306 106.677L617.315 106.688L616.894 106.138L616.903 106.15L616.494 105.59L616.503 105.603L616.108 105.032L616.116 105.045L615.734 104.465L615.742 104.477L615.374 103.888L615.382 103.901L615.028 103.301L615.036 103.315L614.695 102.706L614.703 102.72L614.377 102.102L614.384 102.116L614.073 101.49L614.08 101.504L613.783 100.869L613.79 100.883L613.508 100.241L613.514 100.255L613.249 99.604L613.254 99.61801L613.004 98.95999L613.009 98.974L612.775 98.30801L612.779 98.323L612.561 97.64899L612.565 97.664L612.363 96.983L612.367 96.99799L612.181 96.311L612.185 96.32599L612.016 95.63199L612.019 95.647L611.867 94.94601L611.87 94.96201L611.734 94.255L611.737 94.26999L611.619 93.55701L611.621 93.573L611.521 92.854L611.523 92.87L611.44 92.146L611.442 92.16101L611.377 91.43201L611.378 91.448L611.331 90.71301L611.332 90.729L611.304 89.98901L611.305 90.005L611.295 89.26099M610.055 90.021L610.055 90.03699L610.083 90.776L610.084 90.79199L610.131 91.52701L610.132 91.54199L610.197 92.272L610.198 92.28799L610.281 93.01199L610.283 93.02701L610.383 93.746L610.386 93.76199L610.504 94.47501L610.507 94.48999L610.642 95.19699L610.645 95.21201L610.798 95.91299L610.801 95.92801L610.971 96.62201L610.975 96.63699L611.161 97.32501L611.165 97.34L611.367 98.01999L611.372 98.035L611.591 98.70901L611.596 98.72299L611.83 99.38901L611.835 99.40399L612.086 100.062L612.091 100.077L612.357 100.727L612.363 100.742L612.644 101.384L612.651 101.398L612.947 102.033L612.954 102.046L613.265 102.672L613.271 102.686L613.597 103.303L613.604 103.316L613.944 103.924L613.952 103.938L614.306 104.537L614.314 104.55L614.682 105.139L614.69 105.152L615.072 105.732L615.08 105.744L615.476 106.315L615.484 106.327L615.893 106.887L615.902 106.899L616.323 107.449L616.333 107.461L616.767 108L616.776 108.011L617.223 108.54L617.233 108.551L617.692 109.069L617.702 109.08L618.174 109.586L618.184 109.597L618.667 110.092L618.678 110.102L619.173 110.586L619.184 110.596L619.69 111.067L619.701 111.077L620.219 111.537L620.23 111.546L620.758 111.993L620.77 112.003L621.309 112.437L621.321 112.446L621.871 112.868L621.883 112.877L622.443 113.285L622.455 113.294L623.025 113.689L623.038 113.698L623.618 114.08L623.63 114.088L624.22 114.456L624.233 114.464L624.832 114.818L624.845 114.825L625.454 115.165L625.467 115.173L626.084 115.498L626.098 115.505L626.724 115.816L626.737 115.823L627.372 116.119L627.386 116.125L628.028 116.406L628.042 116.412L628.693 116.678L628.707 116.684L629.366 116.934L629.38 116.94L630.046 117.174L630.061 117.179L630.735 117.398L630.749 117.402L631.43 117.605L631.445 117.609L632.132 117.795L632.148 117.799L632.842 117.968L632.857 117.972L633.558 118.125L633.573 118.128L634.28 118.263L634.295 118.266L635.008 118.384L635.024 118.386L635.742 118.487L635.758 118.489L636.482 118.572L636.498 118.573L637.227 118.638L637.243 118.639L637.978 118.686L637.994 118.687L638.733 118.715L638.749 118.715L639.493 118.724L639.509 118.724L640.253 118.715L640.269 118.715L641.008 118.687L641.024 118.686L641.759 118.639L641.774 118.638L642.504 118.573L642.52 118.572L643.244 118.489L643.26 118.487L643.978 118.386L643.994 118.384L644.707 118.266L644.722 118.263L645.429 118.128L645.444 118.125L646.145 117.972L646.16 117.968L646.854 117.799L646.869 117.795L647.557 117.609L647.572 117.605L648.253 117.402L648.267 117.398L648.941 117.179L648.955 117.174L649.622 116.94L649.636 116.934L650.295 116.684L650.309 116.678L650.96 116.412L650.974 116.406L651.616 116.125L651.63 116.119L652.265 115.823L652.278 115.816L652.904 115.505L652.918 115.498L653.535 115.173L653.548 115.165L654.157 114.825L654.17 114.818L654.769 114.464L654.782 114.456L655.371 114.088L655.384 114.08L655.964 113.698L655.977 113.689L656.547 113.294L656.559 113.285L657.119 112.877L657.131 112.868L657.681 112.446L657.693 112.437L658.232 112.003L658.243 111.993L658.772 111.546L658.783 111.537L659.301 111.077L659.312 111.067L659.818 110.596L659.829 110.586L660.324 110.102L660.334 110.092L660.818 109.597L660.828 109.586L661.299 109.08L661.309 109.069L661.769 108.551L661.778 108.54L662.225 108.011L662.235 108L662.669 107.461L662.678 107.449L663.1 106.899L663.109 106.887L663.518 106.327L663.526 106.315L663.921 105.744L663.93 105.732L664.312 105.152L664.32 105.139L664.688 104.55L664.696 104.537L665.05 103.938L665.057 103.924L665.397 103.316L665.405 103.303L665.73 102.686L665.737 102.672L666.048 102.046L666.055 102.033L666.351 101.398L666.357 101.384L666.639 100.742L666.645 100.727L666.91 100.077L666.916 100.062L667.166 99.40399L667.172 99.38901L667.406 98.72299L667.411 98.70901L667.63 98.035L667.635 98.01999L667.837 97.34L667.841 97.32501L668.027 96.63699L668.031 96.62201L668.201 95.92801L668.204 95.91299L668.357 95.21201L668.36 95.19699L668.495 94.48999L668.498 94.47501L668.616 93.76199L668.618 93.746L668.719 93.02701L668.721 93.01199L668.804 92.28799L668.805 92.272L668.87 91.54199L668.871 91.52701L668.918 90.79199L668.919 90.776L668.947 90.03699L668.947 90.021L668.957 89.27701L668.957 89.26099L668.947 88.517L668.947 88.50101L668.919 87.76099L668.918 87.746L668.871 87.01099L668.87 86.995L668.805 86.26599L668.804 86.25L668.721 85.526L668.719 85.51001L668.618 84.79199L668.616 84.776L668.498 84.06299L668.495 84.048L668.36 83.341L668.357 83.32599L668.204 82.625L668.201 82.60999L668.031 81.91501L668.027 81.89999L667.841 81.21301L667.837 81.198L667.635 80.517L667.63 80.50201L667.411 79.82901L667.406 79.814L667.172 79.14801L667.166 79.134L666.916 78.47501L666.91 78.461L666.645 77.81L666.639 77.79599L666.357 77.15302L666.351 77.14001L666.055 76.505L666.048 76.491L665.737 75.86499L665.73 75.85199L665.405 75.23499L665.397 75.22101L665.057 74.61301L665.05 74.60001L664.696 74.00101L664.688 73.98801L664.32 73.39801L664.312 73.38599L663.93 72.806L663.921 72.793L663.526 72.22299L663.518 72.211L663.109 71.651L663.1 71.63901L662.678 71.08899L662.669 71.077L662.235 70.53799L662.225 70.526L661.778 69.99799L661.769 69.98599L661.309 69.46899L661.299 69.45801L660.828 68.952L660.818 68.94101L660.334 68.44601L660.324 68.435L659.829 67.952L659.818 67.94199L659.312 67.47L659.301 67.45999L658.783 67.00101L658.772 66.991L658.243 66.54401L658.232 66.535L657.693 66.10101L657.681 66.091L657.131 65.67001L657.119 65.66101L656.559 65.25201L656.547 65.24399L655.977 64.84799L655.964 64.84L655.384 64.45801L655.371 64.45001L654.782 64.082L654.769 64.07401L654.17 63.72L654.157 63.71201L653.548 63.37201L653.535 63.36499L652.918 63.039L652.904 63.03299L652.278 62.72101L652.265 62.715L651.63 62.41901L651.616 62.41199L650.974 62.13101L650.96 62.125L650.309 61.85901L650.295 61.854L649.636 61.603L649.622 61.59799L648.955 61.36301L648.941 61.358L648.267 61.14001L648.253 61.13501L647.572 60.93301L647.557 60.92899L646.869 60.742L646.854 60.73901L646.16 60.569L646.145 60.56601L645.444 60.41299L645.429 60.41L644.722 60.27499L644.707 60.272L643.994 60.15399L643.978 60.151L643.26 60.05099L643.244 60.04901L642.52 59.966L642.504 59.96399L641.774 59.89999L641.759 59.89801L641.024 59.85199L641.008 59.85101L640.269 59.823L640.253 59.823L639.509 59.81299L639.493 59.81299L638.749 59.823L638.733 59.823L637.994 59.85101L637.978 59.85199L637.243 59.89801L637.227 59.89999L636.498 59.96399L636.482 59.966L635.758 60.04901L635.742 60.05099L635.024 60.151L635.008 60.15399L634.295 60.272L634.28 60.27499L633.573 60.41L633.558 60.41299L632.857 60.56601L632.842 60.569L632.148 60.73901L632.132 60.742L631.445 60.92899L631.43 60.93301L630.749 61.13501L630.735 61.14001L630.061 61.358L630.046 61.36301L629.38 61.59799L629.366 61.603L628.707 61.854L628.693 61.85901L628.042 62.125L628.028 62.13101L627.386 62.41199L627.372 62.41901L626.737 62.715L626.724 62.72101L626.098 63.03299L626.084 63.039L625.467 63.36499L625.454 63.37201L624.845 63.71201L624.832 63.72L624.233 64.07401L624.22 64.082L623.63 64.45001L623.618 64.45801L623.038 64.84L623.025 64.84799L622.455 65.24399L622.443 65.25201L621.883 65.66101L621.871 65.67001L621.321 66.091L621.309 66.10101L620.77 66.535L620.758 66.54401L620.23 66.991L620.219 67.00101L619.701 67.45999L619.69 67.47L619.184 67.94199L619.173 67.952L618.678 68.435L618.667 68.44601L618.184 68.94101L618.174 68.952L617.702 69.45801L617.692 69.46899L617.233 69.98599L617.223 69.99799L616.776 70.526L616.767 70.53799L616.333 71.077L616.323 71.08899L615.902 71.63901L615.893 71.651L615.484 72.211L615.476 72.22299L615.08 72.793L615.072 72.806L614.69 73.38599L614.682 73.39801L614.314 73.98801L614.306 74.00101L613.952 74.60001L613.944 74.61301L613.604 75.22101L613.597 75.23499L613.271 75.85199L613.265 75.86499L612.954 76.491L612.947 76.505L612.651 77.14001L612.644 77.15302L612.363 77.79599L612.357 77.81L612.091 78.461L612.086 78.47501L611.835 79.134L611.83 79.14801L611.596 79.814L611.591 79.82901L611.372 80.50201L611.367 80.517L611.165 81.198L611.161 81.21301L610.975 81.89999L610.971 81.91501L610.801 82.60999L610.798 82.625L610.645 83.32599L610.642 83.341L610.507 84.048L610.504 84.06299L610.386 84.776L610.383 84.79199L610.283 85.51001L610.281 85.526L610.198 86.25L610.197 86.26599L610.132 86.995L610.131 87.01099L610.084 87.746L610.083 87.76099L610.055 88.50101L610.055 88.517L610.045 89.26099L610.045 89.27701L610.055 90.021z" stroke="none" fill="#6A9838" fill-rule="nonzero" /><path id="62" transform="matrix(1 0 0 -1 0 540)" d="M214.32 103.68C 214.351 137.184 241.458 164.291 274.897 164.291C 308.335 164.291 335.442 137.184 335.442 103.745C 335.442 70.30701 308.335 43.20001 274.897 43.20001C 241.458 43.20001 214.351 70.30701 214.32 103.68" stroke="none" fill="#92D050" fill-rule="evenodd" /><path id="63" transform="matrix(1 0 0 -1 0 540)" d="M214.976 103.741L214.976 103.749L214.981 102.967L214.981 102.975L214.996 102.195L214.996 102.203L215.02 101.425L215.02 101.433L215.054 100.657L215.054 100.669L215.151 99.12701L215.15 99.142L215.286 97.60999L215.285 97.62601L215.459 96.10501L215.457 96.121L215.668 94.612L215.665 94.62701L215.913 93.13L215.911 93.146L216.195 91.66101L216.192 91.67599L216.512 90.20499L216.509 90.22L216.865 88.76199L216.861 88.77701L217.251 87.33401L217.247 87.349L217.672 85.91901L217.668 85.93399L218.127 84.51999L218.122 84.534L218.615 83.13501L218.609 83.14999L219.135 81.767L219.129 81.78101L219.688 80.41501L219.682 80.42899L220.272 79.07901L220.266 79.09299L220.888 77.76099L220.881 77.77499L221.535 76.45999L221.528 76.474L222.211 75.17801L222.204 75.19101L222.918 73.914L222.911 73.927L223.655 72.66901L223.647 72.681L224.42 71.44299L224.412 71.45599L225.213 70.23801L225.205 70.25L226.035 69.05301L226.026 69.065L226.884 67.888L226.875 67.89999L227.761 66.746L227.751 66.758L228.664 65.625L228.654 65.63599L229.593 64.526L229.583 64.53799L230.547 63.45099L230.537 63.46201L231.527 62.39899L231.517 62.409L232.532 61.37L232.521 61.38101L233.561 60.366L233.55 60.37601L234.613 59.38599L234.602 59.396L235.689 58.43201L235.678 58.44101L236.788 57.50299L236.776 57.51199L237.909 56.60001L237.897 56.60901L239.052 55.724L239.04 55.733L240.216 54.875L240.204 54.884L241.401 54.05399L241.389 54.06201L242.607 53.26001L242.594 53.26901L243.833 52.496L243.82 52.50299L245.078 51.76001L245.065 51.767L246.342 51.05301L246.329 51.06L247.625 50.37601L247.611 50.383L248.926 49.73001L248.912 49.737L250.244 49.11499L250.23 49.121L251.58 48.53101L251.566 48.53699L252.933 47.978L252.918 47.98401L254.301 47.45801L254.287 47.46301L255.686 46.97101L255.671 46.97601L257.085 46.51599L257.07 46.521L258.5 46.09601L258.485 46.10001L259.929 45.70901L259.914 45.71301L261.371 45.358L261.356 45.36099L262.828 45.04099L262.812 45.04401L264.297 44.759L264.281 44.76199L265.778 44.51401L265.763 44.517L267.272 44.30499L267.256 44.30701L268.777 44.134L268.761 44.13501L270.294 43.99899L270.278 44L271.82 43.90302L271.809 43.90302L272.584 43.86899L272.576 43.86899L273.354 43.84399L273.346 43.845L274.126 43.82999L274.118 43.82999L274.901 43.82501L274.893 43.82501L275.675 43.82999L275.667 43.82999L276.447 43.845L276.44 43.84399L277.217 43.86899L277.209 43.86899L277.985 43.90302L277.973 43.90302L279.515 44L279.5 43.99899L281.032 44.13501L281.016 44.134L282.537 44.30701L282.521 44.30499L284.03 44.517L284.015 44.51401L285.512 44.76199L285.497 44.759L286.981 45.04401L286.966 45.04099L288.437 45.36099L288.422 45.358L289.88 45.71301L289.865 45.70901L291.308 46.10001L291.293 46.09601L292.723 46.521L292.708 46.51599L294.122 46.97601L294.108 46.97101L295.507 47.46301L295.492 47.45801L296.875 47.98401L296.861 47.978L298.227 48.53699L298.213 48.53101L299.563 49.121L299.549 49.11499L300.881 49.737L300.867 49.73001L302.182 50.383L302.168 50.37601L303.465 51.06L303.451 51.05301L304.729 51.767L304.715 51.76001L305.974 52.50299L305.961 52.496L307.199 53.26901L307.186 53.26001L308.405 54.06201L308.392 54.05399L309.59 54.884L309.577 54.875L310.754 55.733L310.742 55.724L311.896 56.60901L311.885 56.60001L313.017 57.51199L313.006 57.50299L314.116 58.44101L314.104 58.43201L315.191 59.396L315.18 59.38599L316.243 60.37601L316.233 60.366L317.272 61.38101L317.262 61.37L318.276 62.409L318.266 62.39899L319.256 63.46201L319.246 63.45099L320.21 64.53799L320.201 64.526L321.139 65.63599L321.13 65.625L322.042 66.758L322.033 66.746L322.918 67.89999L322.909 67.888L323.767 69.065L323.758 69.05301L324.588 70.25L324.58 70.23801L325.382 71.45599L325.373 71.44299L326.146 72.681L326.139 72.66901L326.882 73.927L326.875 73.914L327.589 75.19101L327.582 75.17801L328.266 76.474L328.259 76.45999L328.912 77.77499L328.905 77.76099L329.527 79.09299L329.521 79.07901L330.111 80.42899L330.105 80.41501L330.664 81.78101L330.658 81.767L331.184 83.14999L331.179 83.13501L331.671 84.534L331.666 84.51999L332.126 85.93399L332.121 85.91901L332.546 87.349L332.542 87.33401L332.933 88.77701L332.929 88.76199L333.284 90.22L333.281 90.20499L333.601 91.67599L333.598 91.66101L333.883 93.146L333.88 93.13L334.128 94.62701L334.125 94.612L334.337 96.121L334.335 96.10501L334.508 97.62601L334.507 97.60999L334.643 99.142L334.642 99.12701L334.74 100.669L334.739 100.657L334.773 101.433L334.773 101.425L334.798 102.203L334.797 102.195L334.812 102.975L334.812 102.967L334.817 103.749L334.817 103.741L334.812 104.524L334.812 104.516L334.797 105.296L334.798 105.288L334.773 106.066L334.773 106.058L334.739 106.833L334.74 106.822L334.642 108.364L334.643 108.349L334.507 109.881L334.508 109.865L334.335 111.386L334.337 111.37L334.125 112.879L334.128 112.864L333.88 114.361L333.883 114.345L333.598 115.83L333.601 115.815L333.281 117.286L333.284 117.271L332.929 118.729L332.933 118.713L332.542 120.157L332.546 120.142L332.121 121.572L332.126 121.557L331.666 122.971L331.671 122.956L331.179 124.355L331.184 124.341L330.658 125.724L330.664 125.71L330.105 127.076L330.111 127.062L329.521 128.412L329.527 128.398L328.905 129.73L328.912 129.716L328.259 131.031L328.266 131.017L327.582 132.313L327.589 132.3L326.875 133.577L326.882 133.564L326.139 134.822L326.146 134.809L325.373 136.048L325.382 136.035L324.58 137.253L324.588 137.241L323.758 138.438L323.767 138.426L322.909 139.602L322.918 139.59L322.033 140.745L322.042 140.733L321.13 141.866L321.139 141.854L320.201 142.964L320.21 142.953L319.246 144.04L319.256 144.029L318.266 145.092L318.276 145.082L317.262 146.121L317.272 146.11L316.233 147.125L316.243 147.115L315.18 148.105L315.191 148.095L314.104 149.059L314.116 149.049L313.006 149.988L313.017 149.978L311.885 150.891L311.896 150.881L310.742 151.767L310.754 151.758L309.577 152.616L309.59 152.607L308.392 153.437L308.405 153.429L307.186 154.23L307.199 154.222L305.961 154.995L305.974 154.987L304.715 155.731L304.729 155.724L303.451 156.438L303.465 156.431L302.168 157.114L302.182 157.108L300.867 157.761L300.881 157.754L299.549 158.376L299.563 158.37L298.213 158.96L298.227 158.954L296.861 159.513L296.875 159.507L295.492 160.033L295.507 160.027L294.108 160.52L294.122 160.515L292.708 160.974L292.723 160.97L291.293 161.395L291.308 161.391L289.865 161.781L289.88 161.778L288.422 162.133L288.437 162.13L286.966 162.45L286.981 162.447L285.497 162.731L285.512 162.729L284.015 162.977L284.03 162.974L282.521 163.185L282.537 163.183L281.016 163.357L281.032 163.356L279.5 163.492L279.515 163.491L277.973 163.588L277.985 163.588L277.209 163.622L277.217 163.622L276.44 163.646L276.447 163.646L275.667 163.661L275.675 163.661L274.893 163.666L274.901 163.666L274.118 163.661L274.126 163.661L273.346 163.646L273.354 163.646L272.576 163.622L272.584 163.622L271.809 163.588L271.82 163.588L270.278 163.491L270.294 163.492L268.761 163.356L268.777 163.357L267.256 163.183L267.272 163.185L265.763 162.974L265.778 162.977L264.281 162.729L264.297 162.731L262.812 162.447L262.828 162.45L261.356 162.13L261.371 162.133L259.914 161.778L259.929 161.781L258.485 161.391L258.5 161.395L257.07 160.97L257.085 160.974L255.671 160.515L255.686 160.52L254.287 160.027L254.301 160.033L252.918 159.507L252.933 159.513L251.566 158.954L251.58 158.96L250.23 158.37L250.244 158.376L248.912 157.754L248.926 157.761L247.611 157.108L247.625 157.114L246.329 156.431L246.342 156.438L245.065 155.724L245.078 155.731L243.82 154.987L243.833 154.995L242.594 154.222L242.607 154.23L241.389 153.429L241.401 153.437L240.204 152.607L240.216 152.616L239.04 151.758L239.052 151.767L237.897 150.881L237.909 150.891L236.776 149.978L236.788 149.988L235.678 149.049L235.689 149.059L234.602 148.095L234.613 148.105L233.55 147.115L233.561 147.125L232.521 146.11L232.532 146.121L231.517 145.082L231.527 145.092L230.537 144.029L230.547 144.04L229.583 142.953L229.593 142.964L228.654 141.854L228.664 141.866L227.751 140.733L227.761 140.745L226.875 139.59L226.884 139.602L226.026 138.426L226.035 138.438L225.205 137.241L225.213 137.253L224.412 136.035L224.42 136.048L223.647 134.809L223.655 134.822L222.911 133.564L222.918 133.577L222.204 132.3L222.211 132.313L221.528 131.017L221.535 131.031L220.881 129.716L220.888 129.73L220.266 128.398L220.272 128.412L219.682 127.062L219.688 127.076L219.129 125.71L219.135 125.724L218.609 124.341L218.615 124.355L218.122 122.956L218.127 122.971L217.668 121.557L217.672 121.572L217.247 120.142L217.251 120.157L216.861 118.713L216.865 118.729L216.509 117.271L216.512 117.286L216.192 115.815L216.195 115.83L215.911 114.345L215.913 114.361L215.665 112.864L215.668 112.879L215.457 111.37L215.459 111.386L215.285 109.865L215.286 109.881L215.15 108.349L215.151 108.364L215.054 106.822L215.054 106.833L215.02 106.058L215.02 106.066L214.996 105.288L214.996 105.296L214.981 104.516L214.981 104.524L214.976 103.741M213.731 104.532L213.731 104.54L213.746 105.32L213.746 105.328L213.771 106.106L213.771 106.114L213.806 106.889L213.806 106.901L213.904 108.443L213.905 108.459L214.041 109.991L214.043 110.007L214.217 111.528L214.219 111.543L214.43 113.053L214.432 113.068L214.68 114.565L214.683 114.581L214.967 116.065L214.971 116.08L215.291 117.552L215.294 117.567L215.65 119.025L215.654 119.04L216.045 120.484L216.049 120.499L216.474 121.928L216.479 121.943L216.938 123.357L216.943 123.372L217.436 124.771L217.441 124.785L217.967 126.168L217.972 126.182L218.531 127.549L218.537 127.563L219.127 128.913L219.133 128.927L219.755 130.259L219.762 130.273L220.415 131.587L220.422 131.6L221.106 132.897L221.113 132.91L221.827 134.187L221.835 134.2L222.579 135.459L222.586 135.471L223.359 136.71L223.368 136.722L224.169 137.941L224.178 137.953L225.008 139.151L225.017 139.163L225.874 140.339L225.883 140.351L226.769 141.506L226.778 141.517L227.69 142.65L227.7 142.661L228.638 143.771L228.648 143.783L229.612 144.87L229.622 144.881L230.612 145.944L230.622 145.955L231.637 146.994L231.648 147.005L232.687 148.02L232.698 148.03L233.761 149.02L233.772 149.03L234.859 149.994L234.871 150.004L235.981 150.942L235.992 150.952L237.125 151.864L237.136 151.873L238.291 152.759L238.303 152.768L239.479 153.626L239.492 153.634L240.689 154.464L240.701 154.473L241.92 155.275L241.932 155.283L243.171 156.056L243.184 156.064L244.442 156.807L244.455 156.815L245.732 157.529L245.745 157.536L247.042 158.22L247.055 158.227L248.37 158.88L248.383 158.887L249.716 159.509L249.729 159.515L251.079 160.105L251.093 160.111L252.46 160.67L252.474 160.675L253.857 161.201L253.871 161.206L255.27 161.699L255.285 161.704L256.699 162.163L256.714 162.168L258.143 162.593L258.158 162.597L259.602 162.988L259.617 162.992L261.075 163.348L261.09 163.351L262.562 163.671L262.577 163.675L264.061 163.959L264.077 163.962L265.574 164.21L265.59 164.212L267.099 164.423L267.114 164.425L268.635 164.599L268.651 164.601L270.183 164.737L270.199 164.738L271.741 164.836L271.753 164.836L272.529 164.871L272.536 164.871L273.314 164.896L273.322 164.896L274.102 164.911L274.11 164.911L274.893 164.916L274.901 164.916L275.683 164.911L275.691 164.911L276.471 164.896L276.479 164.896L277.257 164.871L277.265 164.871L278.04 164.836L278.052 164.836L279.595 164.738L279.61 164.737L281.142 164.601L281.158 164.599L282.679 164.425L282.694 164.423L284.204 164.212L284.219 164.21L285.716 163.962L285.732 163.959L287.216 163.675L287.232 163.671L288.703 163.351L288.718 163.348L290.176 162.992L290.191 162.988L291.635 162.597L291.65 162.593L293.079 162.168L293.094 162.163L294.508 161.704L294.523 161.699L295.922 161.206L295.936 161.201L297.319 160.675L297.333 160.67L298.7 160.111L298.714 160.105L300.064 159.515L300.078 159.509L301.41 158.887L301.424 158.88L302.738 158.227L302.752 158.22L304.048 157.536L304.061 157.529L305.339 156.815L305.352 156.807L306.61 156.064L306.623 156.056L307.861 155.283L307.874 155.275L309.092 154.473L309.104 154.464L310.302 153.634L310.314 153.626L311.49 152.768L311.502 152.759L312.657 151.873L312.669 151.864L313.801 150.952L313.813 150.942L314.923 150.004L314.934 149.994L316.021 149.03L316.032 149.02L317.095 148.03L317.106 148.02L318.145 147.005L318.156 146.994L319.171 145.955L319.181 145.944L320.171 144.881L320.181 144.87L321.145 143.783L321.155 143.771L322.094 142.661L322.103 142.65L323.015 141.517L323.025 141.506L323.91 140.351L323.919 140.339L324.777 139.163L324.785 139.151L325.615 137.953L325.624 137.941L326.426 136.722L326.434 136.71L327.207 135.471L327.215 135.459L327.958 134.2L327.966 134.187L328.68 132.91L328.687 132.897L329.371 131.6L329.378 131.587L330.031 130.273L330.038 130.259L330.66 128.927L330.666 128.913L331.257 127.563L331.263 127.549L331.821 126.182L331.827 126.168L332.352 124.785L332.358 124.771L332.85 123.372L332.855 123.357L333.314 121.943L333.319 121.928L333.744 120.499L333.749 120.484L334.139 119.04L334.143 119.025L334.499 117.567L334.502 117.552L334.823 116.08L334.826 116.065L335.11 114.581L335.113 114.565L335.361 113.068L335.363 113.053L335.575 111.543L335.577 111.528L335.75 110.007L335.752 109.991L335.888 108.459L335.889 108.443L335.987 106.901L335.988 106.889L336.022 106.114L336.022 106.106L336.047 105.328L336.047 105.32L336.062 104.54L336.062 104.532L336.067 103.749L336.067 103.741L336.062 102.959L336.062 102.951L336.047 102.171L336.047 102.163L336.022 101.385L336.022 101.377L335.988 100.602L335.987 100.59L335.889 99.048L335.888 99.03201L335.752 97.5L335.75 97.48401L335.577 95.96301L335.575 95.948L335.363 94.43799L335.361 94.423L335.113 92.92599L335.11 92.91L334.826 91.42599L334.823 91.41L334.502 89.939L334.499 89.92401L334.143 88.466L334.139 88.45099L333.749 87.00699L333.744 86.992L333.319 85.56299L333.314 85.548L332.855 84.134L332.85 84.11899L332.358 82.72L332.352 82.70599L331.827 81.323L331.821 81.30899L331.263 79.94199L331.257 79.92801L330.666 78.578L330.66 78.564L330.038 77.23199L330.031 77.21799L329.378 75.90399L329.371 75.89001L328.687 74.59399L328.68 74.58099L327.966 73.30399L327.958 73.29001L327.215 72.03201L327.207 72.01901L326.434 70.78101L326.426 70.76801L325.624 69.54999L325.615 69.53799L324.785 68.34L324.777 68.328L323.919 67.15201L323.91 67.14001L323.025 65.98499L323.015 65.97299L322.103 64.841L322.094 64.82901L321.155 63.71899L321.145 63.70801L320.181 62.621L320.171 62.60999L319.181 61.547L319.171 61.53601L318.156 60.49701L318.145 60.48599L317.106 59.47101L317.095 59.461L316.032 58.47101L316.021 58.461L314.934 57.49701L314.923 57.487L313.813 56.548L313.801 56.539L312.669 55.62701L312.657 55.617L311.502 54.73199L311.49 54.72299L310.314 53.86499L310.302 53.85699L309.104 53.02701L309.092 53.01801L307.874 52.216L307.861 52.20801L306.623 51.435L306.61 51.427L305.352 50.68399L305.339 50.67599L304.061 49.96201L304.048 49.95499L302.752 49.271L302.738 49.26401L301.424 48.61099L301.41 48.604L300.078 47.98199L300.064 47.97601L298.714 47.38501L298.7 47.379L297.333 46.82101L297.319 46.815L295.936 46.29001L295.922 46.284L294.523 45.79199L294.508 45.78699L293.094 45.328L293.079 45.323L291.65 44.89801L291.635 44.89401L290.191 44.50299L290.176 44.49899L288.718 44.14301L288.703 44.14001L287.232 43.819L287.216 43.81601L285.732 43.53201L285.716 43.52899L284.219 43.28101L284.204 43.27899L282.694 43.06699L282.679 43.065L281.158 42.892L281.142 42.89001L279.61 42.754L279.595 42.75299L278.052 42.655L278.04 42.65399L277.265 42.62L277.257 42.62L276.479 42.595L276.471 42.595L275.691 42.57999L275.683 42.57999L274.901 42.57501L274.893 42.57501L274.11 42.57999L274.102 42.57999L273.322 42.595L273.314 42.595L272.536 42.62L272.529 42.62L271.753 42.65399L271.741 42.655L270.199 42.75299L270.183 42.754L268.651 42.89001L268.635 42.892L267.114 43.065L267.099 43.06699L265.59 43.27899L265.574 43.28101L264.077 43.52899L264.061 43.53201L262.577 43.81601L262.562 43.819L261.09 44.14001L261.075 44.14301L259.617 44.49899L259.602 44.50299L258.158 44.89401L258.143 44.89801L256.714 45.323L256.699 45.328L255.285 45.78699L255.27 45.79199L253.871 46.284L253.857 46.29001L252.474 46.815L252.46 46.82101L251.093 47.379L251.079 47.38501L249.729 47.97601L249.716 47.98199L248.383 48.604L248.37 48.61099L247.055 49.26401L247.042 49.271L245.745 49.95499L245.732 49.96201L244.455 50.67599L244.442 50.68399L243.184 51.427L243.171 51.435L241.932 52.20801L241.92 52.216L240.701 53.01801L240.689 53.02701L239.492 53.85699L239.479 53.86499L238.303 54.72299L238.291 54.73199L237.136 55.617L237.125 55.62701L235.992 56.539L235.981 56.548L234.871 57.487L234.859 57.49701L233.772 58.461L233.761 58.47101L232.698 59.461L232.687 59.47101L231.648 60.48599L231.637 60.49701L230.622 61.53601L230.612 61.547L229.622 62.60999L229.612 62.621L228.648 63.70801L228.638 63.71899L227.7 64.82901L227.69 64.841L226.778 65.97299L226.769 65.98499L225.883 67.14001L225.874 67.15201L225.017 68.328L225.008 68.34L224.178 69.53799L224.169 69.54999L223.368 70.76801L223.359 70.78101L222.586 72.01901L222.579 72.03201L221.835 73.29001L221.827 73.30399L221.113 74.58099L221.106 74.59399L220.422 75.89001L220.415 75.90399L219.762 77.21799L219.755 77.23199L219.133 78.564L219.127 78.578L218.537 79.92801L218.531 79.94199L217.972 81.30899L217.967 81.323L217.441 82.70599L217.436 82.72L216.943 84.11899L216.938 84.134L216.479 85.548L216.474 85.56299L216.049 86.992L216.045 87.00699L215.654 88.45099L215.65 88.466L215.294 89.92401L215.291 89.939L214.971 91.41L214.967 91.42599L214.683 92.91L214.68 92.92599L214.432 94.423L214.43 94.43799L214.219 95.948L214.217 95.96301L214.043 97.48401L214.041 97.5L213.905 99.03201L213.904 99.048L213.806 100.59L213.806 100.602L213.771 101.377L213.771 101.385L213.746 102.163L213.746 102.171L213.731 102.951L213.731 102.959L213.726 103.741L213.726 103.749L213.731 104.532z" stroke="none" fill="#6A9838" fill-rule="nonzero" /><path id="64" transform="matrix(1 0 0 -1 0 540)" d="M271.68 103.68C 271.624 105.553 273.089 107.018 274.897 107.018C 276.704 107.018 278.169 105.553 278.169 103.746C 278.169 101.938 276.704 100.473 274.897 100.473C 273.089 100.473 271.624 101.938 271.68 103.68" stroke="none" fill="#5B9BD5" fill-rule="evenodd" /><path id="65" transform="matrix(1 0 0 -1 0 540)" d="M272.248 103.714L272.248 103.777L272.265 103.442L272.259 103.505L272.308 103.18L272.296 103.242L272.376 102.928L272.358 102.987L272.468 102.686L272.444 102.743L272.582 102.457L272.553 102.51L272.717 102.24L272.683 102.29L272.872 102.038L272.834 102.084L273.045 101.852L273.003 101.894L273.235 101.683L273.189 101.721L273.441 101.532L273.391 101.566L273.661 101.402L273.608 101.431L273.894 101.293L273.838 101.317L274.138 101.207L274.079 101.225L274.393 101.145L274.331 101.157L274.656 101.108L274.594 101.114L274.928 101.097L274.865 101.097L275.2 101.114L275.137 101.108L275.462 101.157L275.401 101.145L275.714 101.225L275.655 101.207L275.956 101.317L275.899 101.293L276.185 101.431L276.132 101.402L276.402 101.566L276.352 101.532L276.604 101.721L276.558 101.683L276.79 101.894L276.748 101.852L276.959 102.084L276.921 102.038L277.11 102.29L277.076 102.24L277.24 102.51L277.211 102.457L277.349 102.743L277.325 102.686L277.435 102.987L277.417 102.928L277.497 103.242L277.485 103.18L277.535 103.505L277.528 103.442L277.545 103.777L277.545 103.714L277.528 104.049L277.535 103.986L277.485 104.311L277.497 104.249L277.417 104.563L277.435 104.504L277.325 104.805L277.349 104.748L277.211 105.034L277.24 104.981L277.076 105.251L277.11 105.201L276.921 105.453L276.959 105.407L276.748 105.639L276.79 105.597L276.558 105.808L276.604 105.77L276.352 105.959L276.402 105.925L276.132 106.089L276.185 106.06L275.899 106.198L275.956 106.174L275.655 106.284L275.714 106.266L275.401 106.346L275.462 106.334L275.137 106.383L275.2 106.377L274.865 106.394L274.928 106.394L274.594 106.377L274.656 106.383L274.331 106.334L274.393 106.346L274.079 106.266L274.138 106.284L273.838 106.174L273.894 106.198L273.608 106.06L273.661 106.089L273.391 105.925L273.441 105.959L273.189 105.77L273.235 105.808L273.003 105.597L273.045 105.639L272.834 105.407L272.872 105.453L272.683 105.201L272.717 105.251L272.553 104.981L272.582 105.034L272.444 104.748L272.468 104.805L272.358 104.504L272.376 104.563L272.296 104.249L272.308 104.311L272.259 103.986L272.265 104.049L272.248 103.714M271.017 104.112L271.023 104.174L271.073 104.499L271.085 104.561L271.166 104.874L271.184 104.934L271.294 105.234L271.318 105.291L271.456 105.577L271.485 105.63L271.649 105.9L271.682 105.95L271.871 106.202L271.909 106.248L272.12 106.48L272.162 106.522L272.394 106.733L272.441 106.771L272.693 106.96L272.742 106.993L273.012 107.157L273.065 107.186L273.351 107.324L273.408 107.348L273.709 107.458L273.768 107.476L274.081 107.557L274.143 107.57L274.468 107.619L274.53 107.626L274.865 107.642L274.928 107.642L275.263 107.626L275.326 107.619L275.65 107.57L275.712 107.557L276.025 107.476L276.085 107.458L276.385 107.348L276.442 107.324L276.728 107.186L276.781 107.157L277.051 106.993L277.101 106.96L277.353 106.771L277.399 106.733L277.631 106.522L277.673 106.48L277.884 106.248L277.923 106.202L278.111 105.95L278.145 105.9L278.308 105.63L278.337 105.577L278.475 105.291L278.499 105.234L278.609 104.934L278.627 104.874L278.708 104.561L278.721 104.499L278.77 104.174L278.777 104.112L278.794 103.777L278.794 103.714L278.777 103.379L278.77 103.317L278.721 102.992L278.708 102.93L278.627 102.617L278.609 102.557L278.499 102.257L278.475 102.2L278.337 101.914L278.308 101.861L278.145 101.591L278.111 101.541L277.923 101.289L277.884 101.243L277.673 101.011L277.631 100.969L277.399 100.758L277.353 100.72L277.101 100.531L277.051 100.498L276.781 100.334L276.728 100.305L276.442 100.167L276.385 100.143L276.085 100.033L276.025 100.015L275.712 99.93399L275.65 99.92099L275.326 99.87201L275.263 99.86499L274.928 99.849L274.865 99.849L274.53 99.86499L274.468 99.87201L274.143 99.92099L274.081 99.93399L273.768 100.015L273.709 100.033L273.408 100.143L273.351 100.167L273.065 100.305L273.012 100.334L272.742 100.498L272.693 100.531L272.441 100.72L272.394 100.758L272.162 100.969L272.12 101.011L271.909 101.243L271.871 101.289L271.682 101.541L271.649 101.591L271.485 101.861L271.456 101.914L271.318 102.2L271.294 102.257L271.184 102.557L271.166 102.617L271.085 102.93L271.073 102.992L271.023 103.317L271.017 103.379L271 103.714L271 103.777L271.017 104.112z" stroke="none" fill="#41719C" fill-rule="nonzero" /><path id="66" transform="matrix(1 0 0 -1 0 540)" d="M332.16 103.68C 332.169 105.553 333.635 107.018 335.442 107.018C 337.249 107.018 338.715 105.553 338.715 103.746C 338.715 101.938 337.249 100.473 335.442 100.473C 333.635 100.473 332.169 101.938 332.16 103.68" stroke="none" fill="#000000" fill-rule="evenodd" /><path id="67" transform="matrix(1 0 0 -1 0 540)" d="M332.793 103.714L332.793 103.777L332.81 103.442L332.804 103.505L332.854 103.18L332.841 103.242L332.922 102.928L332.903 102.987L333.013 102.686L332.99 102.743L333.127 102.457L333.098 102.51L333.262 102.24L333.229 102.29L333.417 102.038L333.379 102.084L333.59 101.852L333.548 101.894L333.781 101.683L333.735 101.721L333.986 101.532L333.937 101.566L334.207 101.402L334.153 101.431L334.439 101.293L334.383 101.317L334.684 101.207L334.624 101.225L334.938 101.145L334.877 101.157L335.202 101.108L335.139 101.114L335.474 101.097L335.41 101.097L335.745 101.114L335.682 101.108L336.007 101.157L335.946 101.145L336.26 101.225L336.2 101.207L336.501 101.317L336.445 101.293L336.731 101.431L336.677 101.402L336.947 101.566L336.898 101.532L337.149 101.721L337.103 101.683L337.336 101.894L337.294 101.852L337.505 102.084L337.467 102.038L337.655 102.29L337.622 102.24L337.786 102.51L337.757 102.457L337.894 102.743L337.871 102.686L337.981 102.987L337.962 102.928L338.043 103.242L338.03 103.18L338.08 103.505L338.074 103.442L338.091 103.777L338.091 103.714L338.074 104.049L338.08 103.986L338.03 104.311L338.043 104.249L337.962 104.563L337.981 104.504L337.871 104.805L337.894 104.748L337.757 105.034L337.786 104.981L337.622 105.251L337.655 105.201L337.467 105.453L337.505 105.407L337.294 105.639L337.336 105.597L337.103 105.808L337.149 105.77L336.898 105.959L336.947 105.925L336.677 106.089L336.731 106.06L336.445 106.198L336.501 106.174L336.2 106.284L336.26 106.266L335.946 106.346L336.007 106.334L335.682 106.383L335.745 106.377L335.41 106.394L335.474 106.394L335.139 106.377L335.202 106.383L334.877 106.334L334.938 106.346L334.624 106.266L334.684 106.284L334.383 106.174L334.439 106.198L334.153 106.06L334.207 106.089L333.937 105.925L333.986 105.959L333.735 105.77L333.781 105.808L333.548 105.597L333.59 105.639L333.379 105.407L333.417 105.453L333.229 105.201L333.262 105.251L333.098 104.981L333.127 105.034L332.99 104.748L333.013 104.805L332.903 104.504L332.922 104.563L332.841 104.249L332.854 104.311L332.804 103.986L332.81 104.049L332.793 103.714M331.562 104.112L331.568 104.174L331.618 104.499L331.63 104.561L331.711 104.874L331.729 104.934L331.84 105.234L331.863 105.291L332.001 105.577L332.03 105.63L332.194 105.9L332.228 105.95L332.416 106.202L332.454 106.248L332.665 106.48L332.707 106.522L332.94 106.733L332.986 106.771L333.238 106.96L333.288 106.993L333.558 107.157L333.611 107.186L333.897 107.324L333.953 107.348L334.254 107.458L334.313 107.476L334.627 107.557L334.688 107.57L335.013 107.619L335.076 107.626L335.41 107.642L335.474 107.642L335.808 107.626L335.871 107.619L336.196 107.57L336.257 107.557L336.571 107.476L336.63 107.458L336.931 107.348L336.987 107.324L337.273 107.186L337.326 107.157L337.596 106.993L337.646 106.96L337.898 106.771L337.944 106.733L338.177 106.522L338.219 106.48L338.43 106.248L338.468 106.202L338.656 105.95L338.69 105.9L338.854 105.63L338.883 105.577L339.021 105.291L339.044 105.234L339.155 104.934L339.173 104.874L339.254 104.561L339.266 104.499L339.316 104.174L339.322 104.112L339.339 103.777L339.339 103.714L339.322 103.379L339.316 103.317L339.266 102.992L339.254 102.93L339.173 102.617L339.155 102.557L339.044 102.257L339.021 102.2L338.883 101.914L338.854 101.861L338.69 101.591L338.656 101.541L338.468 101.289L338.43 101.243L338.219 101.011L338.177 100.969L337.944 100.758L337.898 100.72L337.646 100.531L337.596 100.498L337.326 100.334L337.273 100.305L336.987 100.167L336.931 100.143L336.63 100.033L336.571 100.015L336.257 99.93399L336.196 99.92099L335.871 99.87201L335.808 99.86499L335.474 99.849L335.41 99.849L335.076 99.86499L335.013 99.87201L334.688 99.92099L334.627 99.93399L334.313 100.015L334.254 100.033L333.953 100.143L333.897 100.167L333.611 100.305L333.558 100.334L333.288 100.498L333.238 100.531L332.986 100.72L332.94 100.758L332.707 100.969L332.665 101.011L332.454 101.243L332.416 101.289L332.228 101.541L332.194 101.591L332.03 101.861L332.001 101.914L331.863 102.2L331.84 102.257L331.729 102.557L331.711 102.617L331.63 102.93L331.618 102.992L331.568 103.317L331.562 103.379L331.545 103.714L331.545 103.777L331.562 104.112z" stroke="none" fill="#000000" fill-rule="nonzero" /><path id="70" transform="matrix(1 0 0 -1 0 540)" d="M552 89.28C 552.007 105.192 564.915 118.099 580.837 118.099C 596.76 118.099 609.668 105.192 609.668 89.26901C 609.668 73.34601 596.76 60.43799 580.837 60.43799C 564.915 60.43799 552.007 73.34601 552 89.28" stroke="none" fill="#92D050" fill-rule="evenodd" /><path id="71" transform="matrix(1 0 0 -1 0 540)" d="M552.632 89.26099L552.632 89.27701L552.641 88.53299L552.641 88.548L552.669 87.80899L552.668 87.82501L552.714 87.09L552.713 87.10599L552.778 86.37601L552.776 86.392L552.859 85.668L552.857 85.68301L552.958 84.965L552.955 84.98001L553.073 84.267L553.071 84.28299L553.206 83.57599L553.203 83.591L553.356 82.89099L553.352 82.90601L553.521 82.21201L553.518 82.22699L553.704 81.539L553.699 81.55399L553.902 80.87399L553.897 80.888L554.116 80.215L554.111 80.23001L554.346 79.56299L554.34 79.578L554.591 78.91901L554.585 78.93399L554.851 78.28299L554.845 78.297L555.126 77.65399L555.12 77.668L555.416 77.034L555.409 77.048L555.72 76.422L555.713 76.435L556.039 75.81799L556.032 75.83099L556.372 75.22299L556.364 75.23599L556.719 74.63699L556.711 74.64999L557.079 74.06L557.071 74.073L557.452 73.49301L557.444 73.505L557.839 72.935L557.831 72.94699L558.239 72.38699L558.23 72.39899L558.652 71.849L558.643 71.86099L559.077 71.32199L559.067 71.33301L559.514 70.80499L559.505 70.81601L559.964 70.29901L559.954 70.31L560.425 69.80301L560.415 69.814L560.898 69.319L560.888 69.32999L561.382 68.84601L561.372 68.85699L561.878 68.38501L561.867 68.39499L562.385 67.936L562.373 67.94601L562.902 67.49899L562.89 67.508L563.43 67.07401L563.418 67.08301L563.968 66.66199L563.956 66.67099L564.516 66.26199L564.504 66.271L565.074 65.87601L565.061 65.884L565.641 65.50201L565.629 65.51001L566.218 65.142L566.206 65.14999L566.805 64.79599L566.792 64.80301L567.4 64.46301L567.387 64.47101L568.004 64.14499L567.99 64.15201L568.616 63.841L568.602 63.84698L569.237 63.55099L569.223 63.55801L569.866 63.276L569.851 63.28201L570.502 63.01599L570.488 63.022L571.146 62.772L571.132 62.77701L571.798 62.54199L571.783 62.547L572.457 62.32901L572.442 62.33301L573.123 62.13101L573.108 62.13501L573.795 61.94901L573.78 61.953L574.474 61.784L574.459 61.78699L575.16 61.63501L575.144 61.638L575.851 61.50201L575.836 61.505L576.549 61.38699L576.533 61.38901L577.252 61.289L577.236 61.29099L577.96 61.20801L577.945 61.20999L578.674 61.14499L578.659 61.146L579.393 61.099L579.377 61.10001L580.117 61.07199L580.101 61.07199L580.845 61.06299L580.829 61.06299L581.573 61.07199L581.558 61.07199L582.297 61.10001L582.281 61.099L583.016 61.146L583 61.14499L583.73 61.20999L583.714 61.20801L584.438 61.29099L584.423 61.289L585.141 61.38901L585.126 61.38699L585.839 61.505L585.823 61.50201L586.53 61.638L586.515 61.63501L587.215 61.78699L587.2 61.784L587.894 61.953L587.879 61.94901L588.567 62.13501L588.552 62.13101L589.232 62.33301L589.218 62.32901L589.891 62.547L589.876 62.54199L590.543 62.77701L590.528 62.772L591.187 63.022L591.172 63.01599L591.823 63.28201L591.809 63.276L592.452 63.55801L592.438 63.55099L593.072 63.84698L593.058 63.841L593.684 64.15201L593.671 64.14499L594.288 64.47101L594.275 64.46301L594.883 64.80301L594.87 64.79599L595.469 65.14999L595.456 65.142L596.046 65.51001L596.033 65.50201L596.613 65.884L596.601 65.87601L597.171 66.271L597.159 66.26199L597.719 66.67099L597.707 66.66199L598.257 67.08301L598.245 67.07401L598.784 67.508L598.773 67.49899L599.301 67.94601L599.29 67.936L599.808 68.39499L599.797 68.38501L600.303 68.85699L600.292 68.84601L600.787 69.32999L600.776 69.319L601.26 69.814L601.249 69.80301L601.721 70.31L601.711 70.29901L602.17 70.81601L602.16 70.80499L602.607 71.33301L602.598 71.32199L603.032 71.86099L603.023 71.849L603.444 72.39899L603.435 72.38699L603.844 72.94699L603.835 72.935L604.23 73.505L604.222 73.49301L604.604 74.073L604.596 74.06L604.964 74.64999L604.956 74.63699L605.31 75.23599L605.303 75.22299L605.643 75.83099L605.635 75.81799L605.961 76.435L605.954 76.422L606.265 77.048L606.259 77.034L606.555 77.668L606.549 77.65399L606.83 78.297L606.824 78.28299L607.09 78.93399L607.084 78.91901L607.334 79.578L607.329 79.56299L607.564 80.23001L607.559 80.215L607.777 80.888L607.773 80.87399L607.975 81.55399L607.971 81.539L608.157 82.22699L608.153 82.21201L608.322 82.90601L608.319 82.89099L608.471 83.591L608.468 83.57599L608.604 84.28299L608.601 84.267L608.719 84.98001L608.717 84.965L608.817 85.68301L608.815 85.668L608.898 86.392L608.897 86.37601L608.961 87.10599L608.96 87.09L609.007 87.82501L609.006 87.80899L609.034 88.548L609.034 88.53299L609.043 89.27701L609.043 89.26099L609.034 90.005L609.034 89.98901L609.006 90.729L609.007 90.71301L608.96 91.448L608.961 91.43201L608.897 92.16101L608.898 92.146L608.815 92.87L608.817 92.854L608.717 93.573L608.719 93.55701L608.601 94.26999L608.604 94.255L608.468 94.96201L608.471 94.94601L608.319 95.647L608.322 95.63199L608.153 96.32599L608.157 96.311L607.971 96.99799L607.975 96.983L607.773 97.664L607.777 97.64899L607.559 98.323L607.564 98.30801L607.329 98.974L607.334 98.95999L607.084 99.61801L607.09 99.604L606.824 100.255L606.83 100.24L606.549 100.883L606.555 100.869L606.259 101.504L606.265 101.49L605.954 102.116L605.961 102.102L605.635 102.72L605.643 102.706L605.303 103.314L605.31 103.301L604.956 103.9L604.964 103.888L604.596 104.477L604.604 104.465L604.222 105.045L604.23 105.032L603.835 105.602L603.844 105.59L603.435 106.15L603.444 106.138L603.023 106.688L603.032 106.676L602.598 107.216L602.607 107.204L602.16 107.733L602.17 107.721L601.711 108.239L601.721 108.228L601.249 108.734L601.26 108.724L600.776 109.219L600.787 109.208L600.292 109.691L600.303 109.681L599.797 110.152L599.808 110.142L599.29 110.602L599.301 110.592L598.773 111.039L598.784 111.029L598.245 111.464L598.257 111.454L597.707 111.876L597.719 111.867L597.159 112.275L597.171 112.267L596.601 112.662L596.613 112.654L596.033 113.035L596.046 113.027L595.456 113.395L595.469 113.388L594.87 113.742L594.883 113.734L594.275 114.074L594.288 114.067L593.671 114.393L593.684 114.386L593.058 114.697L593.072 114.69L592.438 114.986L592.452 114.98L591.809 115.261L591.823 115.255L591.172 115.521L591.187 115.515L590.528 115.766L590.543 115.761L589.876 115.995L589.891 115.99L589.218 116.209L589.232 116.204L588.552 116.407L588.567 116.402L587.879 116.589L587.894 116.585L587.2 116.754L587.215 116.75L586.515 116.903L586.53 116.9L585.823 117.035L585.839 117.033L585.126 117.151L585.141 117.148L584.423 117.249L584.438 117.247L583.714 117.33L583.73 117.328L583 117.393L583.016 117.392L582.281 117.438L582.297 117.437L581.558 117.465L581.573 117.465L580.829 117.475L580.845 117.475L580.101 117.465L580.117 117.465L579.377 117.437L579.393 117.438L578.659 117.392L578.674 117.393L577.945 117.328L577.96 117.33L577.236 117.247L577.252 117.249L576.533 117.148L576.549 117.151L575.836 117.033L575.851 117.035L575.144 116.9L575.16 116.903L574.459 116.75L574.474 116.754L573.78 116.585L573.795 116.589L573.108 116.402L573.123 116.407L572.442 116.204L572.457 116.209L571.783 115.99L571.798 115.995L571.132 115.761L571.146 115.766L570.488 115.515L570.502 115.521L569.851 115.255L569.866 115.261L569.223 114.98L569.237 114.986L568.602 114.69L568.616 114.697L567.99 114.386L568.004 114.393L567.387 114.067L567.4 114.074L566.792 113.734L566.805 113.742L566.206 113.388L566.218 113.395L565.629 113.027L565.641 113.035L565.061 112.654L565.074 112.662L564.504 112.267L564.516 112.275L563.956 111.867L563.968 111.876L563.418 111.454L563.43 111.464L562.89 111.029L562.902 111.039L562.373 110.592L562.385 110.602L561.867 110.142L561.878 110.152L561.372 109.681L561.382 109.691L560.888 109.208L560.898 109.219L560.415 108.724L560.425 108.734L559.954 108.228L559.964 108.239L559.505 107.721L559.514 107.733L559.067 107.204L559.077 107.216L558.643 106.676L558.652 106.688L558.23 106.138L558.239 106.15L557.831 105.59L557.839 105.602L557.444 105.032L557.452 105.045L557.071 104.465L557.079 104.477L556.711 103.888L556.719 103.9L556.364 103.301L556.372 103.314L556.032 102.706L556.039 102.72L555.713 102.102L555.72 102.116L555.409 101.49L555.416 101.504L555.12 100.869L555.126 100.883L554.845 100.24L554.851 100.255L554.585 99.604L554.591 99.61801L554.34 98.95999L554.346 98.974L554.111 98.30801L554.116 98.323L553.897 97.64899L553.902 97.664L553.699 96.983L553.704 96.99799L553.518 96.311L553.521 96.32599L553.352 95.63199L553.356 95.647L553.203 94.94601L553.206 94.96201L553.071 94.255L553.073 94.26999L552.955 93.55701L552.958 93.573L552.857 92.854L552.859 92.87L552.776 92.146L552.778 92.16101L552.713 91.43201L552.714 91.448L552.668 90.71301L552.669 90.729L552.641 89.98901L552.641 90.005L552.632 89.26099M551.391 90.021L551.391 90.03699L551.42 90.776L551.42 90.79199L551.467 91.52701L551.468 91.54199L551.533 92.272L551.534 92.28799L551.617 93.01199L551.619 93.02701L551.72 93.746L551.722 93.76199L551.84 94.474L551.843 94.48999L551.979 95.19699L551.982 95.21201L552.134 95.91299L552.138 95.92801L552.307 96.62201L552.311 96.63699L552.497 97.32501L552.501 97.34L552.704 98.01999L552.708 98.035L552.927 98.70901L552.932 98.72299L553.167 99.38901L553.172 99.40399L553.422 100.062L553.428 100.077L553.694 100.727L553.7 100.741L553.981 101.384L553.987 101.398L554.283 102.033L554.29 102.046L554.601 102.672L554.608 102.686L554.934 103.303L554.941 103.316L555.281 103.924L555.288 103.938L555.643 104.537L555.65 104.549L556.018 105.139L556.027 105.152L556.408 105.732L556.417 105.744L556.812 106.315L556.821 106.327L557.229 106.887L557.238 106.899L557.66 107.449L557.669 107.461L558.103 108L558.113 108.011L558.56 108.54L558.57 108.551L559.029 109.069L559.039 109.08L559.51 109.586L559.52 109.597L560.004 110.092L560.014 110.102L560.509 110.586L560.52 110.596L561.026 111.067L561.037 111.077L561.555 111.537L561.566 111.546L562.095 111.993L562.106 112.003L562.646 112.437L562.657 112.446L563.207 112.868L563.219 112.877L563.779 113.285L563.792 113.294L564.362 113.689L564.374 113.698L564.954 114.079L564.967 114.088L565.557 114.456L565.569 114.464L566.169 114.818L566.182 114.825L566.79 115.165L566.803 115.173L567.42 115.498L567.434 115.505L568.06 115.816L568.074 115.823L568.708 116.119L568.722 116.125L569.365 116.406L569.379 116.412L570.029 116.678L570.044 116.684L570.702 116.934L570.717 116.94L571.383 117.174L571.397 117.179L572.071 117.398L572.086 117.402L572.766 117.605L572.781 117.609L573.469 117.795L573.484 117.799L574.178 117.968L574.193 117.972L574.894 118.124L574.909 118.128L575.616 118.263L575.632 118.266L576.344 118.384L576.36 118.386L577.079 118.487L577.094 118.489L577.818 118.572L577.834 118.573L578.564 118.638L578.579 118.639L579.314 118.686L579.33 118.686L580.069 118.715L580.085 118.715L580.829 118.724L580.845 118.724L581.589 118.715L581.605 118.715L582.345 118.686L582.36 118.686L583.095 118.639L583.111 118.638L583.84 118.573L583.856 118.572L584.58 118.489L584.596 118.487L585.315 118.386L585.33 118.384L586.043 118.266L586.058 118.263L586.765 118.128L586.781 118.124L587.481 117.972L587.496 117.968L588.191 117.799L588.206 117.795L588.893 117.609L588.908 117.605L589.589 117.402L589.604 117.398L590.277 117.179L590.292 117.174L590.958 116.94L590.972 116.934L591.631 116.684L591.645 116.678L592.296 116.412L592.31 116.406L592.953 116.125L592.967 116.119L593.601 115.823L593.615 115.816L594.241 115.505L594.254 115.498L594.871 115.173L594.885 115.165L595.493 114.825L595.506 114.818L596.105 114.464L596.118 114.456L596.708 114.088L596.72 114.079L597.3 113.698L597.313 113.689L597.883 113.294L597.895 113.285L598.455 112.877L598.467 112.868L599.017 112.446L599.029 112.437L599.568 112.003L599.58 111.993L600.108 111.546L600.12 111.537L600.637 111.077L600.648 111.067L601.155 110.596L601.165 110.586L601.66 110.102L601.671 110.092L602.154 109.597L602.164 109.586L602.636 109.08L602.646 109.069L603.105 108.551L603.115 108.54L603.562 108.011L603.571 108L604.005 107.461L604.015 107.449L604.436 106.899L604.445 106.887L604.854 106.327L604.862 106.315L605.258 105.744L605.266 105.732L605.648 105.152L605.656 105.139L606.024 104.549L606.032 104.537L606.386 103.938L606.394 103.924L606.734 103.316L606.741 103.303L607.067 102.686L607.074 102.672L607.385 102.046L607.391 102.033L607.687 101.398L607.694 101.384L607.975 100.741L607.981 100.727L608.247 100.077L608.252 100.062L608.503 99.40399L608.508 99.38901L608.743 98.72299L608.748 98.70901L608.966 98.035L608.971 98.01999L609.173 97.34L609.177 97.32501L609.364 96.63699L609.367 96.62201L609.537 95.92801L609.54 95.91299L609.693 95.21201L609.696 95.19699L609.831 94.48999L609.834 94.474L609.952 93.76199L609.955 93.746L610.055 93.02701L610.057 93.01199L610.14 92.28799L610.142 92.272L610.206 91.54199L610.208 91.52701L610.254 90.79199L610.255 90.776L610.283 90.03699L610.283 90.021L610.293 89.27701L610.293 89.26099L610.283 88.517L610.283 88.50101L610.255 87.76099L610.254 87.746L610.208 87.01099L610.206 86.995L610.142 86.26599L610.14 86.25L610.057 85.526L610.055 85.51001L609.955 84.79199L609.952 84.776L609.834 84.06299L609.831 84.048L609.696 83.341L609.693 83.32501L609.54 82.625L609.537 82.60999L609.367 81.91501L609.364 81.89999L609.177 81.21301L609.173 81.198L608.971 80.517L608.966 80.50201L608.748 79.82901L608.743 79.814L608.508 79.14801L608.503 79.134L608.252 78.47501L608.247 78.461L607.981 77.81L607.975 77.79599L607.694 77.15302L607.687 77.13901L607.391 76.505L607.385 76.491L607.074 75.86499L607.067 75.85199L606.741 75.23499L606.734 75.22101L606.394 74.61301L606.386 74.60001L606.032 74.00101L606.024 73.98801L605.656 73.39801L605.648 73.38599L605.266 72.806L605.258 72.793L604.862 72.22299L604.854 72.211L604.445 71.651L604.436 71.63901L604.015 71.08899L604.005 71.077L603.571 70.53799L603.562 70.526L603.115 69.99799L603.105 69.98599L602.646 69.46899L602.636 69.45801L602.164 68.95099L602.154 68.94101L601.671 68.44601L601.66 68.435L601.165 67.952L601.155 67.94199L600.648 67.47L600.637 67.45999L600.12 67.00101L600.108 66.991L599.58 66.54401L599.568 66.535L599.029 66.10101L599.017 66.091L598.467 65.67001L598.455 65.66101L597.895 65.25201L597.883 65.24399L597.313 64.84799L597.3 64.84L596.72 64.45801L596.708 64.45001L596.118 64.082L596.105 64.07401L595.506 63.72L595.493 63.71201L594.885 63.37201L594.871 63.36499L594.254 63.039L594.241 63.03201L593.615 62.72101L593.601 62.715L592.967 62.41901L592.953 62.41199L592.31 62.13101L592.296 62.125L591.645 61.85901L591.631 61.854L590.972 61.603L590.958 61.59799L590.292 61.36301L590.277 61.358L589.604 61.14001L589.589 61.13501L588.908 60.93301L588.893 60.92899L588.206 60.742L588.191 60.73901L587.496 60.569L587.481 60.56601L586.781 60.41299L586.765 60.41L586.058 60.27499L586.043 60.272L585.33 60.15399L585.315 60.151L584.596 60.05099L584.58 60.04901L583.856 59.966L583.84 59.96399L583.111 59.89999L583.095 59.89801L582.36 59.85199L582.345 59.85101L581.605 59.823L581.589 59.823L580.845 59.81299L580.829 59.81299L580.085 59.823L580.069 59.823L579.33 59.85101L579.314 59.85199L578.579 59.89801L578.564 59.89999L577.834 59.96399L577.818 59.966L577.094 60.04901L577.079 60.05099L576.36 60.151L576.344 60.15399L575.632 60.272L575.616 60.27499L574.909 60.41L574.894 60.41299L574.193 60.56601L574.178 60.569L573.484 60.73901L573.469 60.742L572.781 60.92899L572.766 60.93301L572.086 61.13501L572.071 61.14001L571.397 61.358L571.383 61.36301L570.717 61.59799L570.702 61.603L570.044 61.854L570.029 61.85901L569.379 62.125L569.365 62.13101L568.722 62.41199L568.708 62.41901L568.074 62.715L568.06 62.72101L567.434 63.03201L567.42 63.039L566.803 63.36499L566.79 63.37201L566.182 63.71201L566.169 63.72L565.569 64.07401L565.557 64.082L564.967 64.45001L564.954 64.45801L564.374 64.84L564.362 64.84799L563.792 65.24399L563.779 65.25201L563.219 65.66101L563.207 65.67001L562.657 66.091L562.646 66.10101L562.106 66.535L562.095 66.54401L561.566 66.991L561.555 67.00101L561.037 67.45999L561.026 67.47L560.52 67.94199L560.509 67.952L560.014 68.435L560.004 68.44601L559.52 68.94101L559.51 68.95099L559.039 69.45801L559.029 69.46899L558.57 69.98599L558.56 69.99799L558.113 70.526L558.103 70.53799L557.669 71.077L557.66 71.08899L557.238 71.63901L557.229 71.651L556.821 72.211L556.812 72.22299L556.417 72.793L556.408 72.806L556.027 73.38599L556.018 73.39801L555.65 73.98801L555.643 74.00101L555.288 74.60001L555.281 74.61301L554.941 75.22101L554.934 75.23499L554.608 75.85199L554.601 75.86499L554.29 76.491L554.283 76.505L553.987 77.13901L553.981 77.15302L553.7 77.79599L553.694 77.81L553.428 78.461L553.422 78.47501L553.172 79.134L553.167 79.14801L552.932 79.814L552.927 79.82901L552.708 80.50201L552.704 80.517L552.501 81.198L552.497 81.21301L552.311 81.89999L552.307 81.91501L552.138 82.60999L552.134 82.625L551.982 83.32501L551.979 83.341L551.843 84.048L551.84 84.06299L551.722 84.776L551.72 84.79199L551.619 85.51001L551.617 85.526L551.534 86.25L551.533 86.26599L551.468 86.995L551.467 87.01099L551.42 87.746L551.42 87.76099L551.391 88.50101L551.391 88.517L551.382 89.26099L551.382 89.27701L551.391 90.021z" stroke="none" fill="#6A9838" fill-rule="nonzero" /><path id="72" transform="matrix(1 0 0 -1 0 540)" d="M576.72 89.04001C 576.818 90.82599 578.283 92.29099 580.091 92.29099C 581.898 92.29099 583.363 90.82599 583.363 89.01801C 583.363 87.211 581.898 85.746 580.091 85.746C 578.283 85.746 576.818 87.211 576.72 89.04001" stroke="none" fill="#5B9BD5" fill-rule="evenodd" /><path id="73" transform="matrix(1 0 0 -1 0 540)" d="M577.442 88.987L577.442 89.04999L577.459 88.715L577.453 88.77802L577.502 88.453L577.49 88.51401L577.57 88.20099L577.552 88.26001L577.662 87.95901L577.638 88.01599L577.776 87.73001L577.747 87.78299L577.911 87.513L577.877 87.56299L578.066 87.311L578.028 87.35699L578.239 87.12399L578.197 87.16699L578.429 86.95499L578.383 86.99301L578.635 86.80499L578.585 86.83899L578.855 86.67499L578.802 86.70401L579.088 86.56601L579.032 86.59L579.332 86.48001L579.273 86.49799L579.587 86.41699L579.525 86.42999L579.85 86.38L579.788 86.38699L580.122 86.37L580.059 86.37L580.394 86.38699L580.331 86.38L580.656 86.42999L580.595 86.41699L580.908 86.49799L580.849 86.48001L581.15 86.59L581.093 86.56601L581.379 86.70401L581.326 86.67499L581.596 86.83899L581.546 86.80499L581.798 86.99301L581.752 86.95499L581.984 87.16699L581.942 87.12399L582.154 87.35699L582.116 87.311L582.304 87.56299L582.27 87.513L582.434 87.78299L582.405 87.73001L582.543 88.01599L582.519 87.95901L582.629 88.26001L582.611 88.20099L582.692 88.51401L582.679 88.453L582.729 88.77802L582.722 88.715L582.739 89.04999L582.739 88.987L582.722 89.32101L582.729 89.259L582.679 89.58301L582.692 89.522L582.611 89.836L582.629 89.77701L582.519 90.077L582.543 90.021L582.405 90.30701L582.434 90.254L582.27 90.52399L582.304 90.474L582.116 90.72601L582.154 90.67999L581.942 90.91199L581.984 90.87L581.752 91.08099L581.798 91.043L581.546 91.23199L581.596 91.198L581.326 91.362L581.379 91.33301L581.093 91.47101L581.15 91.44699L580.849 91.55701L580.908 91.539L580.595 91.61899L580.656 91.60699L580.331 91.65601L580.394 91.64999L580.059 91.66699L580.122 91.66699L579.788 91.64999L579.85 91.65601L579.525 91.60699L579.587 91.61899L579.273 91.539L579.332 91.55701L579.032 91.44699L579.088 91.47101L578.802 91.33301L578.855 91.362L578.585 91.198L578.635 91.23199L578.383 91.043L578.429 91.08099L578.197 90.87L578.239 90.91199L578.028 90.67999L578.066 90.72601L577.877 90.474L577.911 90.52399L577.747 90.254L577.776 90.30701L577.638 90.021L577.662 90.077L577.552 89.77701L577.57 89.836L577.49 89.522L577.502 89.58301L577.453 89.259L577.459 89.32101L577.442 88.987M576.211 89.384L576.217 89.44699L576.267 89.772L576.279 89.83301L576.36 90.147L576.378 90.20599L576.488 90.50699L576.512 90.56299L576.65 90.849L576.679 90.90302L576.843 91.173L576.876 91.22198L577.065 91.474L577.103 91.51999L577.314 91.75299L577.356 91.79501L577.589 92.00601L577.635 92.04401L577.887 92.233L577.936 92.26599L578.206 92.42999L578.26 92.45901L578.546 92.59698L578.602 92.621L578.903 92.73099L578.962 92.74899L579.276 92.82999L579.337 92.84201L579.662 92.892L579.725 92.89801L580.059 92.91501L580.122 92.91501L580.457 92.89801L580.52 92.892L580.845 92.84201L580.906 92.82999L581.22 92.74899L581.279 92.73099L581.579 92.621L581.636 92.59698L581.922 92.45901L581.975 92.42999L582.245 92.26599L582.295 92.233L582.547 92.04401L582.593 92.00601L582.825 91.79501L582.867 91.75299L583.079 91.51999L583.117 91.474L583.305 91.22198L583.339 91.173L583.503 90.90302L583.531 90.849L583.669 90.56299L583.693 90.50699L583.803 90.20599L583.822 90.147L583.902 89.83301L583.915 89.772L583.964 89.44699L583.971 89.384L583.988 89.04999L583.988 88.987L583.971 88.65201L583.964 88.58899L583.915 88.26401L583.902 88.203L583.822 87.88901L583.803 87.82999L583.693 87.53L583.669 87.47299L583.531 87.18701L583.503 87.134L583.339 86.86401L583.305 86.814L583.117 86.56201L583.079 86.51599L582.867 86.284L582.825 86.242L582.593 86.03L582.547 85.992L582.295 85.80399L582.245 85.76999L581.975 85.60599L581.922 85.577L581.636 85.44L581.579 85.41599L581.279 85.306L581.22 85.28699L580.906 85.207L580.845 85.194L580.52 85.14499L580.457 85.138L580.122 85.121L580.059 85.121L579.725 85.138L579.662 85.14499L579.337 85.194L579.276 85.207L578.962 85.28699L578.903 85.306L578.602 85.41599L578.546 85.44L578.26 85.577L578.206 85.60599L577.936 85.76999L577.887 85.80399L577.635 85.992L577.589 86.03L577.356 86.242L577.314 86.284L577.103 86.51599L577.065 86.56201L576.876 86.814L576.843 86.86401L576.679 87.134L576.65 87.18701L576.512 87.47299L576.488 87.53L576.378 87.82999L576.36 87.88901L576.279 88.203L576.267 88.26401L576.217 88.58899L576.211 88.65201L576.194 88.987L576.194 89.04999L576.211 89.384z" stroke="none" fill="#41719C" fill-rule="nonzero" /><path id="74" transform="matrix(1 0 0 -1 0 540)" d="M637.44 89.04001C 637.363 90.82599 638.829 92.29099 640.636 92.29099C 642.444 92.29099 643.909 90.82599 643.909 89.01801C 643.909 87.211 642.444 85.746 640.636 85.746C 638.829 85.746 637.363 87.211 637.44 89.04001" stroke="none" fill="#000000" fill-rule="evenodd" /><path id="75" transform="matrix(1 0 0 -1 0 540)" d="M637.988 88.987L637.988 89.04999L638.005 88.715L637.998 88.77802L638.048 88.453L638.035 88.51401L638.116 88.20099L638.098 88.26001L638.208 87.95901L638.184 88.01599L638.322 87.73001L638.293 87.78299L638.457 87.513L638.423 87.56299L638.611 87.311L638.573 87.35699L638.785 87.12399L638.742 87.16699L638.975 86.95499L638.929 86.99301L639.181 86.80499L639.131 86.83899L639.401 86.67499L639.347 86.70401L639.634 86.56601L639.577 86.59L639.878 86.48001L639.819 86.49799L640.132 86.41699L640.071 86.42999L640.396 86.38L640.333 86.38699L640.668 86.37L640.605 86.37L640.939 86.38699L640.877 86.38L641.201 86.42999L641.14 86.41699L641.454 86.49799L641.395 86.48001L641.695 86.59L641.639 86.56601L641.925 86.70401L641.872 86.67499L642.141 86.83899L642.092 86.80499L642.344 86.99301L642.298 86.95499L642.53 87.16699L642.488 87.12399L642.699 87.35699L642.661 87.311L642.849 87.56299L642.816 87.513L642.98 87.78299L642.951 87.73001L643.089 88.01599L643.065 87.95901L643.175 88.26001L643.156 88.20099L643.237 88.51401L643.225 88.453L643.274 88.77802L643.268 88.715L643.285 89.04999L643.285 88.987L643.268 89.32101L643.274 89.259L643.225 89.58301L643.237 89.522L643.156 89.836L643.175 89.77701L643.065 90.077L643.089 90.021L642.951 90.30701L642.98 90.254L642.816 90.52399L642.849 90.474L642.661 90.72601L642.699 90.67999L642.488 90.91199L642.53 90.87L642.298 91.08099L642.344 91.043L642.092 91.23199L642.141 91.198L641.872 91.362L641.925 91.33301L641.639 91.47101L641.695 91.44699L641.395 91.55701L641.454 91.539L641.14 91.61899L641.201 91.60699L640.877 91.65601L640.939 91.64999L640.605 91.66699L640.668 91.66699L640.333 91.64999L640.396 91.65601L640.071 91.60699L640.132 91.61899L639.819 91.539L639.878 91.55701L639.577 91.44699L639.634 91.47101L639.347 91.33301L639.401 91.362L639.131 91.198L639.181 91.23199L638.929 91.043L638.975 91.08099L638.742 90.87L638.785 90.91199L638.573 90.67999L638.611 90.72601L638.423 90.474L638.457 90.52399L638.293 90.254L638.322 90.30701L638.184 90.021L638.208 90.077L638.098 89.77701L638.116 89.836L638.035 89.522L638.048 89.58301L637.998 89.259L638.005 89.32101L637.988 88.987M636.756 89.384L636.763 89.44699L636.812 89.772L636.825 89.83301L636.905 90.147L636.924 90.20599L637.034 90.50699L637.058 90.56299L637.195 90.849L637.224 90.90302L637.388 91.173L637.422 91.22198L637.61 91.474L637.648 91.51999L637.859 91.75299L637.902 91.79501L638.134 92.00601L638.18 92.04401L638.432 92.233L638.482 92.26599L638.752 92.42999L638.805 92.45901L639.091 92.59698L639.147 92.621L639.448 92.73099L639.507 92.74899L639.821 92.82999L639.882 92.84201L640.207 92.892L640.27 92.89801L640.605 92.91501L640.668 92.91501L641.002 92.89801L641.065 92.892L641.39 92.84201L641.451 92.82999L641.765 92.74899L641.824 92.73099L642.125 92.621L642.181 92.59698L642.467 92.45901L642.521 92.42999L642.79 92.26599L642.84 92.233L643.092 92.04401L643.138 92.00601L643.371 91.79501L643.413 91.75299L643.624 91.51999L643.662 91.474L643.851 91.22198L643.884 91.173L644.048 90.90302L644.077 90.849L644.215 90.56299L644.239 90.50699L644.349 90.20599L644.367 90.147L644.448 89.83301L644.46 89.772L644.51 89.44699L644.516 89.384L644.533 89.04999L644.533 88.987L644.516 88.65201L644.51 88.58899L644.46 88.26401L644.448 88.203L644.367 87.88901L644.349 87.82999L644.239 87.53L644.215 87.47299L644.077 87.18701L644.048 87.134L643.884 86.86401L643.851 86.814L643.662 86.56201L643.624 86.51599L643.413 86.284L643.371 86.242L643.138 86.03L643.092 85.992L642.84 85.80399L642.79 85.76999L642.521 85.60599L642.467 85.577L642.181 85.44L642.125 85.41599L641.824 85.306L641.765 85.28699L641.451 85.207L641.39 85.194L641.065 85.14499L641.002 85.138L640.668 85.121L640.605 85.121L640.27 85.138L640.207 85.14499L639.882 85.194L639.821 85.207L639.507 85.28699L639.448 85.306L639.147 85.41599L639.091 85.44L638.805 85.577L638.752 85.60599L638.482 85.76999L638.432 85.80399L638.18 85.992L638.134 86.03L637.902 86.242L637.859 86.284L637.648 86.51599L637.61 86.56201L637.422 86.814L637.388 86.86401L637.224 87.134L637.195 87.18701L637.058 87.47299L637.034 87.53L636.924 87.82999L636.905 87.88901L636.825 88.203L636.812 88.26401L636.763 88.58899L636.756 88.65201L636.739 88.987L636.739 89.04999L636.756 89.384z" stroke="none" fill="#000000" fill-rule="nonzero" /><g transform="matrix(0.3272727 0 0 0.3272727 270 428.4)"><g transform="matrix(1 0 0 1 0 0)"><image x="0" y="0" xlink:href="img_11.png" width="209" height="55" /></g></g><g transform="matrix(0.3272727 0 0 0.3272727 576 442.8)"><g transform="matrix(1 0 0 1 0 0)"><image x="0" y="0" xlink:href="img_12.png" width="209" height="55" /></g></g><g transform="matrix(0.3272727 0 0 0.3272727 75.6 406.8)"><g transform="matrix(1 0 0 1 0 0)"><image x="0" y="0" xlink:href="img_13.png" width="440" height="220" /></g></g><g transform="matrix(0.3272727 0 0 0.3272727 698.4 406.8)"><g transform="matrix(1 0 0 1 0 0)"><image x="0" y="0" xlink:href="img_14.png" width="440" height="220" /></g></g></g></g></g></svg>